# Blender v3.4.1 OBJ File: 'Furniture_export_extra.blend'
# www.blender.org
mtllib cup.mtl
o cup_Cylinder.609
v 0.000000 0.444000 -0.124761
v 0.062380 0.444000 -0.108046
v 0.108046 0.444000 -0.062380
v 0.124761 0.444000 0.000000
v 0.108046 0.444000 0.062380
v 0.062380 0.444000 0.108046
v -0.000000 0.444000 0.124761
v -0.062380 0.444000 0.108046
v -0.108046 0.444000 0.062380
v -0.124761 0.444000 -0.000000
v -0.108046 0.444000 -0.062380
v -0.062380 0.444000 -0.108046
v 0.091875 0.444000 -0.159132
v 0.000000 0.444000 -0.183750
v 0.159132 0.444000 -0.091875
v 0.183750 0.444000 0.000000
v 0.159132 0.444000 0.091875
v 0.091875 0.444000 0.159132
v -0.000000 0.444000 0.183750
v -0.091875 0.444000 0.159132
v -0.159132 0.444000 0.091875
v -0.183750 0.444000 -0.000000
v -0.159132 0.444000 -0.091875
v -0.091875 0.444000 -0.159132
v -0.000000 0.000000 -0.000000
v 0.000000 0.036750 -0.183750
v 0.091875 0.036750 -0.159132
v 0.159132 0.036750 -0.091875
v 0.183750 0.036750 0.000000
v 0.159132 0.036750 0.091875
v 0.091875 0.036750 0.159132
v -0.000000 0.036750 0.183750
v -0.091875 0.036750 0.159132
v -0.159132 0.036750 0.091875
v -0.183750 0.036750 -0.000000
v -0.159132 0.036750 -0.091875
v -0.091875 0.036750 -0.159132
v 0.000000 0.458700 -0.154255
v 0.077128 0.458700 -0.133589
v 0.133589 0.458700 -0.077128
v 0.154255 0.458700 0.000000
v 0.133589 0.458700 0.077128
v 0.077128 0.458700 0.133589
v -0.000000 0.458700 0.154255
v -0.077128 0.458700 0.133589
v -0.133589 0.458700 0.077128
v -0.154255 0.458700 -0.000000
v -0.133589 0.458700 -0.077128
v -0.077128 0.458700 -0.133589
v 0.072852 0.000000 -0.126183
v 0.000000 0.000000 -0.145704
v 0.126183 0.000000 -0.072852
v 0.145704 0.000000 0.000000
v 0.126183 0.000000 0.072852
v 0.072852 0.000000 0.126183
v -0.000000 0.000000 0.145704
v -0.072852 0.000000 0.126183
v -0.126183 0.000000 0.072852
v -0.145704 0.000000 -0.000000
v -0.126183 0.000000 -0.072852
v -0.072852 0.000000 -0.126183
v -0.000000 0.036750 0.000000
vt 0.419543 0.596766
vt 0.419543 0.617316
vt 0.424179 0.617316
vt 0.424179 0.596766
vt 0.432209 0.596766
vt 0.432209 0.617316
vt 0.433451 0.617316
vt 0.433451 0.596766
vt 0.432209 0.617316
vt 0.432209 0.596766
vt 0.428815 0.617316
vt 0.428815 0.596766
vt 0.424179 0.617316
vt 0.424179 0.596766
vt 0.419543 0.617316
vt 0.419543 0.596766
vt 0.416150 0.617316
vt 0.416150 0.596766
vt 0.414907 0.617316
vt 0.414907 0.596766
vt 0.416150 0.617316
vt 0.416150 0.596766
vt 0.427327 0.617316
vt 0.424179 0.617316
vt 0.424179 0.549891
vt 0.428815 0.596766
vt 0.428815 0.617316
vt 0.424179 0.649308
vt 0.428071 0.649308
vt 0.428815 0.648566
vt 0.424179 0.648566
vt 0.430920 0.649308
vt 0.432209 0.648566
vt 0.431963 0.649308
vt 0.433451 0.648566
vt 0.430920 0.649308
vt 0.432209 0.648566
vt 0.428071 0.649308
vt 0.428815 0.648566
vt 0.424179 0.649308
vt 0.424179 0.648566
vt 0.420287 0.649308
vt 0.419543 0.648566
vt 0.417438 0.649308
vt 0.416150 0.648566
vt 0.416396 0.649308
vt 0.414907 0.648566
vt 0.417438 0.649308
vt 0.416150 0.648566
vt 0.420287 0.649308
vt 0.419543 0.648566
vt 0.418727 0.617316
vt 0.421032 0.617316
vt 0.427327 0.617316
vt 0.429631 0.617316
vt 0.421032 0.617316
vt 0.429631 0.617316
vt 0.417884 0.617316
vt 0.424179 0.617316
vt 0.430475 0.617316
vt 0.418727 0.617316
vt 0.424179 0.581141
vt 0.428815 0.581141
vt 0.427855 0.579287
vt 0.424179 0.579287
vt 0.432209 0.581141
vt 0.430546 0.579287
vt 0.433451 0.581141
vt 0.431532 0.579287
vt 0.432209 0.581141
vt 0.430546 0.579287
vt 0.428815 0.581141
vt 0.427855 0.579287
vt 0.424179 0.581141
vt 0.424179 0.579287
vt 0.419543 0.581141
vt 0.420503 0.579287
vt 0.416150 0.581141
vt 0.417812 0.579287
vt 0.414907 0.581141
vt 0.416827 0.579287
vt 0.416150 0.581141
vt 0.417812 0.579287
vt 0.419543 0.581141
vt 0.420503 0.579287
vt 0.421032 0.632941
vt 0.424179 0.632941
vt 0.424179 0.633683
vt 0.420287 0.633683
vt 0.418727 0.632941
vt 0.417438 0.633683
vt 0.417884 0.632941
vt 0.416396 0.633683
vt 0.418727 0.632941
vt 0.417438 0.633683
vt 0.421032 0.632941
vt 0.420287 0.633683
vt 0.424179 0.632941
vt 0.424179 0.633683
vt 0.427327 0.632941
vt 0.428071 0.633683
vt 0.429631 0.632941
vt 0.430920 0.633683
vt 0.430475 0.632941
vt 0.431963 0.633683
vt 0.429631 0.632941
vt 0.430920 0.633683
vt 0.427327 0.632941
vt 0.428071 0.633683
vt 0.424179 0.563662
vt 0.424179 0.563662
vt 0.427855 0.563662
vt 0.430546 0.563662
vt 0.431532 0.563662
vt 0.430546 0.563662
vt 0.427855 0.563662
vt 0.424179 0.563662
vt 0.420503 0.563662
vt 0.417812 0.563662
vt 0.416827 0.563662
vt 0.417812 0.563662
vt 0.420503 0.563662
vn -0.4647 -0.3692 -0.8048
vn -0.5000 0.0000 -0.8660
vn 0.0000 0.0000 -1.0000
vn 0.0000 -0.3692 -0.9293
vn 0.8048 -0.3692 -0.4647
vn 0.8660 0.0000 -0.5000
vn 1.0000 0.0000 0.0000
vn 0.9293 -0.3692 0.0000
vn 0.8660 0.0000 0.5000
vn 0.8048 -0.3692 0.4647
vn 0.5000 0.0000 0.8660
vn 0.4647 -0.3692 0.8048
vn -0.0000 0.0000 1.0000
vn -0.0000 -0.3692 0.9293
vn -0.5000 0.0000 0.8660
vn -0.4647 -0.3692 0.8048
vn -0.8660 0.0000 0.5000
vn -0.8048 -0.3692 0.4647
vn -1.0000 0.0000 0.0000
vn -0.9293 -0.3692 0.0000
vn -0.8660 0.0000 -0.5000
vn -0.8048 -0.3692 -0.4647
vn -0.4781 0.2929 0.8280
vn 0.0000 0.2929 0.9561
vn 0.0000 1.0000 -0.0000
vn 0.4647 -0.3692 -0.8048
vn 0.5000 0.0000 -0.8660
vn 0.0000 0.8950 -0.4461
vn 0.2230 0.8950 -0.3863
vn 0.3863 0.8950 -0.2230
vn 0.4461 0.8950 -0.0000
vn 0.3863 0.8950 0.2230
vn 0.2230 0.8950 0.3863
vn -0.0000 0.8950 0.4461
vn -0.2230 0.8950 0.3863
vn -0.3863 0.8950 0.2230
vn -0.4461 0.8950 0.0000
vn -0.3863 0.8950 -0.2230
vn -0.2230 0.8950 -0.3863
vn 0.8280 0.2929 -0.4781
vn 0.4781 0.2929 -0.8280
vn -0.4781 0.2929 -0.8280
vn -0.8280 0.2929 -0.4781
vn 0.4781 0.2929 0.8280
vn -0.8280 0.2929 0.4781
vn 0.9561 0.2929 0.0000
vn 0.0000 0.2929 -0.9561
vn -0.9561 0.2929 -0.0000
vn 0.8280 0.2929 0.4781
vn 0.3474 -0.7193 -0.6017
vn 0.0000 -0.9049 -0.4257
vn 0.6017 -0.7193 -0.3474
vn 0.6947 -0.7193 0.0000
vn 0.6017 -0.7193 0.3474
vn 0.2129 -0.9049 0.3687
vn -0.0000 -0.9049 0.4257
vn -0.3474 -0.7193 0.6017
vn -0.6017 -0.7193 0.3474
vn -0.6947 -0.7193 0.0000
vn -0.6017 -0.7193 -0.3474
vn -0.2129 -0.9049 -0.3687
vn 0.0000 -1.0000 0.0000
usemtl furniture_texture
s 1
f 37/1/1 24/2/2 14/3/3 26/4/4
f 28/5/5 15/6/6 16/7/7 29/8/8
f 29/8/8 16/7/7 17/9/9 30/10/10
f 30/10/10 17/9/9 18/11/11 31/12/12
f 31/12/12 18/11/11 19/13/13 32/14/14
f 32/14/14 19/13/13 20/15/15 33/16/16
f 33/16/16 20/15/15 21/17/17 34/18/18
f 34/18/18 21/17/17 22/19/19 35/20/20
f 35/20/20 22/19/19 23/21/21 36/22/22
f 36/22/22 23/21/21 24/2/2 37/1/1
f 2/23/23 1/24/24 62/25/25
f 27/26/26 13/27/27 15/6/6 28/5/5
f 26/4/4 14/3/3 13/27/27 27/26/26
f 38/28/28 39/29/29 13/30/29 14/31/28
f 39/29/29 40/32/30 15/33/30 13/30/29
f 40/32/30 41/34/31 16/35/31 15/33/30
f 41/34/31 42/36/32 17/37/32 16/35/31
f 42/36/32 43/38/33 18/39/33 17/37/32
f 43/38/33 44/40/34 19/41/34 18/39/33
f 44/40/34 45/42/35 20/43/35 19/41/34
f 45/42/35 46/44/36 21/45/36 20/43/35
f 46/44/36 47/46/37 22/47/37 21/45/36
f 47/46/37 48/48/38 23/49/38 22/47/37
f 48/48/38 49/50/39 24/51/39 23/49/38
f 49/50/39 38/28/28 14/31/28 24/51/39
f 9/52/40 8/53/41 62/25/25
f 6/54/42 5/55/43 62/25/25
f 1/24/24 12/56/44 62/25/25
f 3/57/45 2/23/23 62/25/25
f 10/58/46 9/52/40 62/25/25
f 7/59/47 6/54/42 62/25/25
f 4/60/48 3/57/45 62/25/25
f 11/61/49 10/58/46 62/25/25
f 8/53/41 7/59/47 62/25/25
f 5/55/43 4/60/48 62/25/25
f 12/56/44 11/61/49 62/25/25
f 26/62/4 27/63/26 50/64/50 51/65/51
f 27/63/26 28/66/5 52/67/52 50/64/50
f 28/66/5 29/68/8 53/69/53 52/67/52
f 29/68/8 30/70/10 54/71/54 53/69/53
f 30/70/10 31/72/12 55/73/55 54/71/54
f 31/72/12 32/74/14 56/75/56 55/73/55
f 32/74/14 33/76/16 57/77/57 56/75/56
f 33/76/16 34/78/18 58/79/58 57/77/57
f 34/78/18 35/80/20 59/81/59 58/79/58
f 35/80/20 36/82/22 60/83/60 59/81/59
f 36/82/22 37/84/1 61/85/61 60/83/60
f 37/84/1 26/62/4 51/65/51 61/85/61
f 12/86/33 1/87/34 38/88/34 49/89/33
f 11/90/32 12/86/33 49/89/33 48/91/32
f 10/92/31 11/90/32 48/91/32 47/93/31
f 9/94/30 10/92/31 47/93/31 46/95/30
f 8/96/29 9/94/30 46/95/30 45/97/29
f 7/98/28 8/96/29 45/97/29 44/99/28
f 6/100/39 7/98/28 44/99/28 43/101/39
f 5/102/38 6/100/39 43/101/39 42/103/38
f 4/104/37 5/102/38 42/103/38 41/105/37
f 3/106/36 4/104/37 41/105/37 40/107/36
f 2/108/35 3/106/36 40/107/36 39/109/35
f 1/87/34 2/108/35 39/109/35 38/88/34
f 25/110/62 51/111/51 50/112/62
f 25/110/62 50/112/62 52/113/62
f 25/110/62 52/113/62 53/114/62
f 25/110/62 53/114/62 54/115/62
f 25/110/62 54/115/62 55/116/55
f 25/110/62 55/116/55 56/117/56
f 25/110/62 56/117/56 57/118/62
f 25/110/62 57/118/62 58/119/62
f 25/110/62 58/119/62 59/120/62
f 25/110/62 59/120/62 60/121/62
f 25/110/62 60/121/62 61/122/61
f 25/110/62 61/122/61 51/111/51
