# Blender v3.4.1 OBJ File: 'Furniture_export_extra.blend'
# www.blender.org
mtllib cup_pencils.mtl
o cup_pencils_Cylinder.617
v 0.000000 0.444000 -0.124761
v 0.062380 0.444000 -0.108046
v 0.108046 0.444000 -0.062380
v 0.124761 0.444000 0.000000
v 0.108046 0.444000 0.062380
v 0.062380 0.444000 0.108046
v -0.000000 0.444000 0.124761
v -0.062380 0.444000 0.108046
v -0.108046 0.444000 0.062380
v -0.124761 0.444000 -0.000000
v -0.108046 0.444000 -0.062380
v -0.062380 0.444000 -0.108046
v 0.091875 0.444000 -0.159132
v 0.000000 0.444000 -0.183750
v 0.159132 0.444000 -0.091875
v 0.183750 0.444000 0.000000
v 0.159132 0.444000 0.091875
v 0.091875 0.444000 0.159132
v -0.000000 0.444000 0.183750
v -0.091875 0.444000 0.159132
v -0.159132 0.444000 0.091875
v -0.183750 0.444000 -0.000000
v -0.159132 0.444000 -0.091875
v -0.091875 0.444000 -0.159132
v -0.000000 0.000000 -0.000000
v 0.000000 0.036750 -0.183750
v 0.091875 0.036750 -0.159132
v 0.159132 0.036750 -0.091875
v 0.183750 0.036750 0.000000
v 0.159132 0.036750 0.091875
v 0.091875 0.036750 0.159132
v -0.000000 0.036750 0.183750
v -0.091875 0.036750 0.159132
v -0.159132 0.036750 0.091875
v -0.183750 0.036750 -0.000000
v -0.159132 0.036750 -0.091875
v -0.091875 0.036750 -0.159132
v 0.000000 0.458700 -0.154255
v 0.077128 0.458700 -0.133589
v 0.133589 0.458700 -0.077128
v 0.154255 0.458700 0.000000
v 0.133589 0.458700 0.077128
v 0.077128 0.458700 0.133589
v -0.000000 0.458700 0.154255
v -0.077128 0.458700 0.133589
v -0.133589 0.458700 0.077128
v -0.154255 0.458700 -0.000000
v -0.133589 0.458700 -0.077128
v -0.077128 0.458700 -0.133589
v 0.072852 0.000000 -0.126183
v 0.000000 0.000000 -0.145704
v 0.126183 0.000000 -0.072852
v 0.145704 0.000000 0.000000
v 0.126183 0.000000 0.072852
v 0.072852 0.000000 0.126183
v -0.000000 0.000000 0.145704
v -0.072852 0.000000 0.126183
v -0.126183 0.000000 0.072852
v -0.145704 0.000000 -0.000000
v -0.126183 0.000000 -0.072852
v -0.072852 0.000000 -0.126183
v -0.000000 0.036750 0.000000
v -0.079766 0.550062 -0.014741
v -0.054787 0.552228 -0.000265
v -0.054787 0.552228 0.028688
v -0.079766 0.550062 0.043164
v -0.104746 0.547897 0.028688
v -0.104746 0.547897 -0.000265
v -0.026092 0.504634 -0.014395
v -0.075455 0.500355 -0.043002
v -0.026092 0.504634 0.042818
v -0.075455 0.500355 0.071425
v -0.124818 0.496076 0.042818
v -0.124818 0.496076 -0.014395
v -0.083481 0.592918 0.014212
v -0.038692 0.076279 -0.043002
v 0.010671 0.080558 -0.014395
v 0.010671 0.080558 0.042818
v -0.038692 0.076279 0.071425
v -0.088055 0.072000 0.042818
v -0.088055 0.072000 -0.014395
v 0.085710 0.586541 0.025528
v 0.110366 0.581980 0.040005
v 0.110366 0.581980 0.068957
v 0.085710 0.586541 0.083433
v 0.061055 0.591102 0.068957
v 0.061055 0.591102 0.040005
v 0.125359 0.528466 0.025874
v 0.076637 0.537479 -0.002733
v 0.125359 0.528466 0.083087
v 0.076637 0.537479 0.111694
v 0.027915 0.546491 0.083087
v 0.027915 0.546491 0.025874
v 0.093535 0.628840 0.054481
v -0.000790 0.118913 -0.002733
v 0.047932 0.109901 0.025874
v 0.047932 0.109901 0.083087
v -0.000790 0.118913 0.111694
v -0.049511 0.127926 0.083087
v -0.049511 0.127926 0.025874
v 0.024477 0.627390 -0.111882
v 0.049550 0.629200 -0.097519
v 0.049550 0.632820 -0.068794
v 0.024477 0.634631 -0.054431
v -0.000597 0.632820 -0.068794
v -0.000597 0.629200 -0.097519
v 0.074027 0.577931 -0.105300
v 0.024479 0.574354 -0.133682
v 0.074027 0.585085 -0.048536
v 0.024479 0.588662 -0.020153
v -0.025069 0.585085 -0.048536
v -0.025069 0.577931 -0.105300
v 0.024477 0.673689 -0.088535
v 0.024479 0.152028 -0.080456
v 0.074027 0.155605 -0.052074
v 0.074027 0.162759 0.004690
v 0.024479 0.166336 0.033072
v -0.025069 0.162759 0.004690
v -0.025069 0.155605 -0.052074
vt 0.169543 0.596766
vt 0.169543 0.617316
vt 0.174179 0.617316
vt 0.174179 0.596766
vt 0.182209 0.596766
vt 0.182209 0.617316
vt 0.183451 0.617316
vt 0.183451 0.596766
vt 0.182209 0.617316
vt 0.182209 0.596766
vt 0.178815 0.617316
vt 0.178815 0.596766
vt 0.174179 0.617316
vt 0.174179 0.596766
vt 0.169543 0.617316
vt 0.169543 0.596766
vt 0.166150 0.617316
vt 0.166150 0.596766
vt 0.164907 0.617316
vt 0.164907 0.596766
vt 0.166150 0.617316
vt 0.166150 0.596766
vt 0.177327 0.617316
vt 0.174179 0.617316
vt 0.174179 0.549891
vt 0.178815 0.596766
vt 0.178815 0.617316
vt 0.174179 0.649308
vt 0.178071 0.649308
vt 0.178815 0.648566
vt 0.174179 0.648566
vt 0.180920 0.649308
vt 0.182209 0.648566
vt 0.181963 0.649308
vt 0.183451 0.648566
vt 0.180920 0.649308
vt 0.182209 0.648566
vt 0.178071 0.649308
vt 0.178815 0.648566
vt 0.174179 0.649308
vt 0.174179 0.648566
vt 0.170287 0.649308
vt 0.169543 0.648566
vt 0.167438 0.649308
vt 0.166150 0.648566
vt 0.166396 0.649308
vt 0.164907 0.648566
vt 0.167438 0.649308
vt 0.166150 0.648566
vt 0.170287 0.649308
vt 0.169543 0.648566
vt 0.168727 0.617316
vt 0.171032 0.617316
vt 0.177327 0.617316
vt 0.179631 0.617316
vt 0.171032 0.617316
vt 0.179631 0.617316
vt 0.167884 0.617316
vt 0.174179 0.617316
vt 0.180475 0.617316
vt 0.168727 0.617316
vt 0.174179 0.581141
vt 0.178815 0.581141
vt 0.177855 0.579287
vt 0.174179 0.579287
vt 0.182209 0.581141
vt 0.180546 0.579287
vt 0.183451 0.581141
vt 0.181532 0.579287
vt 0.182209 0.581141
vt 0.180546 0.579287
vt 0.178815 0.581141
vt 0.177855 0.579287
vt 0.174179 0.581141
vt 0.174179 0.579287
vt 0.169543 0.581141
vt 0.170503 0.579287
vt 0.166150 0.581141
vt 0.167812 0.579287
vt 0.164907 0.581141
vt 0.166827 0.579287
vt 0.166150 0.581141
vt 0.167812 0.579287
vt 0.169543 0.581141
vt 0.170503 0.579287
vt 0.171032 0.632941
vt 0.174179 0.632941
vt 0.174179 0.633683
vt 0.170287 0.633683
vt 0.168727 0.632941
vt 0.167438 0.633683
vt 0.167884 0.632941
vt 0.166396 0.633683
vt 0.168727 0.632941
vt 0.167438 0.633683
vt 0.171032 0.632941
vt 0.170287 0.633683
vt 0.174179 0.632941
vt 0.174179 0.633683
vt 0.177327 0.632941
vt 0.178071 0.633683
vt 0.179631 0.632941
vt 0.180920 0.633683
vt 0.180475 0.632941
vt 0.181963 0.633683
vt 0.179631 0.632941
vt 0.180920 0.633683
vt 0.177327 0.632941
vt 0.178071 0.633683
vt 0.174179 0.563662
vt 0.174179 0.563662
vt 0.177855 0.563662
vt 0.180546 0.563662
vt 0.181532 0.563662
vt 0.180546 0.563662
vt 0.177855 0.563662
vt 0.174179 0.563662
vt 0.170503 0.563662
vt 0.167812 0.563662
vt 0.166827 0.563662
vt 0.167812 0.563662
vt 0.170503 0.563662
vt 0.297227 0.541451
vt 0.295372 0.646219
vt 0.297863 0.646645
vt 0.299718 0.541878
vt 0.297863 0.646645
vt 0.299718 0.541878
vt 0.299718 0.573128
vt 0.297863 0.677895
vt 0.295372 0.677469
vt 0.297227 0.572701
vt 0.292881 0.677042
vt 0.294736 0.572275
vt 0.293894 0.699874
vt 0.293894 0.699874
vt 0.294967 0.704361
vt 0.292881 0.677042
vt 0.294736 0.572275
vt 0.295372 0.677469
vt 0.297227 0.572701
vt 0.545154 0.385516
vt 0.546415 0.386042
vt 0.547863 0.374475
vt 0.545372 0.373435
vt 0.546415 0.386042
vt 0.547863 0.374475
vt 0.546415 0.417292
vt 0.545154 0.416766
vt 0.545372 0.404685
vt 0.547863 0.405725
vt 0.543894 0.416239
vt 0.542881 0.403645
vt 0.543894 0.416239
vt 0.542881 0.403645
vt 0.545154 0.416766
vt 0.545372 0.404685
vt 0.295154 0.700090
vt 0.296415 0.700306
vt 0.296415 0.669056
vt 0.295154 0.668840
vt 0.294967 0.673111
vt 0.295154 0.700090
vt 0.296415 0.669056
vt 0.424139 0.543738
vt 0.428046 0.647957
vt 0.430505 0.647058
vt 0.426598 0.542840
vt 0.426598 0.574090
vt 0.430505 0.678308
vt 0.430505 0.678308
vt 0.426598 0.574090
vt 0.428046 0.679207
vt 0.424139 0.574988
vt 0.425588 0.680105
vt 0.421681 0.575886
vt 0.427260 0.702394
vt 0.427260 0.702394
vt 0.428899 0.706156
vt 0.425588 0.680105
vt 0.421681 0.575886
vt 0.421681 0.544636
vt 0.425588 0.648855
vt 0.553504 0.394381
vt 0.554748 0.393273
vt 0.555505 0.380267
vt 0.553046 0.382457
vt 0.554748 0.424523
vt 0.554748 0.424523
vt 0.555505 0.411517
vt 0.555505 0.411517
vt 0.553504 0.425631
vt 0.553046 0.413707
vt 0.552260 0.426740
vt 0.550588 0.415898
vt 0.552260 0.426740
vt 0.550588 0.415898
vt 0.552260 0.395490
vt 0.550588 0.384648
vt 0.428504 0.701940
vt 0.429748 0.701485
vt 0.429748 0.670235
vt 0.428504 0.670690
vt 0.428899 0.674906
vt 0.427260 0.671144
vt 0.429748 0.701485
vt 0.050415 0.576214
vt 0.050415 0.680808
vt 0.052915 0.681164
vt 0.052915 0.576571
vt 0.052915 0.681877
vt 0.052915 0.577284
vt 0.052915 0.546034
vt 0.052915 0.650627
vt 0.050415 0.650984
vt 0.050415 0.546391
vt 0.047914 0.650627
vt 0.047914 0.546034
vt 0.049149 0.703997
vt 0.049149 0.704358
vt 0.050414 0.708431
vt 0.047914 0.577284
vt 0.047914 0.681877
vt 0.047914 0.681164
vt 0.047914 0.576571
vt 0.550414 0.435560
vt 0.551680 0.436000
vt 0.552915 0.423539
vt 0.550415 0.422670
vt 0.551680 0.436879
vt 0.552915 0.425278
vt 0.551680 0.405629
vt 0.550414 0.406069
vt 0.550415 0.394897
vt 0.552915 0.394028
vt 0.549149 0.405629
vt 0.547914 0.394028
vt 0.549149 0.436879
vt 0.549149 0.436000
vt 0.547914 0.423539
vt 0.547914 0.425278
vt 0.050414 0.673288
vt 0.051680 0.673108
vt 0.050414 0.677181
vt 0.051680 0.703997
vt 0.050414 0.703816
vt 0.049149 0.673108
vt 0.051680 0.704358
vn -0.4647 -0.3692 -0.8048
vn -0.5000 0.0000 -0.8660
vn 0.0000 0.0000 -1.0000
vn 0.0000 -0.3692 -0.9293
vn 0.8048 -0.3692 -0.4647
vn 0.8660 0.0000 -0.5000
vn 1.0000 0.0000 0.0000
vn 0.9293 -0.3692 0.0000
vn 0.8660 0.0000 0.5000
vn 0.8048 -0.3692 0.4647
vn 0.5000 0.0000 0.8660
vn 0.4647 -0.3692 0.8048
vn -0.0000 0.0000 1.0000
vn -0.0000 -0.3692 0.9293
vn -0.5000 0.0000 0.8660
vn -0.4647 -0.3692 0.8048
vn -0.8660 0.0000 0.5000
vn -0.8048 -0.3692 0.4647
vn -1.0000 0.0000 0.0000
vn -0.9293 -0.3692 0.0000
vn -0.8660 0.0000 -0.5000
vn -0.8048 -0.3692 -0.4647
vn -0.4781 0.2929 0.8280
vn 0.0000 0.2929 0.9561
vn 0.0000 1.0000 -0.0000
vn 0.4647 -0.3692 -0.8048
vn 0.5000 0.0000 -0.8660
vn 0.0000 0.8950 -0.4461
vn 0.2230 0.8950 -0.3863
vn 0.3863 0.8950 -0.2230
vn 0.4461 0.8950 -0.0000
vn 0.3863 0.8950 0.2230
vn 0.2230 0.8950 0.3863
vn -0.0000 0.8950 0.4461
vn -0.2230 0.8950 0.3863
vn -0.3863 0.8950 0.2230
vn -0.4461 0.8950 0.0000
vn -0.3863 0.8950 -0.2230
vn -0.2230 0.8950 -0.3863
vn 0.8280 0.2929 -0.4781
vn 0.4781 0.2929 -0.8280
vn -0.4781 0.2929 -0.8280
vn -0.8280 0.2929 -0.4781
vn 0.4781 0.2929 0.8280
vn -0.8280 0.2929 0.4781
vn 0.9561 0.2929 0.0000
vn 0.0000 0.2929 -0.9561
vn -0.9561 0.2929 -0.0000
vn 0.8280 0.2929 0.4781
vn 0.3474 -0.7193 -0.6017
vn 0.0000 -0.9049 -0.4257
vn 0.6017 -0.7193 -0.3474
vn 0.6947 -0.7193 0.0000
vn 0.6017 -0.7193 0.3474
vn 0.2129 -0.9049 0.3687
vn -0.0000 -0.9049 0.4257
vn -0.3474 -0.7193 0.6017
vn -0.6017 -0.7193 0.3474
vn -0.6947 -0.7193 0.0000
vn -0.6017 -0.7193 -0.3474
vn -0.2129 -0.9049 -0.3687
vn 0.0000 -1.0000 0.0000
vn 0.4981 0.0432 -0.8660
vn 0.4695 0.2480 -0.8473
vn 0.4696 0.2480 -0.8473
vn 0.9963 0.0864 0.0000
vn 0.9569 0.2903 0.0000
vn 0.4981 0.0432 0.8660
vn 0.4696 0.2480 0.8473
vn 0.4695 0.2480 0.8473
vn -0.4981 -0.0432 0.8660
vn -0.5052 0.1635 0.8474
vn -0.9213 0.3887 0.0000
vn -0.9042 0.4271 0.0000
vn -0.9963 -0.0864 0.0000
vn -0.9926 0.1213 0.0000
vn -0.4981 -0.0432 -0.8660
vn -0.5052 0.1635 -0.8474
vn 0.4002 0.5033 -0.7658
vn 0.8407 0.5415 -0.0000
vn 0.4002 0.5033 0.7658
vn -0.4808 0.4269 0.7659
vn -0.4808 0.4269 -0.7659
vn 0.3869 0.5390 0.7482
vn 0.3869 0.5390 -0.7482
vn -0.4739 0.4644 -0.7482
vn -0.4739 0.4644 0.7482
vn 0.8172 0.5763 0.0000
vn 0.4917 -0.0909 -0.8660
vn 0.5186 0.1141 -0.8473
vn 0.9833 -0.1819 0.0000
vn 0.9997 0.0252 0.0000
vn 0.4917 -0.0909 0.8660
vn 0.5186 0.1141 0.8473
vn -0.4917 0.0909 0.8660
vn -0.4435 0.2921 0.8474
vn -0.7847 0.6199 0.0000
vn -0.7579 0.6523 0.0000
vn -0.9833 0.1819 0.0000
vn -0.9245 0.3811 -0.0000
vn -0.4917 0.0909 -0.8660
vn -0.4435 0.2921 -0.8474
vn 0.5197 0.3787 -0.7658
vn 0.9545 0.2983 0.0000
vn 0.5197 0.3787 0.7658
vn -0.3499 0.5395 0.7659
vn -0.3499 0.5395 -0.7659
vn 0.5164 0.4166 0.7482
vn 0.5164 0.4166 -0.7482
vn -0.3332 0.5738 -0.7482
vn -0.3332 0.5738 0.7482
vn 0.9411 0.3380 0.0000
vn 0.5000 -0.1083 -0.8592
vn 0.4892 0.0990 -0.8665
vn 0.9784 0.2049 -0.0258
vn 0.5000 0.1083 0.8592
vn 0.4892 0.3109 0.8149
vn -0.5000 0.1083 0.8592
vn -0.4892 0.3109 0.8149
vn -0.8843 0.4632 -0.0584
vn -0.8639 0.4996 -0.0630
vn -0.9784 0.2049 -0.0258
vn -0.5000 -0.1083 -0.8592
vn -0.4892 0.0990 -0.8665
vn 0.4422 0.3675 -0.8182
vn 0.8843 0.4632 -0.0584
vn 0.4422 0.5590 0.7015
vn -0.4422 0.5590 0.7015
vn -0.4422 0.3674 -0.8182
vn 0.4320 0.5932 0.6794
vn 0.4320 0.4061 -0.8053
vn -0.4320 0.4061 -0.8053
vn -0.4320 0.5932 0.6794
vn 0.8639 0.4996 -0.0630
usemtl furniture_texture
s 1
f 37/1/1 24/2/2 14/3/3 26/4/4
f 28/5/5 15/6/6 16/7/7 29/8/8
f 29/8/8 16/7/7 17/9/9 30/10/10
f 30/10/10 17/9/9 18/11/11 31/12/12
f 31/12/12 18/11/11 19/13/13 32/14/14
f 32/14/14 19/13/13 20/15/15 33/16/16
f 33/16/16 20/15/15 21/17/17 34/18/18
f 34/18/18 21/17/17 22/19/19 35/20/20
f 35/20/20 22/19/19 23/21/21 36/22/22
f 36/22/22 23/21/21 24/2/2 37/1/1
f 2/23/23 1/24/24 62/25/25
f 27/26/26 13/27/27 15/6/6 28/5/5
f 26/4/4 14/3/3 13/27/27 27/26/26
f 38/28/28 39/29/29 13/30/29 14/31/28
f 39/29/29 40/32/30 15/33/30 13/30/29
f 40/32/30 41/34/31 16/35/31 15/33/30
f 41/34/31 42/36/32 17/37/32 16/35/31
f 42/36/32 43/38/33 18/39/33 17/37/32
f 43/38/33 44/40/34 19/41/34 18/39/33
f 44/40/34 45/42/35 20/43/35 19/41/34
f 45/42/35 46/44/36 21/45/36 20/43/35
f 46/44/36 47/46/37 22/47/37 21/45/36
f 47/46/37 48/48/38 23/49/38 22/47/37
f 48/48/38 49/50/39 24/51/39 23/49/38
f 49/50/39 38/28/28 14/31/28 24/51/39
f 9/52/40 8/53/41 62/25/25
f 6/54/42 5/55/43 62/25/25
f 1/24/24 12/56/44 62/25/25
f 3/57/45 2/23/23 62/25/25
f 10/58/46 9/52/40 62/25/25
f 7/59/47 6/54/42 62/25/25
f 4/60/48 3/57/45 62/25/25
f 11/61/49 10/58/46 62/25/25
f 8/53/41 7/59/47 62/25/25
f 5/55/43 4/60/48 62/25/25
f 12/56/44 11/61/49 62/25/25
f 26/62/4 27/63/26 50/64/50 51/65/51
f 27/63/26 28/66/5 52/67/52 50/64/50
f 28/66/5 29/68/8 53/69/53 52/67/52
f 29/68/8 30/70/10 54/71/54 53/69/53
f 30/70/10 31/72/12 55/73/55 54/71/54
f 31/72/12 32/74/14 56/75/56 55/73/55
f 32/74/14 33/76/16 57/77/57 56/75/56
f 33/76/16 34/78/18 58/79/58 57/77/57
f 34/78/18 35/80/20 59/81/59 58/79/58
f 35/80/20 36/82/22 60/83/60 59/81/59
f 36/82/22 37/84/1 61/85/61 60/83/60
f 37/84/1 26/62/4 51/65/51 61/85/61
f 12/86/33 1/87/34 38/88/34 49/89/33
f 11/90/32 12/86/33 49/89/33 48/91/32
f 10/92/31 11/90/32 48/91/32 47/93/31
f 9/94/30 10/92/31 47/93/31 46/95/30
f 8/96/29 9/94/30 46/95/30 45/97/29
f 7/98/28 8/96/29 45/97/29 44/99/28
f 6/100/39 7/98/28 44/99/28 43/101/39
f 5/102/38 6/100/39 43/101/39 42/103/38
f 4/104/37 5/102/38 42/103/38 41/105/37
f 3/106/36 4/104/37 41/105/37 40/107/36
f 2/108/35 3/106/36 40/107/36 39/109/35
f 1/87/34 2/108/35 39/109/35 38/88/34
f 25/110/62 51/111/51 50/112/62
f 25/110/62 50/112/62 52/113/62
f 25/110/62 52/113/62 53/114/62
f 25/110/62 53/114/62 54/115/62
f 25/110/62 54/115/62 55/116/55
f 25/110/62 55/116/55 56/117/56
f 25/110/62 56/117/56 57/118/62
f 25/110/62 57/118/62 58/119/62
f 25/110/62 58/119/62 59/120/62
f 25/110/62 59/120/62 60/121/62
f 25/110/62 60/121/62 61/122/61
f 25/110/62 61/122/61 51/111/51
f 76/123/63 70/124/64 69/125/65 77/126/63
f 77/126/66 69/125/67 71/127/67 78/128/66
f 78/129/68 71/130/69 72/131/70 79/132/68
f 79/132/71 72/131/72 73/133/72 80/134/71
f 68/135/73 67/136/73 75/137/74
f 80/134/75 73/133/76 74/138/76 81/139/75
f 81/139/77 74/138/78 70/140/78 76/141/77
f 63/142/79 64/143/79 69/144/65 70/145/64
f 64/143/80 65/146/80 71/147/67 69/144/67
f 65/148/81 66/149/81 72/150/70 71/151/69
f 66/149/82 67/152/82 73/153/72 72/150/72
f 67/152/73 68/154/73 74/155/76 73/153/76
f 68/154/83 63/156/83 70/157/78 74/155/78
f 66/158/81 65/159/81 75/137/84
f 64/160/79 63/161/79 75/162/85
f 63/163/83 68/135/83 75/137/86
f 67/136/82 66/158/82 75/137/87
f 65/164/80 64/160/80 75/162/88
f 95/165/89 89/166/90 88/167/90 96/168/89
f 96/169/91 88/170/92 90/171/92 97/172/91
f 97/172/93 90/171/94 91/173/94 98/174/93
f 98/174/95 91/173/96 92/175/96 99/176/95
f 87/177/97 86/178/97 94/179/98
f 99/176/99 92/175/100 93/180/100 100/181/99
f 100/182/101 93/183/102 89/166/102 95/165/101
f 82/184/103 83/185/103 88/186/90 89/187/90
f 83/188/104 84/189/104 90/190/92 88/191/92
f 84/189/105 85/192/105 91/193/94 90/190/94
f 85/192/106 86/194/106 92/195/96 91/193/96
f 86/194/97 87/196/97 93/197/100 92/195/100
f 87/198/107 82/184/107 89/187/102 93/199/102
f 85/200/105 84/201/105 94/179/108
f 83/202/103 82/203/103 94/204/109
f 82/203/107 87/205/107 94/204/110
f 86/178/106 85/200/106 94/179/111
f 84/201/104 83/206/104 94/179/112
f 114/207/113 108/208/114 107/209/114 115/210/113
f 115/210/7 107/209/115 109/211/115 116/212/7
f 116/213/116 109/214/117 110/215/117 117/216/116
f 117/216/118 110/215/119 111/217/119 118/218/118
f 106/219/120 105/220/120 113/221/121
f 118/222/19 111/223/122 112/224/122 119/225/19
f 119/225/123 112/224/124 108/208/124 114/207/123
f 101/226/125 102/227/125 107/228/114 108/229/114
f 102/227/126 103/230/126 109/231/115 107/228/115
f 103/232/127 104/233/127 110/234/117 109/235/117
f 104/233/128 105/236/128 111/237/119 110/234/119
f 105/238/120 106/239/120 112/240/122 111/241/122
f 106/239/129 101/226/129 108/229/124 112/240/124
f 104/242/127 103/243/127 113/244/130
f 102/245/125 101/246/125 113/221/131
f 101/246/129 106/219/129 113/221/132
f 105/247/128 104/242/128 113/244/133
f 103/248/126 102/245/126 113/221/134
