# Blender v3.4.1 OBJ File: 'Furniture_export_extra.blend'
# www.blender.org
mtllib gameconsole_handheld.mtl
o gameconsole_handheld_Cube.18248
v -0.269992 -0.075000 0.195000
v -0.269992 -0.045000 0.225000
v -0.269992 0.045000 0.225000
v -0.241930 0.075000 0.151938
v -0.299992 0.045000 0.195000
v -0.269992 -0.075000 -0.195000
v -0.299992 -0.045000 -0.195000
v -0.269992 -0.045000 -0.225000
v -0.241930 0.075000 -0.151938
v -0.269992 0.045000 -0.225000
v -0.299992 0.045000 -0.195000
v 0.270008 -0.075000 0.195000
v 0.270008 -0.045000 0.225000
v 0.241945 0.075000 0.151938
v 0.270008 0.045000 0.225000
v 0.300008 0.045000 0.195000
v 0.270008 -0.075000 -0.195000
v 0.270008 -0.045000 -0.225000
v 0.300008 -0.045000 -0.195000
v 0.241945 0.075000 -0.151938
v 0.270008 0.045000 -0.225000
v -0.494992 -0.075000 0.195000
v -0.494992 -0.045000 0.225000
v -0.524992 -0.045000 0.195000
v -0.494992 0.045000 0.225000
v -0.494992 0.075000 0.195000
v -0.524992 0.045000 0.195000
v -0.494992 -0.075000 -0.195000
v -0.524992 -0.045000 -0.195000
v -0.494992 -0.045000 -0.225000
v -0.494992 0.075000 -0.195000
v -0.494992 0.045000 -0.225000
v -0.524992 0.045000 -0.195000
v -0.329992 -0.075000 0.195000
v -0.299992 -0.045000 0.195000
v -0.329992 -0.045000 0.225000
v -0.329992 0.075000 0.195000
v -0.329992 0.045000 0.225000
v -0.329992 -0.075000 -0.195000
v -0.329992 -0.045000 -0.225000
v -0.329992 0.075000 -0.195000
v -0.329992 0.045000 -0.225000
v 0.330008 -0.075000 0.195000
v 0.330008 -0.045000 0.225000
v 0.300008 -0.045000 0.195000
v 0.330008 0.045000 0.225000
v 0.330008 0.075000 0.195000
v 0.330008 -0.075000 -0.195000
v 0.330008 -0.045000 -0.225000
v 0.330008 0.075000 -0.195000
v 0.330008 0.045000 -0.225000
v 0.300008 0.045000 -0.195000
v 0.495008 -0.075000 0.195000
v 0.525008 -0.045000 0.195000
v 0.495008 -0.045000 0.225000
v 0.495008 0.075000 0.195000
v 0.495008 0.045000 0.225000
v 0.525008 0.045000 0.195000
v 0.495008 -0.075000 -0.195000
v 0.495008 -0.045000 -0.225000
v 0.525008 -0.045000 -0.195000
v 0.495008 0.075000 -0.195000
v 0.525008 0.045000 -0.195000
v 0.495008 0.045000 -0.225000
v -0.269992 0.075000 0.195000
v -0.269992 0.075000 -0.195000
v 0.270008 0.075000 -0.195000
v 0.270008 0.075000 0.195000
v -0.220782 0.060000 0.130789
v -0.220782 0.060000 -0.130789
v 0.220797 0.060000 -0.130789
v 0.220797 0.060000 0.130789
v -0.412493 0.099603 -0.178127
v -0.381997 0.099603 -0.165495
v -0.369366 0.099603 -0.135000
v -0.381997 0.099603 -0.104504
v -0.412493 0.099603 -0.091873
v -0.442988 0.099603 -0.104504
v -0.455619 0.099603 -0.135000
v -0.442988 0.099603 -0.165495
v -0.412492 0.072371 -0.190746
v -0.373074 0.072371 -0.174419
v -0.356747 0.072371 -0.135001
v -0.373074 0.072371 -0.095582
v -0.412492 0.072371 -0.079255
v -0.451910 0.072371 -0.095582
v -0.468238 0.072371 -0.135001
v -0.451910 0.072371 -0.174419
v -0.412493 0.109528 -0.135000
v 0.442508 0.091642 -0.165000
v 0.425267 0.073890 -0.182241
v 0.418126 0.073890 -0.165000
v 0.425267 0.073890 -0.147759
v 0.442508 0.073890 -0.140618
v 0.459749 0.073890 -0.147759
v 0.466890 0.073890 -0.165000
v 0.459749 0.073890 -0.182241
v 0.442508 0.073890 -0.189382
v 0.429169 0.087301 -0.178338
v 0.423645 0.087301 -0.165000
v 0.429169 0.087301 -0.151662
v 0.442508 0.087301 -0.146137
v 0.455846 0.087301 -0.151662
v 0.461371 0.087301 -0.165000
v 0.455846 0.087301 -0.178338
v 0.442508 0.087301 -0.183863
v 0.382508 0.100197 -0.120000
v 0.358379 0.074452 -0.144129
v 0.348384 0.074452 -0.120000
v 0.358379 0.074452 -0.095871
v 0.382508 0.074452 -0.085877
v 0.406637 0.074452 -0.095871
v 0.416631 0.074452 -0.120000
v 0.406637 0.074452 -0.144129
v 0.382508 0.074452 -0.154124
v 0.363840 0.094122 -0.138667
v 0.356108 0.094122 -0.120000
v 0.363840 0.094122 -0.101333
v 0.382508 0.094122 -0.093600
v 0.401175 0.094122 -0.101333
v 0.408907 0.094122 -0.120000
v 0.401175 0.094122 -0.138667
v 0.382508 0.094122 -0.146399
v 0.412507 0.109528 0.135000
v 0.373090 0.072371 0.095581
v 0.356762 0.072371 0.134999
v 0.373090 0.072371 0.174418
v 0.412508 0.072371 0.190745
v 0.451926 0.072371 0.174418
v 0.468253 0.072371 0.134999
v 0.451926 0.072371 0.095581
v 0.412508 0.072371 0.079254
v 0.382012 0.099603 0.104505
v 0.369380 0.099603 0.135000
v 0.382012 0.099603 0.165496
v 0.412507 0.099603 0.178127
v 0.443003 0.099603 0.165496
v 0.455634 0.099603 0.135000
v 0.443003 0.099603 0.104505
v 0.412507 0.099603 0.091873
v -0.205782 0.075000 0.115789
v -0.205782 0.075000 -0.115789
v 0.205797 0.075000 -0.115789
v 0.205797 0.075000 0.115789
v -0.438167 0.066294 0.105901
v -0.432506 0.096420 0.100240
v -0.438167 0.066294 0.054550
v -0.432506 0.096420 0.060211
v -0.386816 0.066294 0.105901
v -0.392478 0.096420 0.100240
v -0.386816 0.066294 0.054550
v -0.392478 0.096420 0.060211
v -0.438167 0.066294 0.150901
v -0.432506 0.101411 0.135318
v -0.392478 0.101411 0.135318
v -0.386816 0.066294 0.150901
v -0.357400 0.101411 0.060211
v -0.341816 0.066294 0.054550
v -0.341816 0.066294 0.105901
v -0.357400 0.101411 0.100240
v -0.432506 0.101411 0.025133
v -0.438167 0.066294 0.009550
v -0.386816 0.066294 0.009550
v -0.392478 0.101411 0.025133
v -0.483167 0.066294 0.054550
v -0.483167 0.066294 0.105901
v -0.467584 0.101411 0.100240
v -0.467584 0.101411 0.060211
vt 0.325559 0.367164
vt 0.325559 0.378685
vt 0.294295 0.378685
vt 0.294295 0.367164
vt 0.323934 0.398150
vt 0.295920 0.398150
vt 0.297144 0.396230
vt 0.322710 0.396230
vt 0.294295 0.367164
vt 0.294295 0.378685
vt 0.325559 0.378685
vt 0.325559 0.367164
vt 0.790822 0.617164
vt 0.790822 0.628685
vt 0.781269 0.628685
vt 0.781269 0.617164
vt 0.797783 0.566449
vt 0.807336 0.566449
vt 0.807336 0.566449
vt 0.797783 0.566449
vt 0.790822 0.679400
vt 0.781269 0.679400
vt 0.781269 0.679400
vt 0.790822 0.679400
vt 0.779532 0.601539
vt 0.779532 0.613060
vt 0.779532 0.613060
vt 0.779532 0.601539
vt 0.781269 0.617164
vt 0.781269 0.628685
vt 0.790822 0.628685
vt 0.790822 0.617164
vt 0.807336 0.617164
vt 0.807336 0.628685
vt 0.797783 0.628685
vt 0.797783 0.617164
vt 0.809072 0.601539
vt 0.809072 0.613060
vt 0.809072 0.613060
vt 0.809072 0.601539
vt 0.807336 0.679400
vt 0.797783 0.679400
vt 0.797783 0.679400
vt 0.807336 0.679400
vt 0.797783 0.617164
vt 0.797783 0.628685
vt 0.807336 0.628685
vt 0.807336 0.617164
vt 0.294295 0.332074
vt 0.294295 0.335914
vt 0.292559 0.335914
vt 0.294295 0.394310
vt 0.294295 0.398150
vt 0.292559 0.394310
vt 0.294295 0.332074
vt 0.292559 0.335914
vt 0.294295 0.335914
vt 0.294295 0.398150
vt 0.294295 0.394310
vt 0.292559 0.394310
vt 0.325559 0.316449
vt 0.327296 0.320289
vt 0.325559 0.320289
vt 0.325559 0.382525
vt 0.327296 0.378685
vt 0.325559 0.316449
vt 0.325559 0.320289
vt 0.327296 0.320289
vt 0.325559 0.382525
vt 0.327296 0.378685
vt 0.292559 0.378685
vt 0.292559 0.367164
vt 0.292559 0.367164
vt 0.292559 0.378685
vt 0.325559 0.332074
vt 0.325559 0.335914
vt 0.325559 0.398150
vt 0.325559 0.394310
vt 0.327296 0.363060
vt 0.327296 0.351539
vt 0.325559 0.351539
vt 0.325559 0.363060
vt 0.325559 0.363060
vt 0.325559 0.351539
vt 0.327296 0.351539
vt 0.327296 0.363060
vt 0.325559 0.332074
vt 0.325559 0.335914
vt 0.325559 0.398150
vt 0.325559 0.394310
vt 0.294295 0.316449
vt 0.294295 0.316449
vt 0.781269 0.566449
vt 0.781269 0.570289
vt 0.779532 0.570289
vt 0.781269 0.632525
vt 0.779532 0.628685
vt 0.781269 0.566449
vt 0.779532 0.570289
vt 0.781269 0.570289
vt 0.781269 0.632525
vt 0.779532 0.628685
vt 0.790822 0.566449
vt 0.792559 0.570289
vt 0.790822 0.570289
vt 0.790822 0.632525
vt 0.792559 0.628685
vt 0.790822 0.566449
vt 0.790822 0.570289
vt 0.792559 0.570289
vt 0.790822 0.632525
vt 0.792559 0.628685
vt 0.797783 0.582074
vt 0.797783 0.585914
vt 0.796046 0.585914
vt 0.797783 0.644310
vt 0.797783 0.648150
vt 0.796046 0.644310
vt 0.797783 0.582074
vt 0.796046 0.585914
vt 0.797783 0.585914
vt 0.797783 0.648150
vt 0.797783 0.644310
vt 0.796046 0.644310
vt 0.809072 0.570289
vt 0.807336 0.570289
vt 0.807336 0.632525
vt 0.809072 0.628685
vt 0.807336 0.570289
vt 0.809072 0.570289
vt 0.807336 0.632525
vt 0.809072 0.628685
vt 0.781269 0.601539
vt 0.781269 0.613060
vt 0.781269 0.613060
vt 0.781269 0.601539
vt 0.790822 0.582074
vt 0.781269 0.582074
vt 0.781269 0.585914
vt 0.790822 0.585914
vt 0.781269 0.648150
vt 0.790822 0.648150
vt 0.790822 0.644310
vt 0.781269 0.644310
vt 0.792559 0.613060
vt 0.792559 0.601539
vt 0.790822 0.601539
vt 0.790822 0.613060
vt 0.792559 0.597435
vt 0.792559 0.597435
vt 0.790822 0.613060
vt 0.790822 0.601539
vt 0.792559 0.601539
vt 0.792559 0.613060
vt 0.781269 0.582074
vt 0.790822 0.582074
vt 0.790822 0.585914
vt 0.781269 0.585914
vt 0.790822 0.648150
vt 0.781269 0.648150
vt 0.781269 0.644310
vt 0.790822 0.644310
vt 0.796046 0.628685
vt 0.796046 0.617164
vt 0.796046 0.613060
vt 0.796046 0.613060
vt 0.796046 0.617164
vt 0.796046 0.628685
vt 0.807336 0.582074
vt 0.807336 0.585914
vt 0.807336 0.648150
vt 0.807336 0.644310
vt 0.807336 0.601539
vt 0.807336 0.613060
vt 0.807336 0.613060
vt 0.807336 0.601539
vt 0.807336 0.582074
vt 0.807336 0.585914
vt 0.807336 0.648150
vt 0.807336 0.644310
vt 0.295920 0.429400
vt 0.295920 0.429400
vt 0.294295 0.429400
vt 0.294295 0.429400
vt 0.323934 0.429400
vt 0.325559 0.429400
vt 0.323934 0.429400
vt 0.325559 0.429400
vt 0.047144 0.021230
vt 0.072710 0.021230
vt 0.071842 0.023150
vt 0.048013 0.023150
vt 0.323934 0.398150
vt 0.322710 0.396230
vt 0.295920 0.398150
vt 0.297144 0.396230
vt 0.286045 0.382188
vt 0.286045 0.385674
vt 0.287811 0.385674
vt 0.288328 0.382188
vt 0.288542 0.385674
vt 0.289273 0.382188
vt 0.287811 0.385674
vt 0.288328 0.382188
vt 0.286045 0.385674
vt 0.286045 0.382188
vt 0.284280 0.385674
vt 0.283763 0.382188
vt 0.283548 0.385674
vt 0.282818 0.382188
vt 0.284280 0.432549
vt 0.286045 0.432549
vt 0.286045 0.433820
vt 0.284280 0.385674
vt 0.283763 0.382188
vt 0.286045 0.432549
vt 0.284280 0.432549
vt 0.287811 0.432549
vt 0.287811 0.432549
vt 0.288542 0.432549
vt 0.283548 0.432549
vt 0.336638 0.430974
vt 0.336318 0.430974
vt 0.335546 0.431530
vt 0.334774 0.430974
vt 0.334454 0.430974
vt 0.335546 0.430974
vt 0.336318 0.430974
vt 0.334774 0.430974
vt 0.335546 0.430974
vt 0.334548 0.382383
vt 0.334774 0.384099
vt 0.335546 0.384099
vt 0.335546 0.382383
vt 0.334134 0.382383
vt 0.334454 0.384099
vt 0.334548 0.382383
vt 0.334774 0.384099
vt 0.335546 0.382383
vt 0.335546 0.384099
vt 0.336544 0.382383
vt 0.336318 0.384099
vt 0.336958 0.382383
vt 0.336638 0.384099
vt 0.336544 0.382383
vt 0.336318 0.384099
vt 0.333601 0.431848
vt 0.333153 0.431848
vt 0.332072 0.432625
vt 0.330992 0.431848
vt 0.330544 0.431848
vt 0.332072 0.431848
vt 0.333153 0.431848
vt 0.330992 0.431848
vt 0.332072 0.431848
vt 0.330675 0.382455
vt 0.330992 0.384973
vt 0.332072 0.384973
vt 0.332072 0.382455
vt 0.330097 0.382455
vt 0.330544 0.384973
vt 0.330675 0.382455
vt 0.330992 0.384973
vt 0.332072 0.382455
vt 0.332072 0.384973
vt 0.333469 0.382455
vt 0.333153 0.384973
vt 0.334048 0.382455
vt 0.333601 0.384973
vt 0.333469 0.382455
vt 0.333153 0.384973
vt 0.336306 0.432549
vt 0.335575 0.432549
vt 0.333809 0.433820
vt 0.332044 0.432549
vt 0.331312 0.432549
vt 0.333809 0.432549
vt 0.335575 0.432549
vt 0.332044 0.432549
vt 0.333809 0.432549
vt 0.331527 0.382188
vt 0.332044 0.385674
vt 0.333809 0.385674
vt 0.333809 0.382188
vt 0.330582 0.382188
vt 0.331312 0.385674
vt 0.331527 0.382188
vt 0.332044 0.385674
vt 0.333809 0.382188
vt 0.333809 0.385674
vt 0.336091 0.382188
vt 0.335575 0.385674
vt 0.337037 0.382188
vt 0.336306 0.385674
vt 0.336091 0.382188
vt 0.335575 0.385674
vt 0.071842 0.054400
vt 0.048013 0.054400
vt 0.048013 0.054400
vt 0.071842 0.054400
vt 0.072710 0.021230
vt 0.047144 0.021230
vt 0.048013 0.023150
vt 0.071842 0.023150
vt 0.284887 0.432142
vt 0.284887 0.432142
vt 0.282856 0.432781
vt 0.282856 0.432781
vt 0.287204 0.432142
vt 0.287204 0.432781
vt 0.284887 0.432781
vt 0.287204 0.385267
vt 0.287532 0.381410
vt 0.290137 0.381410
vt 0.289235 0.385906
vt 0.287204 0.432142
vt 0.284887 0.432781
vt 0.287204 0.432781
vt 0.287532 0.381410
vt 0.287204 0.385906
vt 0.284887 0.385906
vt 0.284559 0.381410
vt 0.284887 0.385267
vt 0.284559 0.381410
vt 0.290137 0.381410
vt 0.289235 0.385906
vt 0.289235 0.432781
vt 0.289235 0.432781
vt 0.287532 0.381410
vt 0.287204 0.385267
vt 0.284559 0.381410
vt 0.284887 0.385906
vt 0.287204 0.385906
vt 0.287532 0.381410
vt 0.284559 0.381410
vt 0.284887 0.385267
vt 0.281954 0.381410
vt 0.282856 0.385906
vt 0.282856 0.385906
vt 0.281954 0.381410
vn 0.3416 -0.3416 0.8756
vn 0.3416 0.3416 0.8756
vn -0.3416 0.3416 0.8756
vn -0.3416 -0.3416 0.8756
vn -0.0827 0.9931 0.0827
vn 0.0827 0.9931 0.0827
vn 0.0000 0.8157 0.5785
vn -0.3416 -0.3416 -0.8756
vn -0.3416 0.3416 -0.8756
vn 0.3416 0.3416 -0.8756
vn 0.3416 -0.3416 -0.8756
vn -0.3416 -0.8756 -0.3416
vn 0.3416 -0.8756 -0.3416
vn 0.3416 -0.8756 0.3416
vn -0.3416 -0.8756 0.3416
vn 0.0000 1.0000 0.0000
vn -0.3416 0.8756 -0.3416
vn -0.3416 0.8756 0.3416
vn -1.0000 0.0000 0.0000
vn 1.0000 0.0000 0.0000
vn 0.3416 0.8756 -0.3416
vn 0.3416 0.8756 0.3416
vn -0.4606 -0.7588 0.4606
vn -0.7588 -0.4606 0.4606
vn -0.4606 0.7588 0.4606
vn -0.7588 0.4606 0.4606
vn -0.4606 -0.7588 -0.4606
vn -0.7588 -0.4606 -0.4606
vn -0.4606 0.7588 -0.4606
vn -0.7588 0.4606 -0.4606
vn 0.4606 -0.7588 0.4606
vn 0.7588 -0.4606 0.4606
vn 0.4606 0.7588 0.4606
vn 0.7588 0.4606 0.4606
vn 0.4606 -0.7588 -0.4606
vn 0.7588 -0.4606 -0.4606
vn 0.4606 0.7588 -0.4606
vn 0.7588 0.4606 -0.4606
vn 0.0000 -1.0000 0.0000
vn 0.0827 0.9931 -0.0827
vn -0.0827 0.9931 -0.0827
vn 0.0000 0.7071 0.7071
vn 0.3002 0.9054 0.3002
vn -0.3002 0.9054 0.3002
vn -0.5785 0.8157 0.0000
vn 0.5785 0.8157 0.0000
vn 0.0000 0.8157 -0.5785
vn 0.0000 0.4205 -0.9073
vn 0.6416 0.4205 -0.6416
vn 0.9073 0.4204 0.0000
vn 0.6416 0.4204 0.6416
vn -0.0000 0.4204 0.9073
vn -0.6416 0.4204 0.6416
vn -0.9073 0.4204 0.0000
vn -0.1586 0.9745 0.1586
vn -0.0000 0.9745 0.2243
vn -0.6416 0.4204 -0.6416
vn 0.0000 0.9745 -0.2243
vn -0.1586 0.9745 -0.1586
vn 0.1586 0.9745 -0.1586
vn 0.1586 0.9745 0.1586
vn 0.2243 0.9745 -0.0000
vn -0.2243 0.9745 -0.0000
vn -0.6539 0.3806 -0.6539
vn -0.0000 0.3806 -0.9247
vn -0.9248 0.3806 -0.0000
vn -0.6539 0.3806 0.6539
vn 0.0000 0.3806 0.9248
vn 0.6539 0.3806 0.6539
vn 0.9247 0.3806 -0.0000
vn 0.6539 0.3806 -0.6539
vn -0.6582 0.3655 -0.6582
vn -0.0000 0.3656 -0.9308
vn -0.9308 0.3655 -0.0000
vn -0.6582 0.3655 0.6582
vn 0.0000 0.3655 0.9308
vn 0.6582 0.3655 0.6582
vn 0.9308 0.3655 -0.0000
vn 0.6582 0.3656 -0.6582
vn 0.3002 0.9054 -0.3002
vn -0.3002 0.9054 -0.3002
vn 0.0000 0.7071 -0.7071
vn 0.7071 0.7071 0.0000
vn -0.7071 0.7071 0.0000
vn 0.0472 0.9978 -0.0472
vn 0.0472 0.9978 0.0472
vn 0.1409 0.9900 0.0000
vn -0.0472 0.9978 0.0472
vn 0.0000 0.9900 0.1409
vn -0.0105 0.1677 0.9858
vn -0.0472 0.9978 -0.0472
vn 0.0000 0.9900 -0.1409
vn 0.0000 0.4056 0.9140
vn 0.9858 0.1677 -0.0105
vn -0.9858 0.1677 -0.0105
vn 0.9140 0.4056 0.0000
vn -0.1409 0.9900 0.0000
vn -0.0105 0.1677 -0.9858
vn 0.0000 0.4056 -0.9140
vn -0.9858 0.1677 0.0105
vn 0.9858 0.1677 0.0105
vn -0.9140 0.4056 0.0000
vn 0.0105 0.1677 -0.9858
vn 0.0105 0.1677 0.9858
usemtl furniture_texture
s 1
f 13/1/1 15/2/2 3/3/3 2/4/4
f 20/5/5 9/6/6 70/7/7 71/8/7
f 8/9/8 10/10/9 21/11/10 18/12/11
f 36/13/1 38/14/2 25/15/3 23/16/4
f 48/17/12 59/18/13 53/19/14 43/20/15
f 41/21/16 31/22/17 26/23/18 37/24/16
f 24/25/19 27/26/19 33/27/19 29/28/19
f 30/29/8 32/30/9 42/31/10 40/32/11
f 55/33/1 57/34/2 46/35/3 44/36/4
f 61/37/20 63/38/20 58/39/20 54/40/20
f 62/41/21 50/42/17 47/43/18 56/44/22
f 49/45/8 51/46/9 64/47/10 60/48/11
f 1/49/23 2/50/4 35/51/24
f 3/52/3 65/53/25 5/54/26
f 6/55/27 7/56/28 8/57/8
f 66/58/29 10/59/9 11/60/30
f 12/61/31 45/62/32 13/63/1
f 68/64/33 15/2/2 16/65/34
f 17/66/35 18/67/11 19/68/36
f 67/69/37 52/70/38 21/11/10
f 6/55/27 1/49/23 35/51/24 7/56/28
f 2/4/4 3/3/3 5/71/26 35/72/24
f 65/53/25 66/58/29 11/60/30 5/54/26
f 10/10/9 8/9/8 7/73/28 11/74/30
f 17/75/35 6/55/27 8/57/8 18/76/11
f 66/58/29 67/77/37 21/78/10 10/59/9
f 52/79/38 19/80/36 18/81/11 21/82/10
f 12/61/31 17/66/35 19/68/36 45/62/32
f 67/69/37 68/64/33 16/65/34 52/70/38
f 15/83/2 13/84/1 45/85/32 16/86/34
f 1/49/23 12/87/31 13/88/1 2/50/4
f 68/89/33 65/53/25 3/52/3 15/90/2
f 6/91/39 17/66/39 12/61/39 1/92/39
f 22/93/15 23/94/4 24/95/24
f 25/15/3 26/96/18 27/97/26
f 28/98/12 29/99/28 30/100/8
f 31/101/17 32/30/9 33/102/30
f 34/103/14 35/104/32 36/105/1
f 37/106/33 38/14/2 5/107/34
f 39/108/13 40/109/11 7/110/36
f 41/111/37 11/112/38 42/31/10
f 43/113/15 44/114/4 45/115/24
f 46/116/3 47/117/18 16/118/26
f 48/119/12 19/120/28 49/121/8
f 50/122/17 51/123/9 52/124/30
f 53/19/14 54/125/32 55/126/1
f 56/127/22 57/34/2 58/128/34
f 59/18/13 60/129/11 61/130/36
f 62/131/21 63/132/38 64/47/10
f 28/98/12 22/93/15 24/95/24 29/99/28
f 23/133/4 25/134/3 27/26/26 24/25/24
f 26/96/18 31/101/17 33/102/30 27/97/26
f 32/135/9 30/136/8 29/28/28 33/27/30
f 39/137/13 28/138/12 30/139/8 40/140/11
f 31/141/17 41/142/37 42/143/10 32/144/9
f 11/145/38 7/146/36 40/147/11 42/148/10
f 34/103/14 39/108/13 7/110/36 35/104/32
f 41/111/37 37/106/33 5/149/34 11/150/38
f 38/151/2 36/152/1 35/153/32 5/154/34
f 22/155/15 34/156/14 36/157/1 23/158/4
f 37/159/33 26/160/18 25/161/3 38/162/2
f 48/119/12 43/113/15 45/115/24 19/120/28
f 44/36/4 46/35/3 16/163/26 45/164/24
f 47/117/18 50/122/17 52/165/30 16/166/26
f 51/46/9 49/45/8 19/167/28 52/168/30
f 59/169/13 48/119/12 49/121/8 60/170/11
f 50/122/17 62/171/21 64/172/10 51/123/9
f 63/38/38 61/37/36 60/173/11 64/174/10
f 53/19/14 59/18/13 61/130/36 54/125/32
f 62/131/21 56/127/22 58/128/34 63/132/38
f 57/175/2 55/176/1 54/40/32 58/39/34
f 43/113/15 53/177/14 55/178/1 44/114/4
f 56/179/22 47/117/18 46/116/3 57/180/2
f 28/98/12 39/108/13 34/103/14 22/93/15
f 4/181/40 9/182/6 66/183/16 65/184/16
f 9/182/6 20/185/5 67/186/16 66/183/16
f 20/185/5 14/187/41 68/188/16 67/186/16
f 14/187/41 4/181/40 65/184/16 68/188/16
f 69/189/42 72/190/42 144/191/43 141/192/44
f 14/193/41 20/5/5 71/8/45 72/194/45
f 9/6/6 4/195/40 69/196/46 70/7/46
f 4/195/40 14/193/41 72/194/47 69/196/47
f 81/197/48 73/198/48 74/199/49 82/200/49
f 82/200/49 74/199/49 75/201/50 83/202/50
f 83/202/50 75/201/50 76/203/51 84/204/51
f 84/204/51 76/203/51 77/205/52 85/206/52
f 85/206/52 77/205/52 78/207/53 86/208/53
f 86/208/53 78/207/53 79/209/54 87/210/54
f 78/211/55 77/212/56 89/213/16
f 87/210/54 79/209/54 80/214/57 88/215/57
f 88/215/57 80/214/57 73/198/48 81/197/48
f 73/216/58 80/217/59 89/213/16
f 74/218/60 73/216/58 89/213/16
f 76/219/61 75/220/62 89/213/16
f 79/221/63 78/211/55 89/213/16
f 77/212/56 76/219/61 89/213/16
f 80/217/59 79/221/63 89/213/16
f 75/220/62 74/218/60 89/213/16
f 104/222/62 105/223/60 90/224/16
f 99/225/59 100/226/63 90/224/16
f 102/227/56 103/228/61 90/224/16
f 100/226/63 101/229/55 90/224/16
f 103/228/61 104/222/62 90/224/16
f 105/223/60 106/230/58 90/224/16
f 106/230/58 99/225/59 90/224/16
f 91/231/64 99/232/64 106/233/65 98/234/65
f 92/235/66 100/236/66 99/232/64 91/231/64
f 101/229/55 102/227/56 90/224/16
f 93/237/67 101/238/67 100/236/66 92/235/66
f 94/239/68 102/240/68 101/238/67 93/237/67
f 95/241/69 103/242/69 102/240/68 94/239/68
f 96/243/70 104/244/70 103/242/69 95/241/69
f 97/245/71 105/246/71 104/244/70 96/243/70
f 98/234/65 106/233/65 105/246/71 97/245/71
f 121/247/62 122/248/60 107/249/16
f 116/250/59 117/251/63 107/249/16
f 119/252/56 120/253/61 107/249/16
f 117/251/63 118/254/55 107/249/16
f 120/253/61 121/247/62 107/249/16
f 122/248/60 123/255/58 107/249/16
f 123/255/58 116/250/59 107/249/16
f 108/256/72 116/257/72 123/258/73 115/259/73
f 109/260/74 117/261/74 116/257/72 108/256/72
f 118/254/55 119/252/56 107/249/16
f 110/262/75 118/263/75 117/261/74 109/260/74
f 111/264/76 119/265/76 118/263/75 110/262/75
f 112/266/77 120/267/77 119/265/76 111/264/76
f 113/268/78 121/269/78 120/267/77 112/266/77
f 114/270/79 122/271/79 121/269/78 113/268/78
f 115/259/73 123/258/73 122/271/79 114/270/79
f 138/272/62 139/273/60 124/274/16
f 133/275/59 134/276/63 124/274/16
f 136/277/56 137/278/61 124/274/16
f 134/276/63 135/279/55 124/274/16
f 137/278/61 138/272/62 124/274/16
f 139/273/60 140/280/58 124/274/16
f 140/280/58 133/275/59 124/274/16
f 125/281/57 133/282/57 140/283/48 132/284/48
f 126/285/54 134/286/54 133/282/57 125/281/57
f 135/279/55 136/277/56 124/274/16
f 127/287/53 135/288/53 134/286/54 126/285/54
f 128/289/52 136/290/52 135/288/53 127/287/53
f 129/291/51 137/292/51 136/290/52 128/289/52
f 130/293/50 138/294/50 137/292/51 129/291/51
f 131/295/49 139/296/49 138/294/50 130/293/50
f 132/284/48 140/283/48 139/296/49 131/295/49
f 143/297/80 142/298/81 141/299/44 144/300/43
f 71/301/82 70/302/82 142/303/81 143/304/80
f 72/190/83 71/301/83 143/304/80 144/191/43
f 70/302/84 69/189/84 141/192/44 142/303/81
f 146/305/85 148/306/86 168/307/87 167/308/87
f 148/306/86 152/309/88 164/310/89 161/311/89
f 150/312/90 149/313/90 159/314/90 160/315/90
f 150/316/91 146/305/85 154/317/92 155/318/92
f 152/309/88 148/306/86 146/305/85 150/316/91
f 156/319/93 155/320/93 154/321/93 153/322/93
f 149/313/94 150/312/94 155/320/94 156/319/94
f 146/323/95 145/324/95 153/322/95 154/321/95
f 158/325/96 157/326/96 160/315/96 159/314/96
f 152/309/88 150/316/91 160/327/97 157/328/97
f 151/329/98 152/330/98 157/326/98 158/325/98
f 162/331/99 161/332/99 164/333/99 163/334/99
f 147/335/100 148/336/100 161/332/100 162/331/100
f 152/330/101 151/329/101 163/334/101 164/333/101
f 166/337/102 167/338/102 168/339/102 165/340/102
f 148/336/103 147/335/103 165/340/103 168/339/103
f 145/324/104 146/323/104 167/338/104 166/337/104
