# Blender v3.4.1 OBJ File: 'Furniture_export_extra.blend'
# www.blender.org
mtllib mug_B.mtl
o mug_B_Cylinder.608
v 0.000000 0.294000 -0.124761
v 0.062380 0.294000 -0.108046
v 0.108046 0.294000 -0.062380
v 0.124761 0.294000 0.000000
v 0.108046 0.294000 0.062380
v 0.062380 0.294000 0.108046
v -0.000000 0.294000 0.124761
v -0.062380 0.294000 0.108046
v -0.108046 0.294000 0.062380
v -0.124761 0.294000 -0.000000
v -0.108046 0.294000 -0.062380
v -0.062380 0.294000 -0.108046
v 0.091875 0.294000 -0.159132
v 0.000000 0.294000 -0.183750
v 0.159132 0.294000 -0.091875
v 0.183750 0.294000 0.000000
v 0.159132 0.294000 0.091875
v 0.091875 0.294000 0.159132
v -0.000000 0.294000 0.183750
v -0.091875 0.294000 0.159132
v -0.159132 0.294000 0.091875
v -0.183750 0.294000 -0.000000
v -0.159132 0.294000 -0.091875
v -0.091875 0.294000 -0.159132
v 0.000000 0.036750 0.000000
v -0.000000 0.000000 -0.000000
v 0.000000 0.036750 -0.183750
v 0.091875 0.036750 -0.159132
v 0.159132 0.036750 -0.091875
v 0.183750 0.036750 0.000000
v 0.159132 0.036750 0.091875
v 0.091875 0.036750 0.159132
v -0.000000 0.036750 0.183750
v -0.091875 0.036750 0.159132
v -0.159132 0.036750 0.091875
v -0.183750 0.036750 -0.000000
v -0.159132 0.036750 -0.091875
v -0.091875 0.036750 -0.159132
v 0.000000 0.308700 -0.154255
v 0.077128 0.308700 -0.133589
v 0.133589 0.308700 -0.077128
v 0.154255 0.308700 0.000000
v 0.133589 0.308700 0.077128
v 0.077128 0.308700 0.133589
v -0.000000 0.308700 0.154255
v -0.077128 0.308700 0.133589
v -0.133589 0.308700 0.077128
v -0.154255 0.308700 -0.000000
v -0.133589 0.308700 -0.077128
v -0.077128 0.308700 -0.133589
v 0.170310 0.268433 0.000000
v 0.170310 0.253613 0.028974
v 0.170310 0.223274 0.028974
v 0.170310 0.212134 0.000000
v 0.170310 0.223274 -0.028974
v 0.170310 0.253613 -0.028974
v 0.170310 0.067036 0.000000
v 0.170310 0.081856 0.028974
v 0.170310 0.112195 0.028974
v 0.170310 0.123335 0.000000
v 0.170310 0.112195 -0.028974
v 0.170310 0.081856 -0.028974
v 0.309466 0.143359 0.000000
v 0.309466 0.192110 0.000000
v 0.293498 0.192187 0.028619
v 0.293498 0.143282 0.028619
v 0.256613 0.200911 0.029525
v 0.256613 0.134558 0.029525
v 0.243344 0.195085 0.000000
v 0.243344 0.140384 0.000000
v 0.256613 0.200911 -0.029525
v 0.256613 0.134558 -0.029525
v 0.293498 0.192187 -0.028619
v 0.293498 0.143282 -0.028619
v 0.277798 0.252825 0.000000
v 0.225112 0.267915 0.000000
v 0.225210 0.253575 0.028760
v 0.269645 0.238826 0.028605
v 0.224964 0.220889 0.029376
v 0.224453 0.205897 0.000000
v 0.224964 0.220889 -0.029376
v 0.225210 0.253575 -0.028760
v 0.269645 0.238826 -0.028605
v 0.225112 0.067555 0.000000
v 0.277798 0.082644 0.000000
v 0.269645 0.096643 0.028605
v 0.225210 0.081895 0.028760
v 0.224964 0.114580 0.029376
v 0.224453 0.129573 0.000000
v 0.224964 0.114580 -0.029376
v 0.225210 0.081895 -0.028760
v 0.269645 0.096643 -0.028605
v 0.072852 0.000000 -0.126183
v 0.000000 0.000000 -0.145704
v 0.126183 0.000000 -0.072852
v 0.145704 0.000000 0.000000
v 0.126183 0.000000 0.072852
v 0.072852 0.000000 0.126183
v -0.000000 0.000000 0.145704
v -0.072852 0.000000 0.126183
v -0.126183 0.000000 0.072852
v -0.145704 0.000000 -0.000000
v -0.126183 0.000000 -0.072852
v -0.072852 0.000000 -0.126183
v 0.062380 0.036750 -0.108046
v 0.000000 0.036750 -0.124761
v 0.108046 0.036750 -0.062380
v 0.124761 0.036750 0.000000
v 0.108046 0.036750 0.062380
v 0.062380 0.036750 0.108046
v -0.000000 0.036750 0.124761
v -0.062380 0.036750 0.108046
v -0.108046 0.036750 0.062380
v -0.124761 0.036750 -0.000000
v -0.108046 0.036750 -0.062380
v -0.062380 0.036750 -0.108046
vt 0.419543 0.596766
vt 0.419543 0.609747
vt 0.424179 0.609747
vt 0.424179 0.596766
vt 0.432209 0.596766
vt 0.432209 0.609747
vt 0.433451 0.609747
vt 0.433451 0.596766
vt 0.432209 0.609747
vt 0.432209 0.596766
vt 0.428815 0.609747
vt 0.428815 0.596766
vt 0.424179 0.609747
vt 0.424179 0.596766
vt 0.419543 0.609747
vt 0.419543 0.596766
vt 0.416150 0.609747
vt 0.416150 0.596766
vt 0.414907 0.609747
vt 0.414907 0.596766
vt 0.416150 0.609747
vt 0.416150 0.596766
vt 0.427327 0.578497
vt 0.424179 0.578497
vt 0.424179 0.565516
vt 0.427327 0.565516
vt 0.428815 0.596766
vt 0.428815 0.609747
vt 0.424179 0.641739
vt 0.428071 0.641739
vt 0.428815 0.640997
vt 0.424179 0.640997
vt 0.430920 0.641739
vt 0.432209 0.640997
vt 0.431963 0.641739
vt 0.433451 0.640997
vt 0.430920 0.641739
vt 0.432209 0.640997
vt 0.428071 0.641739
vt 0.428815 0.640997
vt 0.424179 0.641739
vt 0.424179 0.640997
vt 0.420287 0.641739
vt 0.419543 0.640997
vt 0.417438 0.641739
vt 0.416150 0.640997
vt 0.416396 0.641739
vt 0.414907 0.640997
vt 0.417438 0.641739
vt 0.416150 0.640997
vt 0.420287 0.641739
vt 0.419543 0.640997
vt 0.418727 0.578497
vt 0.421032 0.578497
vt 0.421032 0.565516
vt 0.418727 0.565516
vt 0.427327 0.578497
vt 0.429631 0.578497
vt 0.429631 0.565516
vt 0.427327 0.565516
vt 0.421032 0.578497
vt 0.421032 0.565516
vt 0.429631 0.578497
vt 0.429631 0.565516
vt 0.417884 0.578497
vt 0.417884 0.565516
vt 0.424179 0.578497
vt 0.424179 0.565516
vt 0.430475 0.578497
vt 0.430475 0.565516
vt 0.418727 0.578497
vt 0.418727 0.565516
vt 0.424179 0.581141
vt 0.428815 0.581141
vt 0.427855 0.579287
vt 0.424179 0.579287
vt 0.432209 0.581141
vt 0.430546 0.579287
vt 0.433451 0.581141
vt 0.431532 0.579287
vt 0.432209 0.581141
vt 0.430546 0.579287
vt 0.428815 0.581141
vt 0.427855 0.579287
vt 0.424179 0.581141
vt 0.424179 0.579287
vt 0.419543 0.581141
vt 0.420503 0.579287
vt 0.416150 0.581141
vt 0.417812 0.579287
vt 0.414907 0.581141
vt 0.416827 0.579287
vt 0.416150 0.581141
vt 0.417812 0.579287
vt 0.419543 0.581141
vt 0.420503 0.579287
vt 0.421032 0.625372
vt 0.424179 0.625372
vt 0.424179 0.626114
vt 0.420287 0.626114
vt 0.418727 0.625372
vt 0.417438 0.626114
vt 0.417884 0.625372
vt 0.416396 0.626114
vt 0.418727 0.625372
vt 0.417438 0.626114
vt 0.421032 0.625372
vt 0.420287 0.626114
vt 0.424179 0.625372
vt 0.424179 0.626114
vt 0.427327 0.625372
vt 0.428071 0.626114
vt 0.429631 0.625372
vt 0.430920 0.626114
vt 0.430475 0.625372
vt 0.431963 0.626114
vt 0.429631 0.625372
vt 0.430920 0.626114
vt 0.427327 0.625372
vt 0.428071 0.626114
vt 0.439795 0.613464
vt 0.438197 0.622999
vt 0.437786 0.622736
vt 0.438989 0.613465
vt 0.432773 0.632385
vt 0.435505 0.632700
vt 0.435531 0.631943
vt 0.432773 0.631823
vt 0.432773 0.600573
vt 0.435531 0.600693
vt 0.435543 0.599044
vt 0.432773 0.599042
vt 0.438197 0.583679
vt 0.439795 0.592246
vt 0.438989 0.592245
vt 0.437786 0.584052
vt 0.437786 0.584052
vt 0.438989 0.592245
vt 0.432773 0.631823
vt 0.435531 0.631943
vt 0.437128 0.601701
vt 0.438989 0.599279
vt 0.437786 0.592291
vt 0.432773 0.567044
vt 0.435539 0.567070
vt 0.435543 0.567794
vt 0.432773 0.567792
vt 0.435543 0.638957
vt 0.432773 0.638959
vt 0.432773 0.639707
vt 0.435539 0.639681
vt 0.435531 0.574808
vt 0.432773 0.574928
vt 0.432773 0.574366
vt 0.435505 0.574051
vt 0.432773 0.574928
vt 0.435531 0.574808
vt 0.435531 0.606058
vt 0.432773 0.606178
vt 0.432773 0.607709
vt 0.435543 0.607707
vt 0.432773 0.567792
vt 0.435543 0.567794
vt 0.432773 0.599042
vt 0.435543 0.599044
vt 0.435531 0.600693
vt 0.432773 0.600573
vt 0.435543 0.607707
vt 0.432773 0.607709
vt 0.432773 0.606178
vt 0.435531 0.606058
vt 0.437128 0.605050
vt 0.437786 0.616913
vt 0.438989 0.607993
vt 0.438989 0.607993
vt 0.437786 0.616913
vt 0.437128 0.605050
vt 0.438989 0.613465
vt 0.437786 0.622736
vt 0.439795 0.607991
vt 0.438989 0.599279
vt 0.439795 0.599281
vt 0.437128 0.601701
vt 0.437128 0.589425
vt 0.436459 0.589131
vt 0.436459 0.586370
vt 0.437128 0.586076
vt 0.437128 0.589425
vt 0.437128 0.586076
vt 0.437786 0.592291
vt 0.435543 0.638957
vt 0.437786 0.628558
vt 0.438197 0.628821
vt 0.436459 0.573506
vt 0.437128 0.573800
vt 0.437128 0.573800
vt 0.438197 0.575440
vt 0.437786 0.575813
vt 0.437128 0.632951
vt 0.436459 0.633245
vt 0.437128 0.632951
vt 0.437786 0.575813
vt 0.437786 0.628558
vt 0.432773 0.638959
vt 0.424179 0.563662
vt 0.424179 0.563662
vt 0.427855 0.563662
vt 0.430546 0.563662
vt 0.431532 0.563662
vt 0.430546 0.563662
vt 0.427855 0.563662
vt 0.424179 0.563662
vt 0.420503 0.563662
vt 0.417812 0.563662
vt 0.416827 0.563662
vt 0.417812 0.563662
vt 0.420503 0.563662
vt 0.424179 0.596766
vt 0.427327 0.596766
vt 0.424179 0.596766
vt 0.429631 0.596766
vt 0.430475 0.596766
vt 0.429631 0.596766
vt 0.427327 0.596766
vt 0.424179 0.596766
vt 0.421032 0.596766
vt 0.418727 0.596766
vt 0.417884 0.596766
vt 0.418727 0.596766
vt 0.421032 0.596766
vn -0.4647 -0.3692 -0.8048
vn -0.5000 0.0000 -0.8660
vn 0.0000 0.0000 -1.0000
vn 0.0000 -0.3692 -0.9293
vn 0.8048 -0.3692 -0.4647
vn 0.8660 0.0000 -0.5000
vn 1.0000 0.0000 0.0000
vn 0.9293 -0.3692 0.0000
vn 0.8660 0.0000 0.5000
vn 0.8048 -0.3692 0.4647
vn 0.5000 0.0000 0.8660
vn 0.4647 -0.3692 0.8048
vn -0.0000 0.0000 1.0000
vn -0.0000 -0.3692 0.9293
vn -0.5000 0.0000 0.8660
vn -0.4647 -0.3692 0.8048
vn -0.8660 0.0000 0.5000
vn -0.8048 -0.3692 0.4647
vn -1.0000 0.0000 0.0000
vn -0.9293 -0.3692 0.0000
vn -0.8660 0.0000 -0.5000
vn -0.8048 -0.3692 -0.4647
vn 0.4647 -0.3692 -0.8048
vn 0.5000 0.0000 -0.8660
vn 0.0000 0.8950 -0.4461
vn 0.2230 0.8950 -0.3863
vn 0.3863 0.8950 -0.2230
vn 0.4461 0.8950 -0.0000
vn 0.3863 0.8950 0.2230
vn 0.2230 0.8950 0.3863
vn -0.0000 0.8950 0.4461
vn -0.2230 0.8950 0.3863
vn -0.3863 0.8950 0.2230
vn -0.4461 0.8950 0.0000
vn -0.3863 0.8950 -0.2230
vn -0.2230 0.8950 -0.3863
vn 0.3474 -0.7193 -0.6017
vn 0.0000 -0.9049 -0.4257
vn 0.6017 -0.7193 -0.3474
vn 0.6947 -0.7193 0.0000
vn 0.6017 -0.7193 0.3474
vn 0.2129 -0.9049 0.3687
vn -0.0000 -0.9049 0.4257
vn -0.3474 -0.7193 0.6017
vn -0.6017 -0.7193 0.3474
vn -0.6947 -0.7193 0.0000
vn -0.6017 -0.7193 -0.3474
vn -0.2129 -0.9049 -0.3687
vn 0.8583 0.1945 0.4749
vn 0.5502 0.6854 0.4769
vn 0.5787 0.6623 0.4759
vn 0.8527 0.2257 0.4711
vn -0.0736 0.9099 -0.4082
vn -0.2989 0.8628 -0.4077
vn -0.2671 0.8725 -0.4091
vn -0.0015 -0.0098 -1.0000
vn 0.0047 -0.0157 -0.9999
vn 0.0033 -0.0143 -0.9999
vn 0.5502 -0.6854 0.4769
vn 0.8583 -0.1945 0.4749
vn 0.8527 -0.2257 0.4711
vn 0.5787 -0.6623 0.4759
vn 0.5787 -0.6623 -0.4759
vn 0.8527 -0.2257 -0.4711
vn 0.8583 -0.1945 -0.4749
vn 0.5502 -0.6854 -0.4769
vn -0.0736 0.9099 0.4082
vn -0.2671 0.8725 0.4091
vn -0.2989 0.8628 0.4077
vn 0.0208 -0.0116 -0.9997
vn 0.0257 -0.0047 -0.9997
vn 0.0156 -0.0182 -0.9997
vn 0.0054 -0.8926 0.4508
vn 0.1291 -0.8798 0.4575
vn 0.1404 -0.8779 0.4578
vn 0.1404 0.8779 -0.4578
vn 0.0054 0.8926 -0.4508
vn 0.1291 0.8798 -0.4575
vn -0.2671 -0.8725 0.4091
vn -0.0736 -0.9099 0.4081
vn -0.2989 -0.8628 0.4077
vn -0.2989 -0.8628 -0.4077
vn -0.0736 -0.9099 -0.4081
vn -0.2671 -0.8725 -0.4091
vn 0.0047 0.0157 -0.9999
vn -0.0015 0.0098 -1.0000
vn 0.0033 0.0143 -0.9999
vn 0.0054 -0.8926 -0.4508
vn 0.1404 -0.8779 -0.4578
vn 0.1291 -0.8798 -0.4575
vn -0.0015 -0.0098 1.0000
vn 0.0033 -0.0143 0.9999
vn 0.0047 -0.0157 0.9999
vn 0.0033 0.0143 0.9999
vn -0.0015 0.0098 1.0000
vn 0.0047 0.0157 0.9999
vn 0.0208 0.0116 -0.9997
vn 0.0156 0.0182 -0.9997
vn 0.0257 0.0047 -0.9997
vn 0.0257 0.0047 0.9997
vn 0.0156 0.0182 0.9997
vn 0.0208 0.0116 0.9997
vn 0.8527 0.2257 -0.4711
vn 0.5787 0.6623 -0.4759
vn 0.5502 0.6854 -0.4769
vn 0.8583 0.1945 -0.4749
vn 0.0208 -0.0116 0.9997
vn 0.0257 -0.0047 0.9997
vn -0.9121 0.0000 0.4099
vn -0.9121 0.0000 -0.4099
vn 0.0156 -0.0182 0.9997
vn 0.1291 0.8798 0.4575
vn 0.1404 0.8779 0.4578
vn -0.4799 -0.7859 0.3900
vn -0.4799 -0.7859 -0.3900
vn -0.4799 0.7859 0.3900
vn -0.4799 0.7859 -0.3900
vn 0.0054 0.8926 0.4508
vn 0.0000 -1.0000 0.0000
vn -0.0000 1.0000 -0.0000
usemtl furniture_texture
s 1
f 38/1/1 24/2/2 14/3/3 27/4/4
f 29/5/5 15/6/6 16/7/7 30/8/8
f 30/8/8 16/7/7 17/9/9 31/10/10
f 31/10/10 17/9/9 18/11/11 32/12/12
f 32/12/12 18/11/11 19/13/13 33/14/14
f 33/14/14 19/13/13 20/15/15 34/16/16
f 34/16/16 20/15/15 21/17/17 35/18/18
f 35/18/18 21/17/17 22/19/19 36/20/20
f 36/20/20 22/19/19 23/21/21 37/22/22
f 37/22/22 23/21/21 24/2/2 38/1/1
f 2/23/15 1/24/13 106/25/13 105/26/15
f 28/27/23 13/28/24 15/6/6 29/5/5
f 27/4/4 14/3/3 13/28/24 28/27/23
f 39/29/25 40/30/26 13/31/26 14/32/25
f 40/30/26 41/33/27 15/34/27 13/31/26
f 41/33/27 42/35/28 16/36/28 15/34/27
f 42/35/28 43/37/29 17/38/29 16/36/28
f 43/37/29 44/39/30 18/40/30 17/38/29
f 44/39/30 45/41/31 19/42/31 18/40/30
f 45/41/31 46/43/32 20/44/32 19/42/31
f 46/43/32 47/45/33 21/46/33 20/44/32
f 47/45/33 48/47/34 22/48/34 21/46/33
f 48/47/34 49/49/35 23/50/35 22/48/34
f 49/49/35 50/51/36 24/52/36 23/50/35
f 50/51/36 39/29/25 14/32/25 24/52/36
f 9/53/6 8/54/24 112/55/24 113/56/6
f 6/57/2 5/58/21 109/59/21 110/60/2
f 1/24/13 12/61/11 116/62/11 106/25/13
f 3/63/17 2/23/15 105/26/15 107/64/17
f 10/65/7 9/53/6 113/56/6 114/66/7
f 7/67/3 6/57/2 110/60/2 111/68/3
f 4/69/19 3/63/17 107/64/17 108/70/19
f 11/71/9 10/65/7 114/66/7 115/72/9
f 8/54/24 7/67/3 111/68/3 112/55/24
f 5/58/21 4/69/19 108/70/19 109/59/21
f 12/61/11 11/71/9 115/72/9 116/62/11
f 27/73/4 28/74/23 93/75/37 94/76/38
f 28/74/23 29/77/5 95/78/39 93/75/37
f 29/77/5 30/79/8 96/80/40 95/78/39
f 30/79/8 31/81/10 97/82/41 96/80/40
f 31/81/10 32/83/12 98/84/42 97/82/41
f 32/83/12 33/85/14 99/86/43 98/84/42
f 33/85/14 34/87/16 100/88/44 99/86/43
f 34/87/16 35/89/18 101/90/45 100/88/44
f 35/89/18 36/91/20 102/92/46 101/90/45
f 36/91/20 37/93/22 103/94/47 102/92/46
f 37/93/22 38/95/1 104/96/48 103/94/47
f 38/95/1 27/73/4 94/76/38 104/96/48
f 12/97/30 1/98/31 39/99/31 50/100/30
f 11/101/29 12/97/30 50/100/30 49/102/29
f 10/103/28 11/101/29 49/102/29 48/104/28
f 9/105/27 10/103/28 48/104/28 47/106/27
f 8/107/26 9/105/27 47/106/27 46/108/26
f 7/109/25 8/107/26 46/108/26 45/110/25
f 6/111/36 7/109/25 45/110/25 44/112/36
f 5/113/35 6/111/36 44/112/36 43/114/35
f 4/115/34 5/113/35 43/114/35 42/116/34
f 3/117/33 4/115/34 42/116/34 41/118/33
f 2/119/32 3/117/33 41/118/33 40/120/32
f 1/98/31 2/119/32 40/120/32 39/99/31
f 64/121/49 75/122/50 78/123/51 65/124/52
f 60/125/53 89/126/54 90/127/55 61/128/53
f 61/129/56 90/130/57 91/131/58 62/132/56
f 85/133/59 63/134/60 66/135/61 86/136/62
f 92/137/63 74/138/64 63/134/65 85/133/66
f 59/139/67 88/140/68 89/126/69 60/125/67
f 72/141/70 74/142/71 92/143/72
f 57/144/73 84/145/74 87/146/75 58/147/73
f 82/148/76 56/149/77 51/150/77 76/151/78
f 79/152/79 53/153/80 54/154/80 80/155/81
f 80/155/82 54/154/83 55/156/83 81/157/84
f 81/158/85 55/159/86 56/160/86 82/161/87
f 62/162/88 91/163/89 84/145/90 57/144/88
f 58/164/91 87/165/92 88/166/93 59/167/91
f 77/168/94 52/169/95 53/170/95 79/171/96
f 71/172/97 83/173/98 73/174/99
f 65/175/100 78/176/101 67/177/102
f 73/178/103 83/179/104 75/122/105 64/121/106
f 64/180/49 65/175/52 66/181/61 63/182/60
f 65/175/100 67/177/102 68/183/107 66/181/108
f 67/184/109 69/185/109 70/186/109 68/187/109
f 69/185/110 71/188/110 72/189/110 70/186/110
f 71/172/97 73/174/99 74/142/71 72/141/70
f 63/182/65 74/142/64 73/174/103 64/180/106
f 86/190/111 66/181/108 68/183/107
f 76/151/112 77/191/113 78/192/51 75/193/50
f 77/168/94 79/171/96 67/177/102 78/176/101
f 79/152/79 80/155/81 69/194/114 67/195/114
f 80/155/82 81/157/84 71/196/115 69/194/115
f 81/158/85 82/161/87 83/173/98 71/172/97
f 85/197/59 86/198/62 87/146/75 84/145/74
f 86/190/111 68/183/107 88/166/93 87/165/92
f 68/199/116 70/200/116 89/126/69 88/140/68
f 70/200/117 72/201/117 90/127/55 89/126/54
f 84/145/90 91/163/89 92/202/63 85/197/66
f 75/193/105 83/203/104 82/148/76 76/151/78
f 72/141/70 92/143/72 91/131/58 90/130/57
f 76/151/112 51/150/118 52/204/118 77/191/113
f 26/205/119 94/206/38 93/207/119
f 26/205/119 93/207/119 95/208/119
f 26/205/119 95/208/119 96/209/119
f 26/205/119 96/209/119 97/210/119
f 26/205/119 97/210/119 98/211/42
f 26/205/119 98/211/42 99/212/43
f 26/205/119 99/212/43 100/213/119
f 26/205/119 100/213/119 101/214/119
f 26/205/119 101/214/119 102/215/119
f 26/205/119 102/215/119 103/216/119
f 26/205/119 103/216/119 104/217/48
f 26/205/119 104/217/48 94/206/38
f 25/218/120 105/219/120 106/220/120
f 25/218/120 107/221/120 105/219/120
f 25/218/120 108/222/120 107/221/120
f 25/218/120 109/223/120 108/222/120
f 25/218/120 110/224/120 109/223/120
f 25/218/120 111/225/120 110/224/120
f 25/218/120 112/226/120 111/225/120
f 25/218/120 113/227/120 112/226/120
f 25/218/120 114/228/120 113/227/120
f 25/218/120 115/229/120 114/228/120
f 25/218/120 116/230/120 115/229/120
f 25/218/120 106/220/120 116/230/120
