# Blender v3.4.1 OBJ File: 'Furniture_export_extra.blend'
# www.blender.org
mtllib mug_A.mtl
o mug_A_Torus.023
v 0.000000 0.220500 -0.124761
v 0.062380 0.220500 -0.108046
v 0.108046 0.220500 -0.062380
v 0.124761 0.220500 0.000000
v 0.108046 0.220500 0.062380
v 0.062380 0.220500 0.108046
v -0.000000 0.220500 0.124761
v -0.062380 0.220500 0.108046
v -0.108046 0.220500 0.062380
v -0.124761 0.220500 -0.000000
v -0.108046 0.220500 -0.062380
v -0.062380 0.220500 -0.108046
v 0.091875 0.220500 -0.159132
v 0.000000 0.220500 -0.183750
v 0.159132 0.220500 -0.091875
v 0.183750 0.220500 0.000000
v 0.159132 0.220500 0.091875
v 0.091875 0.220500 0.159132
v -0.000000 0.220500 0.183750
v -0.091875 0.220500 0.159132
v -0.159132 0.220500 0.091875
v -0.183750 0.220500 -0.000000
v -0.159132 0.220500 -0.091875
v -0.091875 0.220500 -0.159132
v 0.000000 0.036750 -0.000000
v 0.000000 0.000000 0.000000
v 0.000000 0.035258 -0.147000
v 0.073500 0.035258 -0.127306
v 0.127306 0.035258 -0.073500
v 0.147000 0.035258 0.000000
v 0.127306 0.035258 0.073500
v 0.073500 0.035258 0.127306
v 0.000000 0.035258 0.147000
v -0.073500 0.035258 0.127306
v -0.127305 0.035258 0.073500
v -0.147000 0.035258 -0.000000
v -0.127305 0.035258 -0.073500
v -0.073500 0.035258 -0.127306
v 0.000000 0.235200 -0.154255
v 0.077128 0.235200 -0.133589
v 0.133589 0.235200 -0.077128
v 0.154255 0.235200 0.000000
v 0.133589 0.235200 0.077128
v 0.077128 0.235200 0.133589
v -0.000000 0.235200 0.154255
v -0.077128 0.235200 0.133589
v -0.133589 0.235200 0.077128
v -0.154255 0.235200 -0.000000
v -0.133589 0.235200 -0.077128
v -0.077128 0.235200 -0.133589
v 0.046472 0.000000 -0.080492
v -0.000000 0.000000 -0.092944
v 0.080492 0.000000 -0.046472
v 0.092944 0.000000 -0.000000
v 0.080492 0.000000 0.046472
v 0.046472 0.000000 0.080492
v -0.000000 0.000000 0.092944
v -0.046472 0.000000 0.080492
v -0.080492 0.000000 0.046472
v -0.092944 0.000000 -0.000000
v -0.080492 0.000000 -0.046472
v -0.046472 0.000000 -0.080492
v 0.000000 0.127133 -0.181912
v 0.090956 0.127133 -0.157541
v -0.090956 0.127133 -0.157541
v 0.157541 0.127133 -0.090956
v 0.181913 0.127133 0.000000
v 0.157541 0.127133 0.090956
v 0.090956 0.127133 0.157541
v 0.000000 0.127133 0.181912
v -0.090956 0.127133 0.157541
v -0.157541 0.127133 0.090956
v -0.181912 0.127133 -0.000000
v -0.157541 0.127133 -0.090956
v 0.049904 0.036750 -0.086437
v 0.000000 0.036750 -0.099808
v 0.086437 0.036750 -0.049904
v 0.099809 0.036750 -0.000000
v 0.086437 0.036750 0.049904
v 0.049904 0.036750 0.086437
v 0.000000 0.036750 0.099808
v -0.049904 0.036750 0.086437
v -0.086436 0.036750 0.049904
v -0.099808 0.036750 -0.000000
v -0.086436 0.036750 -0.049904
v -0.049904 0.036750 -0.086437
v 0.149914 0.183978 0.000000
v 0.149914 0.172178 0.028974
v 0.149914 0.144488 0.028974
v 0.149914 0.136556 0.000000
v 0.149914 0.144488 -0.028974
v 0.149914 0.172178 -0.028974
v 0.124640 0.033025 0.000000
v 0.124640 0.044825 0.028974
v 0.124640 0.073797 0.028974
v 0.124640 0.081730 0.000000
v 0.124640 0.073797 -0.028974
v 0.124640 0.044825 -0.028974
v 0.283459 0.099341 0.000000
v 0.287162 0.136139 0.000000
v 0.274449 0.136200 0.028619
v 0.270746 0.099280 0.028619
v 0.245080 0.140128 0.029525
v 0.241377 0.094683 0.029525
v 0.234515 0.135979 0.000000
v 0.230812 0.098832 0.000000
v 0.245080 0.140128 -0.029525
v 0.241377 0.094683 -0.029525
v 0.274449 0.136200 -0.028619
v 0.270746 0.099280 -0.028619
v 0.261948 0.184481 0.000000
v 0.219998 0.196496 0.000000
v 0.220076 0.185078 0.028760
v 0.255456 0.173335 0.028605
v 0.219880 0.154355 0.029376
v 0.219474 0.143679 0.000000
v 0.219880 0.154355 -0.029376
v 0.220076 0.185078 -0.028760
v 0.255456 0.173335 -0.028605
v 0.218606 0.038912 0.000000
v 0.258245 0.050999 0.000000
v 0.251754 0.062146 0.028605
v 0.217058 0.050225 0.028760
v 0.213159 0.080036 0.029376
v 0.211058 0.090551 0.000000
v 0.213159 0.080036 -0.029376
v 0.217058 0.050225 -0.028760
v 0.251754 0.062146 -0.028605
vt 0.919590 0.851327
vt 0.919543 0.856038
vt 0.924179 0.856038
vt 0.924179 0.851327
vt 0.932129 0.851327
vt 0.932209 0.856038
vt 0.933451 0.856038
vt 0.933359 0.851327
vt 0.932209 0.856038
vt 0.932129 0.851327
vt 0.928815 0.856038
vt 0.928769 0.851327
vt 0.924179 0.856038
vt 0.924179 0.851327
vt 0.919543 0.856038
vt 0.919590 0.851327
vt 0.916150 0.856038
vt 0.916230 0.851327
vt 0.914907 0.856038
vt 0.915000 0.851327
vt 0.916150 0.856038
vt 0.916230 0.851327
vt 0.927327 0.824788
vt 0.924179 0.824788
vt 0.924179 0.815516
vt 0.926697 0.815516
vt 0.928769 0.851327
vt 0.928815 0.856038
vt 0.924179 0.888030
vt 0.928071 0.888030
vt 0.928815 0.887288
vt 0.924179 0.887288
vt 0.930920 0.888030
vt 0.932209 0.887288
vt 0.931963 0.888030
vt 0.933451 0.887288
vt 0.930920 0.888030
vt 0.932209 0.887288
vt 0.928071 0.888030
vt 0.928815 0.887288
vt 0.924179 0.888030
vt 0.924179 0.887288
vt 0.920287 0.888030
vt 0.919543 0.887288
vt 0.917438 0.888030
vt 0.916150 0.887288
vt 0.916396 0.888030
vt 0.914907 0.887288
vt 0.917438 0.888030
vt 0.916150 0.887288
vt 0.920287 0.888030
vt 0.919543 0.887288
vt 0.918727 0.824788
vt 0.921032 0.824788
vt 0.921661 0.815516
vt 0.919818 0.815516
vt 0.927327 0.824788
vt 0.929631 0.824788
vt 0.928541 0.815516
vt 0.926697 0.815516
vt 0.921032 0.824788
vt 0.921661 0.815516
vt 0.929631 0.824788
vt 0.928541 0.815516
vt 0.917884 0.824788
vt 0.919143 0.815516
vt 0.924179 0.824788
vt 0.924179 0.815516
vt 0.930475 0.824788
vt 0.929216 0.815516
vt 0.918727 0.824788
vt 0.919818 0.815516
vt 0.924179 0.831066
vt 0.927888 0.831066
vt 0.926524 0.829287
vt 0.924179 0.829287
vt 0.930603 0.831066
vt 0.928241 0.829287
vt 0.931597 0.831066
vt 0.928869 0.829287
vt 0.930603 0.831066
vt 0.928241 0.829287
vt 0.927888 0.831066
vt 0.926524 0.829287
vt 0.924179 0.831066
vt 0.924179 0.829287
vt 0.920471 0.831066
vt 0.921834 0.829287
vt 0.917755 0.831066
vt 0.920118 0.829287
vt 0.916762 0.831066
vt 0.919489 0.829287
vt 0.917755 0.831066
vt 0.920118 0.829287
vt 0.920471 0.831066
vt 0.921834 0.829287
vt 0.921032 0.871663
vt 0.924179 0.871663
vt 0.924179 0.872405
vt 0.920287 0.872405
vt 0.918727 0.871663
vt 0.917438 0.872405
vt 0.917884 0.871663
vt 0.916396 0.872405
vt 0.918727 0.871663
vt 0.917438 0.872405
vt 0.921032 0.871663
vt 0.920287 0.872405
vt 0.924179 0.871663
vt 0.924179 0.872405
vt 0.927327 0.871663
vt 0.928071 0.872405
vt 0.929631 0.871663
vt 0.930920 0.872405
vt 0.930475 0.871663
vt 0.931963 0.872405
vt 0.929631 0.871663
vt 0.930920 0.872405
vt 0.927327 0.871663
vt 0.928071 0.872405
vt 0.924179 0.813662
vt 0.924179 0.813662
vt 0.926524 0.813662
vt 0.928241 0.813662
vt 0.928869 0.813662
vt 0.928241 0.813662
vt 0.926524 0.813662
vt 0.924179 0.813662
vt 0.921834 0.813662
vt 0.920118 0.813662
vt 0.919489 0.813662
vt 0.920118 0.813662
vt 0.921834 0.813662
vt 0.924179 0.846691
vt 0.927888 0.846691
vt 0.930603 0.846691
vt 0.917755 0.846691
vt 0.920471 0.846691
vt 0.916762 0.846691
vt 0.917755 0.846691
vt 0.920471 0.846691
vt 0.924179 0.846691
vt 0.927888 0.846691
vt 0.930603 0.846691
vt 0.931597 0.846691
vt 0.924179 0.846766
vt 0.926697 0.846766
vt 0.924179 0.846766
vt 0.928541 0.846766
vt 0.929216 0.846766
vt 0.928541 0.846766
vt 0.926697 0.846766
vt 0.924179 0.846766
vt 0.921661 0.846766
vt 0.919818 0.846766
vt 0.919143 0.846766
vt 0.919818 0.846766
vt 0.921661 0.846766
vt 0.938670 0.836156
vt 0.937397 0.857579
vt 0.937070 0.857538
vt 0.938028 0.836159
vt 0.930469 0.880286
vt 0.934829 0.880731
vt 0.934935 0.880200
vt 0.930469 0.879885
vt 0.935132 0.878696
vt 0.930469 0.878424
vt 0.937210 0.832075
vt 0.938483 0.834299
vt 0.937841 0.834296
vt 0.936883 0.832315
vt 0.936883 0.832315
vt 0.937841 0.834296
vt 0.930469 0.879885
vt 0.934935 0.880200
vt 0.936359 0.849689
vt 0.937841 0.849921
vt 0.936883 0.838983
vt 0.930469 0.815328
vt 0.935210 0.815625
vt 0.935132 0.816196
vt 0.930469 0.815924
vt 0.935284 0.885501
vt 0.931744 0.884850
vt 0.931744 0.885445
vt 0.935280 0.886077
vt 0.935274 0.821450
vt 0.931744 0.820953
vt 0.931744 0.820552
vt 0.935254 0.820912
vt 0.931744 0.820953
vt 0.935274 0.821450
vt 0.935274 0.852700
vt 0.931744 0.852203
vt 0.931744 0.853600
vt 0.935284 0.854251
vt 0.930469 0.815924
vt 0.935132 0.816196
vt 0.930469 0.847174
vt 0.935132 0.847446
vt 0.934935 0.848950
vt 0.930469 0.848635
vt 0.935284 0.854251
vt 0.931744 0.853600
vt 0.931744 0.852203
vt 0.935274 0.852700
vt 0.936546 0.851983
vt 0.937070 0.858665
vt 0.938028 0.851784
vt 0.938028 0.851784
vt 0.937070 0.858665
vt 0.936546 0.851983
vt 0.938028 0.836159
vt 0.937070 0.857538
vt 0.936359 0.849689
vt 0.937841 0.849921
vt 0.936546 0.836358
vt 0.936013 0.836148
vt 0.935826 0.834274
vt 0.936359 0.834064
vt 0.936546 0.836358
vt 0.936359 0.834064
vt 0.936883 0.838983
vt 0.935284 0.885501
vt 0.937070 0.860918
vt 0.937397 0.860959
vt 0.936013 0.820523
vt 0.936546 0.820733
vt 0.936546 0.820733
vt 0.937210 0.825407
vt 0.936883 0.825647
vt 0.936359 0.880939
vt 0.935826 0.881149
vt 0.936359 0.880939
vt 0.936883 0.825647
vt 0.937070 0.860918
vt 0.935132 0.847446
vt 0.934935 0.848950
vt 0.931744 0.884850
vn -0.4914 -0.1852 -0.8510
vn -0.4999 -0.0197 -0.8659
vn -0.0000 -0.0197 -0.9998
vn -0.0000 -0.1852 -0.9827
vn 0.8510 -0.1852 -0.4914
vn 0.8659 -0.0197 -0.4999
vn 0.9998 -0.0197 0.0000
vn 0.9827 -0.1852 0.0000
vn 0.8659 -0.0197 0.4999
vn 0.8510 -0.1852 0.4914
vn 0.4999 -0.0197 0.8659
vn 0.4914 -0.1852 0.8510
vn -0.0000 -0.0197 0.9998
vn -0.0000 -0.1852 0.9827
vn -0.4999 -0.0197 0.8659
vn -0.4914 -0.1852 0.8510
vn -0.8659 -0.0197 0.4999
vn -0.8510 -0.1852 0.4914
vn -0.9998 -0.0197 0.0000
vn -0.9827 -0.1852 -0.0000
vn -0.8659 -0.0197 -0.4999
vn -0.8510 -0.1852 -0.4914
vn -0.4955 0.1346 0.8581
vn 0.0000 0.1346 0.9909
vn 0.4914 -0.1852 -0.8510
vn 0.4999 -0.0197 -0.8659
vn -0.0000 0.8950 -0.4461
vn 0.2230 0.8950 -0.3863
vn 0.3863 0.8950 -0.2230
vn 0.4461 0.8950 -0.0000
vn 0.3863 0.8950 0.2230
vn 0.2230 0.8950 0.3863
vn -0.0000 0.8950 0.4461
vn -0.2230 0.8950 0.3863
vn -0.3863 0.8950 0.2230
vn -0.4461 0.8950 0.0000
vn -0.3863 0.8950 -0.2230
vn -0.2230 0.8950 -0.3863
vn 0.8581 0.1346 -0.4955
vn 0.4955 0.1346 -0.8581
vn -0.4955 0.1346 -0.8581
vn -0.8581 0.1346 -0.4955
vn 0.4955 0.1346 0.8581
vn -0.8581 0.1346 0.4955
vn 0.9909 0.1346 -0.0000
vn 0.0000 0.1346 -0.9909
vn -0.9909 0.1346 0.0000
vn 0.8581 0.1346 0.4955
vn 0.0000 -0.6033 -0.7975
vn 0.3988 -0.6033 -0.6907
vn 0.1637 -0.9449 -0.2835
vn -0.0000 -0.9449 -0.3274
vn 0.6907 -0.6033 -0.3988
vn 0.2835 -0.9449 -0.1637
vn 0.7975 -0.6033 0.0000
vn 0.3273 -0.9449 -0.0000
vn 0.6907 -0.6033 0.3988
vn 0.2835 -0.9449 0.1637
vn 0.3988 -0.6033 0.6907
vn 0.1637 -0.9449 0.2835
vn 0.0000 -0.6033 0.7975
vn -0.0000 -0.9449 0.3274
vn -0.3988 -0.6033 0.6907
vn -0.1637 -0.9449 0.2835
vn -0.6907 -0.6033 0.3988
vn -0.2835 -0.9449 0.1637
vn -0.7975 -0.6033 -0.0000
vn -0.3274 -0.9449 -0.0000
vn -0.6907 -0.6033 -0.3988
vn -0.2835 -0.9449 -0.1637
vn -0.3988 -0.6033 -0.6907
vn -0.1637 -0.9449 -0.2835
vn 0.0000 -1.0000 0.0000
vn 0.0000 1.0000 0.0000
vn 0.9846 0.1751 -0.0000
vn 0.6287 0.7776 0.0000
vn 0.6015 0.6939 0.3958
vn 0.8992 0.1866 0.3957
vn -0.0865 0.9963 -0.0000
vn -0.2655 0.9641 0.0000
vn -0.2484 0.9186 -0.3074
vn -0.0824 0.9494 -0.3031
vn -0.0004 -0.0105 -0.9999
vn 0.0050 -0.0169 -0.9998
vn 0.0044 -0.0162 -0.9999
vn 0.6342 -0.7732 -0.0000
vn 0.9622 -0.2722 -0.0000
vn 0.8798 -0.2759 0.3871
vn 0.6065 -0.6886 0.3975
vn 0.6065 -0.6886 -0.3975
vn 0.8798 -0.2759 -0.3871
vn -0.0824 0.9494 0.3031
vn -0.2484 0.9186 0.3074
vn 0.0246 -0.0144 -0.9996
vn 0.0318 -0.0078 -0.9995
vn 0.0175 -0.0208 -0.9996
vn 0.0609 -0.9981 0.0000
vn 0.1844 -0.9829 -0.0000
vn 0.1730 -0.9084 0.3807
vn 0.0565 -0.9264 0.3724
vn 0.0582 0.9220 -0.3827
vn -0.1653 0.9150 -0.3682
vn -0.1777 0.9841 0.0000
vn 0.0561 0.9984 0.0000
vn -0.1706 -0.9345 0.3123
vn 0.1144 -0.9467 0.3011
vn 0.1200 -0.9928 0.0000
vn -0.1981 -0.9802 -0.0000
vn 0.1144 -0.9467 -0.3011
vn -0.1706 -0.9345 -0.3123
vn 0.0039 0.0170 -0.9998
vn -0.0031 0.0105 -0.9999
vn 0.0030 0.0162 -0.9999
vn 0.0565 -0.9264 -0.3724
vn 0.1730 -0.9084 -0.3807
vn -0.0004 -0.0105 0.9999
vn 0.0044 -0.0162 0.9999
vn 0.0050 -0.0169 0.9998
vn 0.0030 0.0162 0.9999
vn -0.0031 0.0105 0.9999
vn 0.0039 0.0170 0.9998
vn 0.0249 0.0118 -0.9996
vn 0.0174 0.0207 -0.9996
vn 0.0317 0.0048 -0.9995
vn 0.0317 0.0048 0.9995
vn 0.0174 0.0207 0.9996
vn 0.0249 0.0118 0.9996
vn 0.8992 0.1866 -0.3957
vn 0.6015 0.6939 -0.3958
vn 0.0246 -0.0144 0.9996
vn 0.0318 -0.0078 0.9995
vn -0.9382 0.0841 0.3357
vn -0.9960 0.0893 -0.0000
vn -0.9382 0.0841 -0.3357
vn 0.0175 -0.0208 0.9996
vn 0.0582 0.9220 0.3827
vn -0.4793 -0.8776 -0.0000
vn -0.4578 -0.8382 0.2963
vn -0.4578 -0.8382 -0.2963
vn -0.4118 0.8596 0.3026
vn -0.4320 0.9019 0.0000
vn -0.4118 0.8596 -0.3026
vn -0.1653 0.9150 0.3682
usemtl furniture_texture
s 1
f 65/1/1 24/2/2 14/3/3 63/4/4
f 66/5/5 15/6/6 16/7/7 67/8/8
f 67/8/8 16/7/7 17/9/9 68/10/10
f 68/10/10 17/9/9 18/11/11 69/12/12
f 69/12/12 18/11/11 19/13/13 70/14/14
f 70/14/14 19/13/13 20/15/15 71/16/16
f 71/16/16 20/15/15 21/17/17 72/18/18
f 72/18/18 21/17/17 22/19/19 73/20/20
f 73/20/20 22/19/19 23/21/21 74/22/22
f 2/23/23 1/24/24 76/25/24 75/26/23
f 74/22/22 23/21/21 24/2/2 65/1/1
f 64/27/25 13/28/26 15/6/6 66/5/5
f 39/29/27 40/30/28 13/31/28 14/32/27
f 40/30/28 41/33/29 15/34/29 13/31/28
f 41/33/29 42/35/30 16/36/30 15/34/29
f 42/35/30 43/37/31 17/38/31 16/36/30
f 43/37/31 44/39/32 18/40/32 17/38/31
f 44/39/32 45/41/33 19/42/33 18/40/32
f 45/41/33 46/43/34 20/44/34 19/42/33
f 46/43/34 47/45/35 21/46/35 20/44/34
f 47/45/35 48/47/36 22/48/36 21/46/35
f 48/47/36 49/49/37 23/50/37 22/48/36
f 49/49/37 50/51/38 24/52/38 23/50/37
f 50/51/38 39/29/27 14/32/27 24/52/38
f 9/53/39 8/54/40 82/55/40 83/56/39
f 6/57/41 5/58/42 79/59/42 80/60/41
f 1/24/24 12/61/43 86/62/43 76/25/24
f 3/63/44 2/23/23 75/26/23 77/64/44
f 10/65/45 9/53/39 83/56/39 84/66/45
f 7/67/46 6/57/41 80/60/41 81/68/46
f 4/69/47 3/63/44 77/64/44 78/70/47
f 11/71/48 10/65/45 84/66/45 85/72/48
f 8/54/40 7/67/46 81/68/46 82/55/40
f 5/58/42 4/69/47 78/70/47 79/59/42
f 12/61/43 11/71/48 85/72/48 86/62/43
f 27/73/49 28/74/50 51/75/51 52/76/52
f 28/74/50 29/77/53 53/78/54 51/75/51
f 29/77/53 30/79/55 54/80/56 53/78/54
f 30/79/55 31/81/57 55/82/58 54/80/56
f 31/81/57 32/83/59 56/84/60 55/82/58
f 32/83/59 33/85/61 57/86/62 56/84/60
f 33/85/61 34/87/63 58/88/64 57/86/62
f 34/87/63 35/89/65 59/90/66 58/88/64
f 35/89/65 36/91/67 60/92/68 59/90/66
f 36/91/67 37/93/69 61/94/70 60/92/68
f 37/93/69 38/95/71 62/96/72 61/94/70
f 38/95/71 27/73/49 52/76/52 62/96/72
f 12/97/32 1/98/33 39/99/33 50/100/32
f 11/101/31 12/97/32 50/100/32 49/102/31
f 10/103/30 11/101/31 49/102/31 48/104/30
f 9/105/29 10/103/30 48/104/30 47/106/29
f 8/107/28 9/105/29 47/106/29 46/108/28
f 7/109/27 8/107/28 46/108/28 45/110/27
f 6/111/38 7/109/27 45/110/27 44/112/38
f 5/113/37 6/111/38 44/112/38 43/114/37
f 4/115/36 5/113/37 43/114/37 42/116/36
f 3/117/35 4/115/36 42/116/36 41/118/35
f 2/119/34 3/117/35 41/118/35 40/120/34
f 1/98/33 2/119/34 40/120/34 39/99/33
f 26/121/73 52/122/52 51/123/51
f 26/121/73 51/123/51 53/124/54
f 26/121/73 53/124/54 54/125/56
f 26/121/73 54/125/56 55/126/58
f 26/121/73 55/126/58 56/127/60
f 26/121/73 56/127/60 57/128/62
f 26/121/73 57/128/62 58/129/64
f 26/121/73 58/129/64 59/130/66
f 26/121/73 59/130/66 60/131/68
f 26/121/73 60/131/68 61/132/70
f 26/121/73 61/132/70 62/133/72
f 26/121/73 62/133/72 52/122/52
f 63/4/4 14/3/3 13/28/26 64/27/25
f 27/134/49 63/4/4 64/27/25 28/135/50
f 28/135/50 64/27/25 66/5/5 29/136/53
f 37/137/69 74/22/22 65/1/1 38/138/71
f 36/139/67 73/20/20 74/22/22 37/137/69
f 35/140/65 72/18/18 73/20/20 36/139/67
f 34/141/63 71/16/16 72/18/18 35/140/65
f 33/142/61 70/14/14 71/16/16 34/141/63
f 32/143/59 69/12/12 70/14/14 33/142/61
f 31/144/57 68/10/10 69/12/12 32/143/59
f 30/145/55 67/8/8 68/10/10 31/144/57
f 29/136/53 66/5/5 67/8/8 30/145/55
f 38/138/71 65/1/1 63/4/4 27/134/49
f 25/146/74 75/147/74 76/148/74
f 25/146/74 77/149/74 75/147/74
f 25/146/74 78/150/74 77/149/74
f 25/146/74 79/151/74 78/150/74
f 25/146/74 80/152/74 79/151/74
f 25/146/74 81/153/74 80/152/74
f 25/146/74 82/154/74 81/153/74
f 25/146/74 83/155/74 82/154/74
f 25/146/74 84/156/74 83/155/74
f 25/146/74 85/157/74 84/156/74
f 25/146/74 86/158/74 85/157/74
f 25/146/74 76/148/74 86/158/74
f 100/159/75 111/160/76 114/161/77 101/162/78
f 96/163/79 125/164/80 126/165/81 97/166/82
f 97/166/83 126/165/84 127/167/85 98/168/83
f 121/169/86 99/170/87 102/171/88 122/172/89
f 128/173/90 110/174/91 99/170/87 121/169/86
f 95/175/92 124/176/93 125/164/80 96/163/79
f 108/177/94 110/178/95 128/179/96
f 93/180/97 120/181/98 123/182/99 94/183/100
f 118/184/101 92/185/102 87/186/103 112/187/104
f 115/188/105 89/189/106 90/190/107 116/191/108
f 116/191/108 90/190/107 91/192/109 117/193/110
f 117/194/111 91/195/112 92/196/112 118/197/113
f 98/198/114 127/199/115 120/181/98 93/180/97
f 94/200/116 123/201/117 124/202/118 95/203/116
f 113/204/119 88/205/120 89/206/120 115/207/121
f 107/208/122 119/209/123 109/210/124
f 101/211/125 114/212/126 103/213/127
f 109/214/128 119/215/129 111/160/76 100/159/75
f 100/159/75 101/162/78 102/171/88 99/170/87
f 101/211/125 103/213/127 104/216/130 102/217/131
f 103/218/132 105/219/133 106/220/133 104/221/132
f 105/219/133 107/222/134 108/223/134 106/220/133
f 107/208/122 109/210/124 110/178/95 108/177/94
f 99/170/87 110/174/91 109/214/128 100/159/75
f 122/224/135 102/217/131 104/216/130
f 112/187/104 113/225/136 114/226/77 111/227/76
f 113/204/119 115/207/121 103/213/127 114/212/126
f 115/188/105 116/191/108 105/228/137 103/229/138
f 116/191/108 117/193/110 107/230/139 105/228/137
f 117/194/111 118/197/113 119/209/123 107/208/122
f 121/231/86 122/232/89 123/182/99 120/181/98
f 122/224/135 104/216/130 124/202/118 123/201/117
f 104/233/140 106/234/141 125/164/80 124/176/93
f 106/234/141 108/235/142 126/165/81 125/164/80
f 120/181/98 127/199/115 128/236/90 121/231/86
f 111/227/76 119/237/129 118/184/101 112/187/104
f 108/177/94 128/179/96 127/238/85 126/239/84
f 112/187/104 87/186/103 88/240/143 113/225/136
