# Blender v3.4.1 OBJ File: 'Resource_Bits_Export.blend'
# www.blender.org
mtllib Containers_Box_Large.mtl
o Containers_Box_Large
v -0.337500 0.000000 0.337500
v -0.337500 0.037500 0.375000
v -0.375000 0.037500 0.337500
v -0.337500 0.712500 0.375000
v -0.337500 0.750000 0.337500
v -0.375000 0.712500 0.337500
v -0.337500 0.000000 -0.337500
v -0.375000 0.037500 -0.337500
v -0.337500 0.037500 -0.375000
v -0.337500 0.750000 -0.337500
v -0.337500 0.712500 -0.375000
v -0.375000 0.712500 -0.337500
v 0.337500 0.000000 0.337500
v 0.375000 0.037500 0.337500
v 0.337500 0.037500 0.375000
v 0.337500 0.750000 0.337500
v 0.337500 0.712500 0.375000
v 0.375000 0.712500 0.337500
v 0.337500 0.037500 -0.375000
v 0.375000 0.037500 -0.337500
v 0.337500 0.000000 -0.337500
v 0.337500 0.712500 -0.375000
v 0.337500 0.750000 -0.337500
v 0.375000 0.712500 -0.337500
v -0.075000 0.000000 -0.337500
v -0.075000 0.037500 -0.375000
v 0.075000 0.037500 -0.375000
v 0.075000 0.000000 -0.337500
v 0.075000 0.750000 -0.337500
v 0.075000 0.712500 -0.375000
v -0.075000 0.712500 -0.375000
v -0.075000 0.750000 -0.337500
v 0.075000 0.000000 0.337500
v 0.075000 0.037500 0.375000
v -0.075000 0.037500 0.375000
v -0.075000 0.000000 0.337500
v -0.075000 0.750000 0.337500
v -0.075000 0.712500 0.375000
v 0.075000 0.712500 0.375000
v 0.075000 0.750000 0.337500
v 0.000000 0.000000 0.337500
v 0.000000 0.037500 0.375000
v 0.000000 0.000000 -0.337500
v 0.000000 0.037500 -0.375000
v 0.000000 0.712500 0.375000
v 0.000000 0.712500 -0.375000
v -0.067411 0.757500 -0.337500
v -0.067411 0.757500 0.337500
v 0.067411 0.757500 -0.337500
v 0.000000 0.757500 -0.337500
v 0.067411 0.757500 0.337500
v 0.000000 0.757500 0.337500
v 0.280555 0.108387 0.371119
v 0.280555 0.151320 0.371119
v 0.139446 0.108387 0.371119
v 0.139446 0.151320 0.371119
v 0.270573 0.141338 0.378881
v 0.270573 0.123360 0.378881
v 0.149427 0.123360 0.378881
v 0.149427 0.141338 0.378881
v 0.291633 0.233681 0.371119
v 0.128367 0.233681 0.371119
v 0.258526 0.248654 0.378881
v 0.161474 0.248654 0.378881
v 0.239722 0.233681 0.371119
v 0.180278 0.233681 0.371119
v 0.230191 0.248654 0.378881
v 0.189809 0.248654 0.378881
v 0.210000 0.308761 0.378881
v 0.210000 0.332204 0.371119
v 0.239722 0.160235 0.371119
v 0.180278 0.160235 0.371119
v 0.230191 0.175208 0.378881
v 0.189809 0.175208 0.378881
v -0.280555 0.108387 -0.371119
v -0.280555 0.151320 -0.371119
v -0.139446 0.108387 -0.371119
v -0.139446 0.151320 -0.371119
v -0.270573 0.141338 -0.378881
v -0.270573 0.123360 -0.378881
v -0.149427 0.123360 -0.378881
v -0.149427 0.141338 -0.378881
v -0.291633 0.233681 -0.371119
v -0.128367 0.233681 -0.371119
v -0.258526 0.248654 -0.378881
v -0.161474 0.248654 -0.378881
v -0.239722 0.233681 -0.371119
v -0.180278 0.233681 -0.371119
v -0.230191 0.248654 -0.378881
v -0.189809 0.248654 -0.378881
v -0.210000 0.308761 -0.378881
v -0.210000 0.332204 -0.371119
v -0.239722 0.160235 -0.371119
v -0.180278 0.160235 -0.371119
v -0.230191 0.175208 -0.378881
v -0.189809 0.175208 -0.378881
v 0.371119 0.470992 -0.308525
v 0.371119 0.678008 -0.308525
v 0.371119 0.470992 0.053525
v 0.371119 0.678008 0.053525
v 0.371119 0.578250 -0.308525
v 0.378881 0.663008 -0.293525
v 0.378881 0.493492 -0.293525
v 0.378881 0.493492 0.038525
v 0.378881 0.663008 0.038525
v 0.371119 0.578250 0.053525
v 0.378881 0.578250 -0.293525
v 0.378881 0.578250 0.038525
v 0.378881 0.527395 -0.182842
v 0.378881 0.527395 0.002842
v 0.378881 0.561298 -0.182842
v 0.378881 0.561298 0.002842
v 0.378881 0.595202 -0.257842
v 0.378881 0.595202 0.002842
v 0.378881 0.629105 -0.257842
v 0.378881 0.629105 0.002842
v -0.098016 0.563622 0.371119
v -0.098016 0.692638 0.371119
v -0.323651 0.563622 0.371119
v -0.323651 0.692638 0.371119
v -0.098016 0.630467 0.371119
v -0.107364 0.683290 0.378881
v -0.107364 0.577645 0.378881
v -0.314303 0.577645 0.378881
v -0.314303 0.683290 0.378881
v -0.323651 0.630467 0.371119
v -0.107364 0.630467 0.378881
v -0.314303 0.630467 0.378881
v -0.213349 0.598774 0.378881
v -0.292064 0.598774 0.378881
v -0.213349 0.619903 0.378881
v -0.292064 0.619903 0.378881
v -0.157518 0.641032 0.378881
v -0.292064 0.641032 0.378881
v -0.157518 0.662161 0.378881
v -0.292064 0.662161 0.378881
v 0.371119 0.209154 -0.273147
v 0.371119 0.407660 -0.305516
v 0.371119 0.241150 -0.076923
v 0.371119 0.439657 -0.109292
v 0.378881 0.389793 -0.280809
v 0.378881 0.240279 -0.256429
v 0.378881 0.265352 -0.102663
v 0.378881 0.414866 -0.127043
v -0.371119 0.311356 0.059700
v -0.371119 0.492544 0.089244
v -0.371119 0.353168 -0.213542
v -0.371119 0.534356 -0.183997
v -0.378881 0.481940 0.074509
v -0.378881 0.332426 0.050129
v -0.378881 0.370106 -0.197774
v -0.378881 0.519620 -0.173394
v -0.371119 0.562946 0.265108
v -0.371119 0.695639 0.244509
v -0.371119 0.529974 0.065623
v -0.371119 0.662667 0.045024
v -0.378881 0.677683 0.228482
v -0.378881 0.579174 0.243774
v -0.378881 0.552103 0.081002
v -0.378881 0.650612 0.065710
v -0.161671 0.419864 0.371119
v -0.181286 0.548133 0.371119
v -0.288466 0.400474 0.371119
v -0.308080 0.528744 0.371119
v -0.199127 0.523653 0.378881
v -0.186546 0.441379 0.378881
v -0.271158 0.428441 0.378881
v -0.283739 0.510714 0.378881
v -0.000927 0.755034 -0.336906
v -0.000927 0.755034 0.336906
v 0.004751 0.795404 -0.336906
v 0.337508 0.749993 -0.336906
v 0.004751 0.795404 0.336906
v 0.337508 0.749993 0.336906
v 0.331830 0.709623 0.336906
v 0.331830 0.709623 -0.336906
v 0.078447 0.785359 -0.336906
v 0.078447 0.785359 0.336906
vt 0.903865 0.870577
vt 0.900128 0.870577
vt 0.900128 0.814275
vt 0.903865 0.814275
vt 0.903865 0.777402
vt 0.903865 0.833704
vt 0.930026 0.833704
vt 0.930026 0.777402
vt 0.903865 0.814275
vt 0.900128 0.814275
vt 0.900128 0.870577
vt 0.903865 0.870577
vt 0.180026 0.790753
vt 0.180026 0.790753
vt 0.187500 0.790753
vt 0.187500 0.790753
vt 0.194974 0.790753
vt 0.194974 0.790753
vt 0.971135 0.777402
vt 0.971135 0.833704
vt 0.944974 0.833704
vt 0.944974 0.777402
vt 0.180026 0.794490
vt 0.187500 0.794490
vt 0.903865 0.757337
vt 0.930026 0.757337
vt 0.930026 0.757337
vt 0.903865 0.757337
vt 0.974872 0.820627
vt 0.974872 0.820627
vt 0.974872 0.764325
vt 0.974872 0.764325
vt 0.971135 0.814275
vt 0.974872 0.814275
vt 0.974872 0.870577
vt 0.971135 0.870577
vt 0.930026 0.777402
vt 0.930026 0.833704
vt 0.903865 0.833704
vt 0.903865 0.777402
vt 0.944974 0.777402
vt 0.944974 0.833704
vt 0.971135 0.833704
vt 0.971135 0.777402
vt 0.187500 0.861760
vt 0.180026 0.861760
vt 0.974872 0.814275
vt 0.971135 0.814275
vt 0.971135 0.870577
vt 0.974872 0.870577
vt 0.903865 0.811147
vt 0.903865 0.873705
vt 0.903865 0.811147
vt 0.903865 0.873705
vt 0.971135 0.811147
vt 0.971135 0.873705
vt 0.971135 0.811147
vt 0.971135 0.873705
vt 0.930026 0.849910
vt 0.930026 0.849910
vt 0.903865 0.849910
vt 0.903865 0.849910
vt 0.944974 0.757337
vt 0.971135 0.757337
vt 0.971135 0.757337
vt 0.944974 0.757337
vt 0.180026 0.845410
vt 0.180026 0.850712
vt 0.180026 0.850712
vt 0.194974 0.794490
vt 0.187500 0.794490
vt 0.180026 0.794490
vt 0.930026 0.811147
vt 0.930026 0.814275
vt 0.930026 0.873705
vt 0.930026 0.870577
vt 0.944974 0.814275
vt 0.944974 0.811147
vt 0.944974 0.814275
vt 0.944974 0.811147
vt 0.930026 0.814275
vt 0.930026 0.811147
vt 0.944974 0.873705
vt 0.944974 0.870577
vt 0.944974 0.870577
vt 0.944974 0.873705
vt 0.930026 0.870577
vt 0.930026 0.873705
vt 0.194974 0.861760
vt 0.180026 0.861760
vt 0.187500 0.861760
vt 0.971135 0.849910
vt 0.971135 0.849910
vt 0.944974 0.849910
vt 0.944974 0.849910
vt 0.900128 0.820627
vt 0.900128 0.820627
vt 0.900128 0.764325
vt 0.900128 0.764325
vt 0.194974 0.794490
vt 0.194974 0.845410
vt 0.194974 0.850712
vt 0.194974 0.850712
vt 0.180026 0.841628
vt 0.180026 0.841628
vt 0.180026 0.841628
vt 0.180026 0.841628
vt 0.194974 0.861760
vt 0.180026 0.865497
vt 0.187500 0.865497
vt 0.194974 0.865497
vt 0.187500 0.834247
vt 0.187500 0.834247
vt 0.194974 0.865497
vt 0.180026 0.865497
vt 0.187500 0.865497
vt 0.194974 0.850712
vt 0.194974 0.845410
vt 0.194974 0.850712
vt 0.194974 0.841628
vt 0.194974 0.841628
vt 0.194974 0.841628
vt 0.194974 0.841628
vt 0.180026 0.850712
vt 0.180026 0.845410
vt 0.180026 0.850712
vt 0.580299 0.812476
vt 0.580299 0.907910
vt 0.554139 0.907910
vt 0.554139 0.812476
vt 0.580299 0.812476
vt 0.580299 0.907910
vt 0.554139 0.907910
vt 0.554139 0.812476
vt 0.580299 0.812476
vt 0.567219 0.907910
vt 0.571579 0.812476
vt 0.562859 0.812476
vt 0.580299 0.812476
vt 0.567219 0.907910
vt 0.571579 0.812476
vt 0.554139 0.812476
vt 0.554139 0.812476
vt 0.562859 0.812476
vt 0.571579 0.812476
vt 0.571579 0.812476
vt 0.562859 0.812476
vt 0.562859 0.812476
vt 0.580299 0.812476
vt 0.580299 0.907910
vt 0.554139 0.907910
vt 0.554139 0.812476
vt 0.580299 0.812476
vt 0.580299 0.907910
vt 0.554139 0.907910
vt 0.554139 0.812476
vt 0.580299 0.812476
vt 0.567219 0.907910
vt 0.571579 0.812476
vt 0.562859 0.812476
vt 0.580299 0.812476
vt 0.567219 0.907910
vt 0.571579 0.812476
vt 0.554139 0.812476
vt 0.554139 0.812476
vt 0.562859 0.812476
vt 0.571579 0.812476
vt 0.571579 0.812476
vt 0.562859 0.812476
vt 0.562859 0.812476
vt 0.312859 0.610193
vt 0.312859 0.610193
vt 0.304139 0.610193
vt 0.330299 0.610193
vt 0.330299 0.610193
vt 0.330299 0.610193
vt 0.330299 0.610193
vt 0.304139 0.610193
vt 0.304139 0.610193
vt 0.304139 0.610193
vt 0.312859 0.610193
vt 0.321579 0.610193
vt 0.304139 0.610193
vt 0.330299 0.610193
vt 0.330299 0.610193
vt 0.304139 0.610193
vt 0.312859 0.610193
vt 0.322262 0.512467
vt 0.322262 0.512467
vt 0.313542 0.512467
vt 0.313542 0.512467
vt 0.321579 0.610193
vt 0.322262 0.512467
vt 0.322262 0.512467
vt 0.313542 0.512467
vt 0.313542 0.512467
vt 0.321579 0.610193
vt 0.321579 0.610193
vt 0.187859 0.860193
vt 0.187859 0.860193
vt 0.179139 0.860193
vt 0.205299 0.860193
vt 0.205299 0.860193
vt 0.205299 0.860193
vt 0.205299 0.860193
vt 0.179139 0.860193
vt 0.179139 0.860193
vt 0.179139 0.860193
vt 0.187859 0.860193
vt 0.196579 0.860193
vt 0.179139 0.860193
vt 0.205299 0.860193
vt 0.205299 0.860193
vt 0.179139 0.860193
vt 0.187859 0.860193
vt 0.197262 0.762467
vt 0.197262 0.762467
vt 0.188542 0.762467
vt 0.188542 0.762467
vt 0.196579 0.860193
vt 0.197262 0.762467
vt 0.197262 0.762467
vt 0.188542 0.762467
vt 0.188542 0.762467
vt 0.196579 0.860193
vt 0.196579 0.860193
vt 0.330299 0.703943
vt 0.330299 0.703943
vt 0.304139 0.703943
vt 0.304139 0.703943
vt 0.330299 0.703943
vt 0.330299 0.703943
vt 0.304139 0.703943
vt 0.304139 0.703943
vt 0.331331 0.653388
vt 0.331331 0.653388
vt 0.305171 0.653388
vt 0.305171 0.653388
vt 0.331331 0.653388
vt 0.331331 0.653388
vt 0.305171 0.653388
vt 0.305171 0.653388
vt 0.226088 0.827583
vt 0.226088 0.827583
vt 0.199928 0.827583
vt 0.199928 0.827583
vt 0.226088 0.827583
vt 0.226088 0.827583
vt 0.199928 0.827583
vt 0.199928 0.827583
vt 0.705299 0.578943
vt 0.705299 0.578943
vt 0.679139 0.578943
vt 0.679139 0.578943
vt 0.705299 0.578943
vt 0.705299 0.578943
vt 0.679139 0.578943
vt 0.679139 0.578943
vt 0.987472 0.832787
vt 0.950008 0.842825
vt 0.958157 0.843268
vt 0.988128 0.835237
vt 0.950665 0.845276
vt 0.208157 0.905768
vt 0.200665 0.907776
vt 0.200665 0.907776
vt 0.208157 0.905768
vt 0.950008 0.842826
vt 0.950665 0.845276
vt 0.987472 0.832787
vt 0.988128 0.835237
vt 0.988128 0.897737
vt 0.958157 0.905768
vt 0.958157 0.905768
vt 0.988128 0.897737
vt 0.958157 0.843268
vt 0.987472 0.895287
vt 0.987472 0.895287
vt 0.950008 0.905326
vt 0.950008 0.905325
vn -0.7071 0.0000 0.7071
vn 0.0000 0.0000 -1.0000
vn -0.7071 0.0000 -0.7071
vn 0.0000 -1.0000 0.0000
vn 0.0000 0.0000 1.0000
vn -0.0000 -0.7071 -0.7071
vn 1.0000 0.0000 0.0000
vn 0.7071 0.0000 0.7071
vn 0.7071 0.0000 -0.7071
vn -0.5774 -0.5774 0.5774
vn -0.5774 0.5774 0.5774
vn -0.5773 -0.5774 -0.5774
vn -0.5774 0.5774 -0.5774
vn 0.5773 -0.5774 0.5774
vn 0.5774 0.5774 0.5774
vn 0.5774 -0.5774 -0.5774
vn 0.5774 0.5774 -0.5774
vn 0.0000 1.0000 0.0000
vn -0.5728 0.5796 -0.5796
vn 0.0000 -0.7071 0.7071
vn 0.0000 0.7071 -0.7071
vn 0.0000 0.7071 0.7071
vn 0.7071 0.7071 0.0000
vn -0.7071 -0.7071 0.0000
vn 0.7071 -0.7071 0.0000
vn -0.7071 0.7071 0.0000
vn -1.0000 0.0000 0.0000
vn 0.5728 0.5796 0.5796
vn -0.7029 0.7113 0.0000
vn 0.0000 0.6402 -0.7682
vn 0.0000 0.6402 0.7682
vn 0.5728 0.5796 -0.5796
vn 0.7029 0.7113 0.0000
vn -0.5728 0.5796 0.5796
vn 0.0000 -0.2711 0.9625
vn 0.6138 0.0000 0.7894
vn -0.6138 0.0000 0.7894
vn 0.0000 -0.4602 0.8878
vn 0.0000 0.6138 0.7894
vn 0.1597 -0.0842 0.9836
vn 0.0000 0.2348 0.9720
vn 0.0000 -0.0857 0.9963
vn 0.3464 0.2843 0.8940
vn -0.3464 0.2843 0.8940
vn -0.1597 -0.0842 0.9836
vn 0.6315 0.0000 0.7754
vn 0.0000 -0.2700 0.9629
vn -0.6315 0.0000 0.7754
vn 0.0000 -0.2711 -0.9625
vn -0.6138 0.0000 -0.7894
vn 0.6138 0.0000 -0.7894
vn 0.0000 -0.4602 -0.8878
vn 0.0000 0.6138 -0.7894
vn -0.1597 -0.0842 -0.9836
vn -0.0000 0.2348 -0.9720
vn 0.0000 -0.0857 -0.9963
vn -0.3464 0.2843 -0.8940
vn 0.3464 0.2843 -0.8940
vn 0.1597 -0.0842 -0.9836
vn -0.6315 0.0000 -0.7754
vn 0.0000 -0.2700 -0.9629
vn 0.6315 0.0000 -0.7754
vn 0.9716 0.0000 0.2365
vn 0.8881 0.0000 -0.4596
vn 0.9668 0.1806 -0.1806
vn 0.9716 0.0000 -0.2365
vn 0.8881 0.0000 0.4596
vn 0.9668 0.1806 0.1806
vn 0.9453 -0.3261 0.0000
vn 0.9743 -0.1167 -0.1926
vn 0.9743 -0.1167 0.1926
vn 0.8881 0.4596 0.0000
vn 0.6388 0.0000 0.7694
vn -0.6388 0.0000 0.7694
vn 0.0000 -0.4843 0.8749
vn -0.0000 -0.2859 0.9583
vn 0.0000 0.6388 0.7694
vn 0.9859 -0.1174 -0.1195
vn 0.9829 0.1071 -0.1498
vn 0.9829 0.1491 0.1080
vn 0.9859 -0.0734 0.1506
vn 0.9765 -0.1793 -0.1196
vn 0.9691 0.1442 -0.2001
vn 0.9691 0.2003 0.1440
vn 0.9765 -0.1320 0.1704
vn -0.9760 -0.2153 -0.0328
vn -0.9755 -0.2174 -0.0332
vn -0.8557 -0.0833 0.5107
vn -0.8557 0.0833 -0.5107
vn -0.9275 -0.3696 -0.0564
vn -0.8557 0.5115 0.0780
vn -0.9782 -0.1169 0.1715
vn -0.9723 0.2049 0.1126
vn -0.9720 0.1594 -0.1724
vn -0.9784 -0.1641 -0.1254
vn -0.9228 0.0591 0.3807
vn -0.9228 -0.0591 -0.3807
vn -0.9285 -0.3663 0.0607
vn -0.8904 0.4490 -0.0744
vn 0.1503 -0.0882 0.9847
vn 0.1104 0.1487 0.9827
vn -0.1498 0.1089 0.9827
vn -0.1171 -0.1291 0.9847
vn 0.1824 -0.1401 0.9732
vn 0.1468 0.2002 0.9687
vn -0.1999 0.1472 0.9687
vn -0.1322 -0.1883 0.9732
vn 0.1352 0.9908 0.0000
vn 0.1351 0.9908 0.0000
vn -0.9903 0.1393 0.0000
vn 0.9903 -0.1393 0.0000
vn 0.1353 0.9908 0.0000
vn -0.1352 -0.9908 -0.0000
usemtl resource
s 1
f 4/1/1 6/2/1 3/3/1 2/4/1
f 9/5/2 11/6/2 31/7/2 26/8/2
f 9/9/3 8/10/3 12/11/3 11/12/3
f 36/13/4 25/14/4 43/15/4 41/16/4
f 41/16/4 43/15/4 28/17/4 33/18/4
f 15/19/5 17/20/5 39/21/5 34/22/5
f 26/23/6 44/24/6 43/15/6 25/14/6
f 7/25/4 25/26/4 36/27/4 1/28/4
f 24/29/7 18/30/7 14/31/7 20/32/7
f 15/33/8 14/34/8 18/35/8 17/36/8
f 35/37/5 38/38/5 4/39/5 2/40/5
f 27/41/2 30/42/2 22/43/2 19/44/2
f 46/45/2 44/24/2 26/23/2 31/46/2
f 20/47/9 19/48/9 22/49/9 24/50/9
f 1/51/10 2/4/10 3/3/10
f 4/1/11 5/52/11 6/2/11
f 7/53/12 8/10/12 9/9/12
f 10/54/13 11/12/13 12/11/13
f 13/55/14 14/34/14 15/33/14
f 16/56/15 17/36/15 18/35/15
f 19/48/16 20/47/16 21/57/16
f 22/49/17 23/58/17 24/50/17
f 37/59/18 32/60/18 10/61/18 5/62/18
f 28/63/4 21/64/4 13/65/4 33/66/4
f 31/67/19 32/68/19 47/69/19
f 44/24/6 27/70/6 28/17/6 43/15/6
f 42/71/20 35/72/20 36/13/20 41/16/20
f 25/73/6 7/53/6 9/9/6 26/74/6
f 10/54/21 32/75/21 31/76/21 11/12/21
f 27/77/6 19/48/6 21/57/6 28/78/6
f 15/33/20 34/79/20 33/80/20 13/55/20
f 35/81/20 2/4/20 1/51/20 36/82/20
f 29/83/21 23/58/21 22/49/21 30/84/21
f 39/85/22 17/36/22 16/56/22 40/86/22
f 4/1/22 38/87/22 37/88/22 5/52/22
f 30/89/2 27/70/2 44/24/2 46/45/2
f 38/90/5 35/72/5 42/71/5 45/91/5
f 16/92/18 23/93/18 29/94/18 40/95/18
f 24/50/23 23/58/23 16/56/23 18/35/23
f 7/53/24 1/51/24 3/3/24 8/10/24
f 21/57/25 20/47/25 14/34/25 13/55/25
f 6/2/26 5/52/26 10/54/26 12/11/26
f 6/96/27 12/97/27 8/98/27 3/99/27
f 34/100/20 42/71/20 41/16/20 33/18/20
f 39/101/28 40/102/28 51/103/28
f 32/104/29 37/105/29 48/106/29 47/107/29
f 45/91/5 42/71/5 34/100/5 39/108/5
f 46/45/30 31/46/30 47/109/30 50/110/30
f 49/111/18 50/112/18 52/113/18 51/114/18
f 45/91/31 39/108/31 51/114/31 52/113/31
f 50/110/18 47/109/18 48/115/18 52/116/18
f 30/89/30 46/45/30 50/112/30 49/111/30
f 38/90/31 45/91/31 52/116/31 48/115/31
f 29/117/32 30/118/32 49/119/32
f 40/120/33 29/121/33 49/122/33 51/123/33
f 37/124/34 38/125/34 48/126/34
f 58/127/35 57/128/5 60/129/5 59/130/35
f 53/131/36 54/132/36 57/128/36 58/127/36
f 56/133/37 55/134/37 59/130/37 60/129/37
f 55/134/38 53/131/38 58/127/35 59/130/35
f 54/132/39 56/133/39 60/129/39 57/128/39
f 63/135/40 69/136/41 67/137/42
f 69/136/41 68/138/42 67/137/42
f 61/139/43 70/140/43 69/136/41 63/135/40
f 65/141/38 61/139/38 63/135/40 67/137/42
f 70/140/44 62/142/44 64/143/45 69/136/41
f 62/142/38 66/144/38 68/138/42 64/143/45
f 65/141/46 67/137/46 73/145/46 71/146/46
f 69/136/41 64/143/45 68/138/42
f 72/147/38 71/146/38 73/145/47 74/148/47
f 67/137/42 68/138/42 74/148/47 73/145/47
f 68/138/48 66/144/48 72/147/48 74/148/48
f 80/149/49 79/150/2 82/151/2 81/152/49
f 75/153/50 76/154/50 79/150/50 80/149/50
f 78/155/51 77/156/51 81/152/51 82/151/51
f 77/156/52 75/153/52 80/149/49 81/152/49
f 76/154/53 78/155/53 82/151/53 79/150/53
f 85/157/54 91/158/55 89/159/56
f 91/158/55 90/160/56 89/159/56
f 83/161/57 92/162/57 91/158/55 85/157/54
f 87/163/52 83/161/52 85/157/54 89/159/56
f 92/162/58 84/164/58 86/165/59 91/158/55
f 84/164/52 88/166/52 90/160/56 86/165/59
f 87/163/60 89/159/60 95/167/60 93/168/60
f 91/158/55 86/165/59 90/160/56
f 94/169/52 93/168/52 95/167/61 96/170/61
f 89/159/56 90/160/56 96/170/61 95/167/61
f 90/160/62 88/166/62 94/169/62 96/170/62
f 112/171/7 114/172/7 108/173/63
f 101/174/64 98/175/64 102/176/65 107/177/66
f 100/178/67 106/179/67 108/173/63 105/180/68
f 105/180/68 116/181/7 115/182/7 102/176/65
f 99/183/69 97/184/69 103/185/70 104/186/71
f 110/187/7 112/171/7 108/173/63 104/186/71
f 98/175/72 100/178/72 105/180/68 102/176/65
f 114/172/7 116/181/7 105/180/68 108/173/63
f 97/184/64 101/174/64 107/177/66 103/185/70
f 113/188/7 115/189/7 116/190/7 114/191/7
f 107/177/66 102/176/65 115/182/7 113/192/7
f 109/193/7 111/194/7 112/195/7 110/196/7
f 107/177/66 113/192/7 111/197/7
f 111/197/7 113/192/7 114/172/7 112/171/7
f 109/198/7 110/187/7 104/186/71 103/185/70
f 104/186/71 108/173/63 106/179/67 99/183/67
f 107/177/66 111/197/7 109/198/7 103/185/70
f 132/199/5 134/200/5 128/201/5
f 121/202/73 118/203/73 122/204/73 127/205/73
f 120/206/74 126/207/74 128/201/74 125/208/74
f 125/208/5 136/209/5 135/210/5 122/204/5
f 119/211/75 117/212/75 123/213/76 124/214/76
f 130/215/5 132/199/5 128/201/5 124/214/76
f 118/203/77 120/206/77 125/208/77 122/204/77
f 134/200/5 136/209/5 125/208/5 128/201/5
f 117/212/73 121/202/73 127/205/73 123/213/73
f 133/216/5 135/217/5 136/218/5 134/219/5
f 127/205/5 122/204/5 135/210/5 133/220/5
f 129/221/5 131/222/5 132/223/5 130/224/5
f 127/205/5 133/220/5 131/225/5
f 131/225/5 133/220/5 134/200/5 132/199/5
f 129/226/5 130/215/5 124/214/76 123/213/76
f 124/214/74 128/201/74 126/207/74 119/211/74
f 127/205/5 131/225/5 129/226/5 123/213/76
f 142/227/78 141/228/79 144/229/80 143/230/81
f 137/231/82 138/232/83 141/228/79 142/227/78
f 140/233/84 139/234/85 143/230/81 144/229/80
f 139/234/85 137/231/82 142/227/78 143/230/81
f 138/232/83 140/233/84 144/229/80 141/228/79
f 150/235/86 149/236/27 152/237/27 151/238/87
f 145/239/88 146/240/88 149/236/88 150/235/88
f 148/241/89 147/242/89 151/238/89 152/237/89
f 147/242/90 145/239/90 150/235/86 151/238/87
f 146/240/91 148/241/91 152/237/91 149/236/91
f 158/243/92 157/244/93 160/245/94 159/246/95
f 153/247/96 154/248/96 157/244/93 158/243/92
f 156/249/97 155/250/97 159/246/95 160/245/94
f 155/250/98 153/247/98 158/243/92 159/246/95
f 154/248/99 156/249/99 160/245/94 157/244/93
f 166/251/100 165/252/101 168/253/102 167/254/103
f 161/255/104 162/256/105 165/252/101 166/251/100
f 164/257/106 163/258/107 167/254/103 168/253/102
f 163/258/107 161/255/104 166/251/100 167/254/103
f 162/256/105 164/257/106 168/253/102 165/252/101
f 176/259/2 169/260/2 177/261/2 172/262/2
f 169/260/2 171/263/2 177/261/2
f 177/264/108 171/265/109 173/266/109 178/267/108
f 169/260/110 170/268/110 173/269/110 171/263/110
f 175/270/111 176/259/111 172/262/111 174/271/111
f 172/272/112 177/273/108 178/274/108 174/275/112
f 173/269/5 170/268/5 178/276/5
f 176/277/113 175/278/113 170/279/113 169/280/113
f 170/268/5 175/270/5 174/271/5 178/276/5
