# Blender v3.4.1 OBJ File: 'Resource_Bits_Export.blend'
# www.blender.org
mtllib Containers_Box_Medium.mtl
o Containers_Box_Medium
v -0.487500 0.000000 0.337500
v -0.487500 0.037500 0.375000
v -0.525000 0.037500 0.337500
v -0.487500 0.337500 0.375000
v -0.487500 0.375000 0.337500
v -0.525000 0.337500 0.337500
v -0.487500 0.000000 -0.337500
v -0.525000 0.037500 -0.337500
v -0.487500 0.037500 -0.375000
v -0.487500 0.375000 -0.337500
v -0.487500 0.337500 -0.375000
v -0.525000 0.337500 -0.337500
v 0.487500 0.000000 0.337500
v 0.525000 0.037500 0.337500
v 0.487500 0.037500 0.375000
v 0.487500 0.375000 0.337500
v 0.487500 0.337500 0.375000
v 0.525000 0.337500 0.337500
v 0.487500 0.037500 -0.375000
v 0.525000 0.037500 -0.337500
v 0.487500 0.000000 -0.337500
v 0.487500 0.337500 -0.375000
v 0.487500 0.375000 -0.337500
v 0.525000 0.337500 -0.337500
v -0.075000 0.000000 -0.337500
v -0.075000 0.037500 -0.375000
v 0.075000 0.037500 -0.375000
v 0.075000 0.000000 -0.337500
v 0.075000 0.375000 -0.337500
v 0.075000 0.337500 -0.375000
v -0.075000 0.337500 -0.375000
v -0.075000 0.375000 -0.337500
v 0.075000 0.000000 0.337500
v 0.075000 0.037500 0.375000
v -0.075000 0.037500 0.375000
v -0.075000 0.000000 0.337500
v -0.075000 0.375000 0.337500
v -0.075000 0.337500 0.375000
v 0.075000 0.337500 0.375000
v 0.075000 0.375000 0.337500
v 0.000000 0.000000 0.337500
v 0.000000 0.037500 0.375000
v 0.000000 0.000000 -0.337500
v 0.000000 0.037500 -0.375000
v 0.000000 0.337500 0.375000
v 0.000000 0.337500 -0.375000
v -0.067411 0.382500 -0.337500
v -0.067411 0.382500 0.337500
v 0.067411 0.382500 -0.337500
v 0.000000 0.382500 -0.337500
v 0.067411 0.382500 0.337500
v 0.000000 0.382500 0.337500
v 0.442943 0.168405 0.371119
v 0.436361 0.297253 0.371119
v 0.217602 0.156895 0.371119
v 0.211020 0.285743 0.371119
v 0.439533 0.235163 0.371119
v 0.427502 0.287440 0.378881
v 0.432891 0.181932 0.378881
v 0.226222 0.171376 0.378881
v 0.220833 0.276883 0.378881
v 0.214192 0.223653 0.371119
v 0.430197 0.234686 0.378881
v 0.223528 0.224130 0.378881
v 0.325967 0.197627 0.378881
v 0.247354 0.193612 0.378881
v 0.324889 0.218729 0.378881
v 0.246276 0.214713 0.378881
v 0.379570 0.242678 0.378881
v 0.245198 0.235815 0.378881
v 0.378492 0.263780 0.378881
v 0.244120 0.256916 0.378881
v -0.521119 0.095992 0.308525
v -0.521119 0.303008 0.308525
v -0.521119 0.095992 -0.053525
v -0.521119 0.303008 -0.053525
v -0.521119 0.203250 0.308525
v -0.528881 0.288008 0.293525
v -0.528881 0.118492 0.293525
v -0.528881 0.118492 -0.038525
v -0.528881 0.288008 -0.038525
v -0.521119 0.203250 -0.053525
v -0.528881 0.203250 0.293525
v -0.528881 0.203250 -0.038525
v -0.528881 0.152395 0.182842
v -0.528881 0.152395 -0.002842
v -0.528881 0.186298 0.182842
v -0.528881 0.186298 -0.002842
v -0.528881 0.220202 0.257842
v -0.528881 0.220202 -0.002842
v -0.528881 0.254105 0.257842
v -0.528881 0.254105 -0.002842
vt 0.903865 0.870577
vt 0.900128 0.870577
vt 0.900128 0.814275
vt 0.903865 0.814275
vt 0.903865 0.777402
vt 0.903865 0.833704
vt 0.930026 0.833704
vt 0.930026 0.777402
vt 0.903865 0.814275
vt 0.900128 0.814275
vt 0.900128 0.870577
vt 0.903865 0.870577
vt 0.180026 0.790753
vt 0.180026 0.790753
vt 0.187500 0.790753
vt 0.187500 0.790753
vt 0.194974 0.790753
vt 0.194974 0.790753
vt 0.971135 0.777402
vt 0.971135 0.833704
vt 0.944974 0.833704
vt 0.944974 0.777402
vt 0.180026 0.794490
vt 0.187500 0.794490
vt 0.903865 0.757337
vt 0.930026 0.757337
vt 0.930026 0.757337
vt 0.903865 0.757337
vt 0.974872 0.820627
vt 0.974872 0.820627
vt 0.974872 0.764325
vt 0.974872 0.764325
vt 0.971135 0.814275
vt 0.974872 0.814275
vt 0.974872 0.870577
vt 0.971135 0.870577
vt 0.930026 0.777402
vt 0.930026 0.833704
vt 0.903865 0.833704
vt 0.903865 0.777402
vt 0.944974 0.777402
vt 0.944974 0.833704
vt 0.971135 0.833704
vt 0.971135 0.777402
vt 0.187500 0.861760
vt 0.180026 0.861760
vt 0.974872 0.814275
vt 0.971135 0.814275
vt 0.971135 0.870577
vt 0.974872 0.870577
vt 0.903865 0.811147
vt 0.903865 0.873705
vt 0.903865 0.811147
vt 0.903865 0.873705
vt 0.971135 0.811147
vt 0.971135 0.873705
vt 0.971135 0.811147
vt 0.971135 0.873705
vt 0.930026 0.849910
vt 0.930026 0.849910
vt 0.903865 0.849910
vt 0.903865 0.849910
vt 0.944974 0.757337
vt 0.971135 0.757337
vt 0.971135 0.757337
vt 0.944974 0.757337
vt 0.180026 0.845410
vt 0.180026 0.850712
vt 0.180026 0.850712
vt 0.194974 0.794490
vt 0.187500 0.794490
vt 0.180026 0.794490
vt 0.930026 0.811147
vt 0.930026 0.814275
vt 0.930026 0.873705
vt 0.930026 0.870577
vt 0.944974 0.814275
vt 0.944974 0.811147
vt 0.944974 0.814275
vt 0.944974 0.811147
vt 0.930026 0.814275
vt 0.930026 0.811147
vt 0.944974 0.873705
vt 0.944974 0.870577
vt 0.944974 0.870577
vt 0.944974 0.873705
vt 0.930026 0.870577
vt 0.930026 0.873705
vt 0.194974 0.861760
vt 0.180026 0.861760
vt 0.187500 0.861760
vt 0.971135 0.849910
vt 0.971135 0.849910
vt 0.944974 0.849910
vt 0.944974 0.849910
vt 0.900128 0.820627
vt 0.900128 0.820627
vt 0.900128 0.764325
vt 0.900128 0.764325
vt 0.194974 0.794490
vt 0.194974 0.845410
vt 0.194974 0.850712
vt 0.194974 0.850712
vt 0.180026 0.841628
vt 0.180026 0.841628
vt 0.180026 0.841628
vt 0.180026 0.841628
vt 0.194974 0.861760
vt 0.180026 0.865497
vt 0.187500 0.865497
vt 0.194974 0.865497
vt 0.187500 0.834247
vt 0.187500 0.834247
vt 0.194974 0.865497
vt 0.180026 0.865497
vt 0.187500 0.865497
vt 0.194974 0.850712
vt 0.194974 0.845410
vt 0.194974 0.850712
vt 0.194974 0.841628
vt 0.194974 0.841628
vt 0.194974 0.841628
vt 0.194974 0.841628
vt 0.180026 0.850712
vt 0.180026 0.845410
vt 0.180026 0.850712
vt 0.187859 0.860193
vt 0.187859 0.860193
vt 0.179139 0.860193
vt 0.205299 0.860193
vt 0.205299 0.860193
vt 0.205299 0.860193
vt 0.205299 0.860193
vt 0.179139 0.860193
vt 0.179139 0.860193
vt 0.179139 0.860193
vt 0.187859 0.860193
vt 0.196579 0.860193
vt 0.179139 0.860193
vt 0.205299 0.860193
vt 0.205299 0.860193
vt 0.179139 0.860193
vt 0.187859 0.860193
vt 0.197262 0.762467
vt 0.197262 0.762467
vt 0.188542 0.762467
vt 0.188542 0.762467
vt 0.196579 0.860193
vt 0.197262 0.762467
vt 0.197262 0.762467
vt 0.188542 0.762467
vt 0.188542 0.762467
vt 0.196579 0.860193
vt 0.196579 0.860193
vt 0.312859 0.610193
vt 0.312859 0.610193
vt 0.304139 0.610193
vt 0.330299 0.610193
vt 0.330299 0.610193
vt 0.330299 0.610193
vt 0.330299 0.610193
vt 0.304139 0.610193
vt 0.304139 0.610193
vt 0.304139 0.610193
vt 0.312859 0.610193
vt 0.321579 0.610193
vt 0.304139 0.610193
vt 0.330299 0.610193
vt 0.330299 0.610193
vt 0.304139 0.610193
vt 0.312859 0.610193
vt 0.322262 0.512467
vt 0.322262 0.512467
vt 0.313542 0.512467
vt 0.313542 0.512467
vt 0.321579 0.610193
vt 0.322262 0.512467
vt 0.322262 0.512467
vt 0.313542 0.512467
vt 0.313542 0.512467
vt 0.321579 0.610193
vt 0.321579 0.610193
vn -0.7071 0.0000 0.7071
vn 0.0000 0.0000 -1.0000
vn -0.7071 0.0000 -0.7071
vn 0.0000 -1.0000 0.0000
vn 0.0000 0.0000 1.0000
vn -0.0000 -0.7071 -0.7071
vn 1.0000 0.0000 0.0000
vn 0.7071 0.0000 0.7071
vn 0.7071 0.0000 -0.7071
vn -0.5773 -0.5774 0.5774
vn -0.5774 0.5774 0.5774
vn -0.5773 -0.5774 -0.5774
vn -0.5774 0.5774 -0.5774
vn 0.5773 -0.5774 0.5774
vn 0.5774 0.5774 0.5774
vn 0.5773 -0.5774 -0.5774
vn 0.5774 0.5774 -0.5774
vn 0.0000 1.0000 0.0000
vn -0.5728 0.5796 -0.5796
vn 0.0000 -0.7071 0.7071
vn 0.0000 0.7071 -0.7071
vn 0.0000 0.7071 0.7071
vn 0.7071 0.7071 0.0000
vn -0.7071 -0.7071 0.0000
vn 0.7071 -0.7071 0.0000
vn -0.7071 0.7071 0.0000
vn -1.0000 0.0000 0.0000
vn 0.5728 0.5796 0.5796
vn -0.7029 0.7113 0.0000
vn 0.0000 0.6402 -0.7682
vn 0.0000 0.6402 0.7682
vn 0.5728 0.5796 -0.5796
vn 0.7029 0.7113 0.0000
vn -0.5728 0.5796 0.5796
vn 0.6380 0.0326 0.7694
vn -0.6380 -0.0326 0.7694
vn 0.0247 -0.4837 0.8749
vn 0.0146 -0.2855 0.9583
vn -0.0326 0.6380 0.7694
vn -0.9716 0.0000 -0.2365
vn -0.8881 0.0000 0.4596
vn -0.9668 0.1806 0.1806
vn -0.9716 0.0000 0.2365
vn -0.8881 0.0000 -0.4596
vn -0.9668 0.1806 -0.1806
vn -0.9453 -0.3261 0.0000
vn -0.9743 -0.1167 0.1926
vn -0.9743 -0.1167 -0.1926
vn -0.8881 0.4596 0.0000
usemtl resource
s 1
f 4/1/1 6/2/1 3/3/1 2/4/1
f 9/5/2 11/6/2 31/7/2 26/8/2
f 9/9/3 8/10/3 12/11/3 11/12/3
f 36/13/4 25/14/4 43/15/4 41/16/4
f 41/16/4 43/15/4 28/17/4 33/18/4
f 15/19/5 17/20/5 39/21/5 34/22/5
f 26/23/6 44/24/6 43/15/6 25/14/6
f 7/25/4 25/26/4 36/27/4 1/28/4
f 24/29/7 18/30/7 14/31/7 20/32/7
f 15/33/8 14/34/8 18/35/8 17/36/8
f 35/37/5 38/38/5 4/39/5 2/40/5
f 27/41/2 30/42/2 22/43/2 19/44/2
f 46/45/2 44/24/2 26/23/2 31/46/2
f 20/47/9 19/48/9 22/49/9 24/50/9
f 1/51/10 2/4/10 3/3/10
f 4/1/11 5/52/11 6/2/11
f 7/53/12 8/10/12 9/9/12
f 10/54/13 11/12/13 12/11/13
f 13/55/14 14/34/14 15/33/14
f 16/56/15 17/36/15 18/35/15
f 19/48/16 20/47/16 21/57/16
f 22/49/17 23/58/17 24/50/17
f 37/59/18 32/60/18 10/61/18 5/62/18
f 28/63/4 21/64/4 13/65/4 33/66/4
f 31/67/19 32/68/19 47/69/19
f 44/24/6 27/70/6 28/17/6 43/15/6
f 42/71/20 35/72/20 36/13/20 41/16/20
f 25/73/6 7/53/6 9/9/6 26/74/6
f 10/54/21 32/75/21 31/76/21 11/12/21
f 27/77/6 19/48/6 21/57/6 28/78/6
f 15/33/20 34/79/20 33/80/20 13/55/20
f 35/81/20 2/4/20 1/51/20 36/82/20
f 29/83/21 23/58/21 22/49/21 30/84/21
f 39/85/22 17/36/22 16/56/22 40/86/22
f 4/1/22 38/87/22 37/88/22 5/52/22
f 30/89/2 27/70/2 44/24/2 46/45/2
f 38/90/5 35/72/5 42/71/5 45/91/5
f 16/92/18 23/93/18 29/94/18 40/95/18
f 24/50/23 23/58/23 16/56/23 18/35/23
f 7/53/24 1/51/24 3/3/24 8/10/24
f 21/57/25 20/47/25 14/34/25 13/55/25
f 6/2/26 5/52/26 10/54/26 12/11/26
f 6/96/27 12/97/27 8/98/27 3/99/27
f 34/100/20 42/71/20 41/16/20 33/18/20
f 39/101/28 40/102/28 51/103/28
f 32/104/29 37/105/29 48/106/29 47/107/29
f 45/91/5 42/71/5 34/100/5 39/108/5
f 46/45/30 31/46/30 47/109/30 50/110/30
f 49/111/18 50/112/18 52/113/18 51/114/18
f 45/91/31 39/108/31 51/114/31 52/113/31
f 50/110/18 47/109/18 48/115/18 52/116/18
f 30/89/30 46/45/30 50/112/30 49/111/30
f 38/90/31 45/91/31 52/116/31 48/115/31
f 29/117/32 30/118/32 49/119/32
f 40/120/33 29/121/33 49/122/33 51/123/33
f 37/124/34 38/125/34 48/126/34
f 68/127/5 70/128/5 64/129/5
f 57/130/35 54/131/35 58/132/35 63/133/35
f 56/134/36 62/135/36 64/129/36 61/136/36
f 61/136/5 72/137/5 71/138/5 58/132/5
f 55/139/37 53/140/37 59/141/38 60/142/38
f 66/143/5 68/127/5 64/129/5 60/142/38
f 54/131/39 56/134/39 61/136/39 58/132/39
f 70/128/5 72/137/5 61/136/5 64/129/5
f 53/140/35 57/130/35 63/133/35 59/141/35
f 69/144/5 71/145/5 72/146/5 70/147/5
f 63/133/5 58/132/5 71/138/5 69/148/5
f 65/149/5 67/150/5 68/151/5 66/152/5
f 63/133/5 69/148/5 67/153/5
f 67/153/5 69/148/5 70/128/5 68/127/5
f 65/154/5 66/143/5 60/142/38 59/141/38
f 60/142/36 64/129/36 62/135/36 55/139/36
f 63/133/5 67/153/5 65/154/5 59/141/38
f 88/155/27 90/156/27 84/157/40
f 77/158/41 74/159/41 78/160/42 83/161/43
f 76/162/44 82/163/44 84/157/40 81/164/45
f 81/164/45 92/165/27 91/166/27 78/160/42
f 75/167/46 73/168/46 79/169/47 80/170/48
f 86/171/27 88/155/27 84/157/40 80/170/48
f 74/159/49 76/162/49 81/164/45 78/160/42
f 90/156/27 92/165/27 81/164/45 84/157/40
f 73/168/41 77/158/41 83/161/43 79/169/47
f 89/172/27 91/173/27 92/174/27 90/175/27
f 83/161/43 78/160/42 91/166/27 89/176/27
f 85/177/27 87/178/27 88/179/27 86/180/27
f 83/161/43 89/176/27 87/181/27
f 87/181/27 89/176/27 90/156/27 88/155/27
f 85/182/27 86/171/27 80/170/48 79/169/47
f 80/170/48 84/157/40 82/163/44 75/167/44
f 83/161/43 87/181/27 85/182/27 79/169/47
