# Blender v3.4.1 OBJ File: 'Resource_Bits_Export.blend'
# www.blender.org
mtllib Food_Apple_Green.mtl
o Food_Apple_Green
v -0.093519 -0.158878 0.101746
v -0.109926 -0.096584 0.159947
v -0.156312 -0.096447 0.119233
v -0.127614 0.089208 0.186387
v -0.112433 0.166306 0.155703
v -0.106371 0.187355 0.114031
v -0.182920 0.089446 0.137588
v -0.151361 0.166613 0.121801
v -0.093522 -0.158878 -0.101744
v -0.156312 -0.096441 -0.119238
v -0.109921 -0.096588 -0.159948
v -0.106367 0.187355 -0.114034
v -0.127623 0.089203 -0.186382
v -0.112438 0.166303 -0.155700
v -0.182926 0.089454 -0.137580
v -0.151364 0.166617 -0.121796
v 0.093522 -0.158878 0.101744
v 0.156312 -0.096441 0.119238
v 0.109921 -0.096588 0.159948
v 0.106367 0.187355 0.114034
v 0.127623 0.089203 0.186382
v 0.112438 0.166303 0.155700
v 0.182926 0.089454 0.137580
v 0.151364 0.166616 0.121796
v 0.093519 -0.158878 -0.101746
v 0.109926 -0.096584 -0.159947
v 0.156312 -0.096447 -0.119233
v 0.106371 0.187355 -0.114031
v 0.182919 0.089446 -0.137588
v 0.151361 0.166613 -0.121801
v 0.127614 0.089208 -0.186387
v 0.112433 0.166306 -0.155703
v -0.000000 0.123152 -0.000000
v -0.130593 -0.004148 0.192972
v -0.189782 -0.003906 0.140661
v -0.130594 -0.004154 -0.192969
v -0.189786 -0.003896 -0.140660
v 0.189782 -0.003906 -0.140661
v 0.130592 -0.004148 -0.192972
v 0.130594 -0.004154 0.192969
v 0.189785 -0.003896 0.140660
v -0.000003 -0.169270 -0.104072
v 0.000004 -0.095280 -0.185833
v 0.000004 0.183386 -0.113278
v -0.000003 0.162414 -0.173379
v -0.000005 0.087589 -0.214662
v 0.000003 -0.169270 0.104072
v -0.000004 -0.095280 0.185833
v -0.000004 0.183386 0.113278
v 0.000003 0.162414 0.173379
v 0.000005 0.087589 0.214662
v -0.000000 -0.002986 -0.225000
v 0.000000 -0.002986 0.225000
v -0.096252 -0.169429 0.000002
v -0.184576 -0.095280 -0.000004
v -0.109207 0.184367 -0.000004
v -0.171947 0.163457 0.000003
v -0.214384 0.088089 0.000005
v 0.096252 -0.169429 -0.000002
v 0.184576 -0.095280 0.000004
v 0.109207 0.184367 0.000004
v 0.171947 0.163457 -0.000003
v 0.214384 0.088089 -0.000005
v -0.225000 -0.002856 -0.000000
v 0.225000 -0.002856 0.000000
v -0.000000 -0.180846 0.000000
v 0.016731 0.134520 -0.013110
v 0.016731 0.134520 0.013110
v -0.010220 0.132190 0.013110
v -0.010220 0.132190 -0.013110
v -0.021683 0.283904 -0.013276
v -0.007016 0.263604 -0.016632
v -0.021683 0.283904 0.013276
v -0.007016 0.263604 0.016632
v -0.046543 0.272349 0.013276
v -0.039316 0.252197 0.016647
v -0.046543 0.272349 -0.013276
v -0.039316 0.252197 -0.016647
v 0.013797 0.225691 -0.016108
v 0.021076 0.176469 -0.014669
v -0.020559 0.222798 -0.016165
v -0.008801 0.174010 -0.014717
v 0.021076 0.176469 0.014669
v 0.013797 0.225691 0.016108
v -0.020559 0.222798 0.016165
v -0.008801 0.174010 0.014717
v 0.180884 0.309194 -0.094136
v 0.018431 0.186440 0.012409
v 0.165600 0.288515 -0.110423
v 0.022329 0.180256 -0.016459
v 0.065803 0.214987 -0.039552
v 0.124586 0.259399 -0.078120
v 0.095508 0.237971 -0.057482
v 0.155856 0.237091 -0.056897
v 0.097325 0.192786 -0.018428
v 0.135915 0.209346 -0.030258
v 0.099041 0.295464 -0.075785
v 0.040380 0.251353 -0.037345
v 0.062708 0.284544 -0.054559
v 0.134695 0.277793 -0.053757
v 0.069150 0.228277 -0.010737
v 0.102504 0.254456 -0.029797
v 0.105308 0.202811 0.013503
v 0.170551 0.252193 -0.029385
v 0.148558 0.221823 0.001246
v 0.039997 0.270044 -0.008205
v 0.105396 0.319154 -0.051068
v 0.065119 0.307557 -0.026462
v -0.073362 0.183868 0.078734
v 0.073362 0.183868 -0.078734
v -0.073359 0.183868 -0.078736
v 0.073359 0.183868 0.078736
vt 0.538411 0.179827
vt 0.538411 0.190292
vt 0.560071 0.197723
vt 0.560047 0.183357
vt 0.538411 0.060942
vt 0.537009 0.088727
vt 0.531275 0.088666
vt 0.529696 0.125617
vt 0.525277 0.125617
vt 0.527082 0.087852
vt 0.536587 0.125617
vt 0.560071 0.183357
vt 0.538411 0.179827
vt 0.536993 0.162569
vt 0.560087 0.163383
vt 0.583531 0.125617
vt 0.583109 0.088727
vt 0.560087 0.087852
vt 0.560059 0.125617
vt 0.537009 0.162507
vt 0.560031 0.163383
vt 0.536587 0.125617
vt 0.538411 0.060942
vt 0.537001 0.053512
vt 0.531253 0.088727
vt 0.536993 0.088666
vt 0.560047 0.053512
vt 0.531253 0.162507
vt 0.527082 0.163383
vt 0.558809 0.066674
vt 0.560047 0.197723
vt 0.571385 0.197723
vt 0.538411 0.190292
vt 0.560059 0.043039
vt 0.581707 0.060942
vt 0.583117 0.053512
vt 0.588865 0.162507
vt 0.593036 0.163383
vt 0.594841 0.125617
vt 0.590423 0.125617
vt 0.583125 0.088666
vt 0.560031 0.087852
vt 0.560071 0.053512
vt 0.581707 0.060942
vt 0.588843 0.088666
vt 0.593036 0.087852
vt 0.534231 0.179827
vt 0.529696 0.125617
vt 0.588843 0.162569
vt 0.590423 0.125617
vt 0.534231 0.179827
vt 0.531275 0.162569
vt 0.531264 0.183357
vt 0.581707 0.190292
vt 0.585887 0.179827
vt 0.588854 0.183357
vt 0.583117 0.197723
vt 0.537001 0.197723
vt 0.588865 0.088727
vt 0.583531 0.125617
vt 0.560059 0.125617
vt 0.581707 0.179827
vt 0.583109 0.162507
vt 0.583125 0.162569
vt 0.581707 0.179827
vt 0.585887 0.179827
vt 0.581707 0.190292
vt 0.571398 0.197723
vt 0.548733 0.197723
vt 0.548721 0.197723
vt 0.795174 0.804735
vt 0.795174 0.804735
vt 0.795024 0.802637
vt 0.795024 0.802637
vt 0.794795 0.806499
vt 0.791543 0.806499
vt 0.791543 0.806499
vt 0.794795 0.806499
vt 0.791298 0.802862
vt 0.791526 0.799665
vt 0.794807 0.799590
vt 0.791160 0.804797
vt 0.794633 0.797147
vt 0.794633 0.797147
vt 0.791705 0.797147
vt 0.791705 0.797147
vt 0.791526 0.799665
vt 0.794807 0.799590
vt 0.791160 0.804797
vt 0.791298 0.802862
vt 0.455130 0.131849
vt 0.440284 0.120855
vt 0.440284 0.094592
vt 0.440284 0.095156
vt 0.425566 0.121276
vt 0.440284 0.121197
vt 0.440284 0.183355
vt 0.440284 0.157386
vt 0.425621 0.157333
vt 0.440284 0.058697
vt 0.454983 0.095718
vt 0.440284 0.032656
vt 0.440284 0.094886
vt 0.440284 0.120855
vt 0.454958 0.131722
vt 0.440284 0.095156
vt 0.440284 0.121503
vt 0.425386 0.121596
vt 0.440284 0.032656
vt 0.455155 0.096456
vt 0.440284 0.059003
vt 0.440284 0.157092
vt 0.440284 0.183355
vt 0.425454 0.157036
vt 0.440284 0.076756
vt 0.462026 0.131445
vt 0.418538 0.139256
vt 0.418563 0.139256
vt 0.462043 0.131487
vt 0.440284 0.076756
vt 0.440284 0.139256
vt 0.440284 0.139256
vn -0.2959 0.6860 -0.6647
vn -0.1511 0.9729 -0.1751
vn -0.0000 1.0000 -0.0100
vn -0.0000 0.7091 -0.7051
vn -0.3569 -0.8569 0.3718
vn -0.3712 -0.5448 0.7520
vn -0.7200 -0.5576 0.4132
vn -0.8467 -0.1535 0.5095
vn -0.9893 -0.1456 0.0000
vn -0.8219 -0.5696 -0.0000
vn -0.4554 -0.1520 0.8772
vn 0.0000 0.7091 0.7051
vn -0.2959 0.6860 0.6647
vn -0.4336 0.2541 0.8645
vn 0.0000 0.2652 0.9642
vn 0.4554 -0.1520 -0.8772
vn 0.3712 -0.5448 -0.7520
vn 0.0000 -0.5521 -0.8338
vn -0.0000 -0.1429 -0.9897
vn -0.4337 0.2540 -0.8645
vn -0.0000 0.2652 -0.9642
vn -0.4554 -0.1520 -0.8772
vn -0.3569 -0.8569 -0.3718
vn -0.4045 -0.9145 0.0000
vn -0.7200 -0.5576 -0.4132
vn -0.3712 -0.5448 -0.7520
vn -0.0000 -0.9090 -0.4168
vn -0.8320 0.2599 0.4900
vn -0.9624 0.2715 0.0000
vn -0.0000 1.0000 0.0000
vn 0.0000 1.0000 0.0100
vn -0.1768 0.9700 -0.1668
vn -0.1512 0.9729 0.1750
vn 0.0000 -1.0000 -0.0000
vn 0.3569 -0.8569 -0.3718
vn 0.4045 -0.9145 -0.0000
vn 0.8320 0.2599 -0.4900
vn 0.9624 0.2715 -0.0000
vn 0.9893 -0.1456 -0.0000
vn 0.8467 -0.1535 -0.5095
vn 0.3712 -0.5448 0.7520
vn -0.0000 -0.5521 0.8338
vn 0.0000 -0.9090 0.4168
vn 0.3569 -0.8569 0.3718
vn 0.7200 -0.5576 -0.4132
vn 0.8219 -0.5696 0.0000
vn -0.6326 0.6922 0.3474
vn -0.8467 -0.1535 -0.5095
vn 0.8320 0.2600 0.4900
vn 0.8467 -0.1535 0.5095
vn -0.6326 0.6922 -0.3474
vn -0.8320 0.2600 -0.4900
vn -0.6938 0.7201 0.0000
vn 0.1511 0.9729 0.1751
vn 0.6326 0.6922 0.3474
vn 0.6938 0.7201 -0.0000
vn -0.0089 1.0000 -0.0000
vn 0.0089 1.0000 0.0000
vn 0.7200 -0.5576 0.4132
vn 0.4554 -0.1520 0.8772
vn 0.0000 -0.1429 0.9897
vn 0.2959 0.6860 0.6647
vn 0.4337 0.2540 0.8645
vn 0.4336 0.2541 -0.8645
vn 0.2959 0.6860 -0.6647
vn 0.6326 0.6922 -0.3474
vn 0.1512 0.9729 -0.1750
vn -0.1768 0.9700 0.1668
vn 0.1768 0.9700 0.1668
vn 0.1768 0.9700 -0.1668
vn 0.8465 0.5323 0.0000
vn 0.9471 0.3210 0.0000
vn -0.4215 0.9068 0.0000
vn 0.0039 -0.0221 0.9997
vn 0.0039 -0.0192 0.9998
vn 0.0040 -0.0333 0.9994
vn 0.0040 -0.0332 0.9994
vn -0.0209 0.0505 0.9985
vn -0.0275 0.0674 0.9973
vn 0.0861 -0.9963 -0.0000
vn -0.9994 0.0339 0.0000
vn -0.9946 -0.1040 0.0000
vn 0.9997 0.0244 0.0000
vn 0.9947 -0.1030 0.0000
vn 0.0040 -0.0380 0.9993
vn 0.8106 0.5857 0.0000
vn -0.0541 0.1353 0.9893
vn -0.8954 -0.4453 0.0000
vn -0.9413 -0.3376 0.0000
vn 0.0040 -0.0332 -0.9994
vn 0.0040 -0.0380 -0.9993
vn 0.0040 -0.0333 -0.9994
vn -0.9193 -0.3935 0.0000
vn 0.0039 -0.0192 -0.9998
vn 0.0039 -0.0221 -0.9997
vn -0.0209 0.0505 -0.9985
vn -0.0275 0.0674 -0.9973
vn 0.0382 0.7165 0.6965
vn 0.3053 0.5503 0.7772
vn 0.2764 0.5302 0.8016
vn -0.1375 -0.4233 -0.8955
vn -0.3681 -0.2023 -0.9075
vn -0.1555 -0.4394 -0.8847
vn -0.2665 -0.5229 -0.8097
vn -0.2480 -0.5098 -0.8238
vn -0.4430 -0.2582 -0.8585
vn 0.0595 -0.6425 -0.7640
vn -0.0150 -0.7001 -0.7139
vn 0.8266 -0.5428 -0.1486
vn 0.8346 -0.5259 -0.1638
vn 0.8696 -0.4285 -0.2452
vn 0.0963 0.3899 0.9158
vn 0.1261 0.4158 0.9007
vn 0.3443 0.1846 0.9205
vn 0.1718 -0.9547 0.2430
vn 0.2936 -0.9319 0.2131
vn 0.3237 -0.9237 0.2049
vn -0.0823 0.6233 0.7776
vn -0.9658 0.2047 -0.1590
vn -0.9121 0.3375 -0.2327
vn -0.9257 0.3095 -0.2173
vn -0.0541 0.1353 -0.9893
vn 0.4654 0.2750 0.8413
vn 0.2022 0.4755 0.8561
vn -0.0221 0.6726 0.7397
vn -0.7077 0.5734 -0.4128
vn -0.7021 0.5775 -0.4167
vn -0.4057 0.7072 -0.5791
vn -0.3826 0.7107 -0.5904
vn 0.6280 -0.7765 0.0519
vn 0.6222 -0.7808 0.0560
vn -0.2021 -0.4755 -0.8562
vn 0.0222 -0.6724 -0.7399
vn -0.4062 -0.2305 -0.8842
vn -0.2646 0.7210 -0.6405
vn 0.4064 0.2306 0.8841
usemtl resource
s 1
f 14/1/1 12/2/2 44/3/3 45/4/4
f 1/5/5 2/6/6 3/7/7
f 35/8/8 64/9/9 55/10/10 3/7/7
f 2/6/6 34/11/11 35/8/8 3/7/7
f 50/12/12 5/13/13 4/14/14 51/15/15
f 39/16/16 26/17/17 43/18/18 52/19/19
f 13/20/20 46/21/21 52/19/19 36/22/22
f 9/23/23 54/24/24 55/10/10 10/25/25
f 11/26/26 43/18/18 42/27/27 9/23/23
f 7/28/28 58/29/29 64/9/9 35/8/8
f 1/5/5 3/7/7 55/10/10 54/24/24
f 33/30/30 49/31/31 112/32/32
f 6/33/33 5/13/13 50/12/12 49/31/31
f 66/34/34 42/27/27 25/35/35 59/36/36
f 13/20/20 14/1/1 45/4/4 46/21/21
f 29/37/37 63/38/38 65/39/39 38/40/40
f 36/22/22 52/19/19 43/18/18 11/26/26
f 34/11/11 4/14/14 7/28/28 35/8/8
f 19/41/41 48/42/42 47/43/43 17/44/44
f 27/45/45 38/40/40 65/39/39 60/46/46
f 7/28/28 4/14/14 5/13/13 8/47/47
f 5/13/13 6/33/33 8/47/47
f 27/45/45 60/46/46 59/36/36 25/35/35
f 2/6/6 1/5/5 47/43/43 48/42/42
f 9/23/23 10/25/25 11/26/26
f 36/22/22 11/26/26 10/25/25 37/48/48
f 37/48/48 10/25/25 55/10/10 64/9/9
f 63/38/38 23/49/49 41/50/50 65/39/39
f 16/51/51 15/52/52 58/29/29 57/53/53
f 66/34/34 59/36/36 17/44/44 47/43/43
f 15/52/52 37/48/48 64/9/9 58/29/29
f 13/20/20 36/22/22 37/48/48 15/52/52
f 20/54/54 24/55/55 62/56/56 61/57/57
f 13/20/20 15/52/52 16/51/51 14/1/1
f 12/2/2 16/51/51 57/53/53 56/58/58
f 12/2/2 14/1/1 16/51/51
f 17/44/44 18/59/59 19/41/41
f 54/24/24 9/23/23 42/27/27 66/34/34
f 40/60/60 19/41/41 18/59/59 41/50/50
f 40/60/60 53/61/61 48/42/42 19/41/41
f 18/59/59 60/46/46 65/39/39 41/50/50
f 20/54/54 49/31/31 50/12/12 22/62/62
f 21/63/63 40/60/60 41/50/50 23/49/49
f 24/55/55 23/49/49 63/38/38 62/56/56
f 21/63/63 23/49/49 24/55/55 22/62/62
f 47/43/43 1/5/5 54/24/24 66/34/34
f 22/62/62 50/12/12 51/15/15 21/63/63
f 20/54/54 22/62/62 24/55/55
f 26/17/17 25/35/35 42/27/27 43/18/18
f 25/35/35 26/17/17 27/45/45
f 38/40/40 27/45/45 26/17/17 39/16/16
f 40/60/60 21/63/63 51/15/15 53/61/61
f 31/64/64 39/16/16 52/19/19 46/21/21
f 29/37/37 38/40/40 39/16/16 31/64/64
f 31/64/64 46/21/21 45/4/4 32/65/65
f 29/37/37 31/64/64 32/65/65 30/66/66
f 32/65/65 45/4/4 44/3/3 28/67/67
f 53/61/61 34/11/11 2/6/6 48/42/42
f 28/67/67 30/66/66 32/65/65
f 34/11/11 53/61/61 51/15/15 4/14/14
f 8/47/47 57/53/53 58/29/29 7/28/28
f 18/59/59 17/44/44 59/36/36 60/46/46
f 33/30/30 61/57/57 110/68/68
f 30/66/66 62/56/56 63/38/38 29/37/37
f 33/30/30 44/3/3 111/69/69
f 28/67/67 61/57/57 62/56/56 30/66/66
f 6/33/33 56/58/58 57/53/53 8/47/47
f 33/30/30 56/58/58 109/70/70
f 28/67/67 44/3/3 110/68/68
f 20/54/54 61/57/57 112/32/32
f 6/33/33 49/31/31 109/70/70
f 12/2/2 56/58/58 111/69/69
f 72/71/71 74/72/71 84/73/72 79/74/72
f 71/75/73 77/76/73 75/77/73 73/78/73
f 84/73/74 85/79/75 86/80/76 83/81/77
f 84/73/74 74/72/78 76/82/79 85/79/75
f 67/83/80 68/84/80 69/85/80 70/86/80
f 69/85/81 86/80/82 82/87/82 70/86/81
f 80/88/83 83/81/83 68/84/84 67/83/84
f 86/80/76 69/85/85 68/84/85 83/81/77
f 74/72/71 72/71/71 71/75/86 73/78/86
f 76/82/79 74/72/78 73/78/87 75/77/87
f 78/89/88 76/82/88 75/77/89 77/76/89
f 80/88/90 67/83/91 70/86/91 82/87/92
f 85/79/93 76/82/88 78/89/88 81/90/93
f 85/79/93 81/90/93 82/87/82 86/80/82
f 81/90/94 79/74/95 80/88/90 82/87/92
f 79/74/72 84/73/72 83/81/83 80/88/83
f 72/71/96 79/74/95 81/90/94 78/89/97
f 104/91/98 87/92/99 100/93/100
f 90/94/101 98/95/102 91/96/103
f 89/97/104 92/98/105 97/99/106
f 91/100/103 95/101/107 90/102/101
f 92/103/105 89/104/104 94/105/108
f 104/91/109 94/105/110 89/104/111 87/92/111
f 88/106/112 101/107/113 106/108/114
f 88/109/115 90/102/115 95/101/116 103/110/117
f 88/109/112 103/110/118 101/111/113
f 90/94/119 88/106/119 106/108/120 98/95/121
f 72/71/96 78/89/97 77/76/122 71/75/122
f 100/112/100 87/113/99 107/114/123
f 104/91/98 100/93/100 102/115/124 105/116/125
f 105/116/125 102/115/124 101/111/113 103/110/118
f 99/117/126 108/118/127 107/114/128 97/99/129
f 94/105/110 104/91/109 105/116/130 96/119/131
f 95/101/107 91/100/103 93/120/132 96/119/133
f 96/119/133 93/120/132 92/103/105 94/105/108
f 97/99/106 92/98/105 93/121/132 99/117/134
f 99/117/134 93/121/132 91/96/103 98/95/102
f 96/119/131 105/116/130 103/110/117 95/101/116
f 107/114/128 87/113/135 89/97/135 97/99/129
f 100/112/100 107/114/123 108/118/136 102/122/124
f 102/122/124 108/118/136 106/108/114 101/107/113
f 49/31/31 33/30/30 109/70/70
f 56/58/58 6/33/33 109/70/70
f 44/3/3 33/30/30 110/68/68
f 61/57/57 28/67/67 110/68/68
f 56/58/58 33/30/30 111/69/69
f 44/3/3 12/2/2 111/69/69
f 61/57/57 33/30/30 112/32/32
f 49/31/31 20/54/54 112/32/32
f 98/95/121 106/108/120 108/118/127 99/117/126
