# Blender v3.4.1 OBJ File: 'Resource_Bits_Export.blend'
# www.blender.org
mtllib Food_Berry_Orange.mtl
o Food_Berry_Orange
v 0.000991 -0.123041 0.000000
v 0.089477 -0.054309 0.064688
v -0.033564 -0.055300 0.104668
v -0.109608 -0.055912 -0.000000
v -0.033564 -0.055300 -0.104668
v 0.089477 -0.054309 -0.064688
v 0.033564 0.055300 0.104668
v -0.089477 0.054309 0.064688
v -0.089477 0.054309 -0.064688
v 0.033564 0.055300 -0.104668
v 0.109608 0.055912 0.000000
v -0.019146 -0.104826 0.061522
v 0.053175 -0.104244 0.038022
v 0.032865 -0.064427 0.099545
v 0.105186 -0.063844 0.000000
v 0.053175 -0.104244 -0.038022
v -0.063843 -0.105186 -0.000000
v -0.084154 -0.065369 0.061522
v -0.019146 -0.104826 -0.061522
v -0.084154 -0.065369 -0.061522
v 0.032865 -0.064427 -0.099545
v 0.117019 0.000942 0.038022
v 0.117019 0.000942 -0.038022
v -0.000000 -0.000000 0.123045
v 0.072322 0.000582 0.099545
v -0.117019 -0.000942 0.038022
v -0.072322 -0.000582 0.099545
v -0.072322 -0.000582 -0.099545
v -0.117019 -0.000942 -0.038022
v 0.072322 0.000582 -0.099545
v 0.000000 0.000000 -0.123045
v 0.084154 0.065369 0.061522
v -0.032865 0.064427 0.099545
v -0.105186 0.063844 -0.000000
v -0.032865 0.064427 -0.099545
v 0.084154 0.065369 -0.061522
v 0.020115 0.090152 0.062589
v 0.065563 0.090695 -0.000000
v -0.053485 0.089268 0.038704
v -0.053485 0.089268 -0.038704
v 0.020115 0.090152 -0.062589
v 0.042168 0.115252 -0.000000
v -0.000918 0.115528 -0.000000
v 0.012482 0.114743 0.040910
v -0.035646 0.113912 0.025317
v -0.035646 0.113912 -0.025317
v 0.012482 0.114743 -0.040911
v -0.083485 0.117802 -0.000000
v -0.075797 0.131190 -0.000000
v -0.025780 0.119321 -0.078817
v -0.023892 0.132575 -0.070954
v 0.066238 0.121691 -0.048260
v 0.059003 0.134743 -0.043485
v 0.066237 0.121692 0.048260
v 0.059003 0.134744 0.043484
v -0.025780 0.119322 0.078816
v -0.023892 0.132575 0.070954
vt 0.181650 0.554560
vt 0.198262 0.560312
vt 0.176685 0.568880
vt 0.211909 0.588251
vt 0.216048 0.580116
vt 0.163350 0.574175
vt 0.176685 0.568880
vt 0.198262 0.560312
vt 0.223249 0.620726
vt 0.175200 0.602827
vt 0.194471 0.588683
vt 0.188336 0.634589
vt 0.152512 0.611836
vt 0.159558 0.602546
vt 0.153424 0.648452
vt 0.175200 0.602827
vt 0.159558 0.602546
vt 0.166759 0.643156
vt 0.211909 0.588251
vt 0.194471 0.588683
vt 0.209914 0.626021
vt 0.209914 0.626021
vt 0.166759 0.643156
vt 0.153424 0.648452
vt 0.188336 0.634589
vt 0.223249 0.620726
vt 0.201473 0.666351
vt 0.217114 0.666632
vt 0.199988 0.700299
vt 0.164764 0.680928
vt 0.182202 0.680495
vt 0.178411 0.708867
vt 0.164764 0.680928
vt 0.160625 0.689063
vt 0.178411 0.708867
vt 0.201473 0.666351
vt 0.182202 0.680495
vt 0.199988 0.700299
vt 0.224160 0.657342
vt 0.217114 0.666632
vt 0.213323 0.695003
vt 0.446336 0.104541
vt 0.446336 0.104541
vt 0.435547 0.108826
vt 0.435547 0.108826
vt 0.458212 0.114438
vt 0.471547 0.109143
vt 0.464879 0.111790
vt 0.424759 0.113110
vt 0.446336 0.104541
vt 0.435547 0.108826
vt 0.436635 0.123006
vt 0.447423 0.118722
vt 0.458212 0.114438
vt 0.464879 0.111790
vt 0.459671 0.099246
vt 0.441371 0.118861
vt 0.424759 0.113110
vt 0.446336 0.104541
vt 0.435547 0.108826
vt 0.453004 0.101894
vt 0.459671 0.099246
vt 0.453004 0.101894
vt 0.453004 0.101894
vt 0.453004 0.101894
vt 0.436635 0.123006
vt 0.447423 0.118722
vt 0.424759 0.113110
vt 0.424759 0.113110
vt 0.424759 0.113110
vt 0.424759 0.113110
vt 0.436635 0.123006
vn 0.0081 -1.0000 0.0000
vn 0.4322 -0.8472 0.3090
vn -0.1556 -0.8519 0.5000
vn 0.7272 -0.4414 0.5257
vn 0.8549 -0.5189 0.0000
vn -0.5189 -0.8549 -0.0000
vn -0.1556 -0.8519 -0.5000
vn 0.4322 -0.8472 -0.3090
vn 0.9510 0.0077 0.3090
vn -0.2728 -0.4494 0.8506
vn 0.2671 -0.5236 0.8090
vn -0.0000 -0.0000 1.0000
vn -0.8908 -0.4544 -0.0000
vn -0.6839 -0.5313 0.5000
vn -0.9510 -0.0077 0.3090
vn -0.2728 -0.4494 -0.8506
vn -0.6839 -0.5313 -0.5000
vn -0.5878 -0.0047 -0.8090
vn 0.7272 -0.4414 -0.5257
vn 0.2671 -0.5236 -0.8090
vn 0.5878 0.0047 -0.8090
vn 0.5878 0.0047 0.8090
vn -0.5878 -0.0047 0.8090
vn -0.9510 -0.0077 -0.3090
vn 0.0000 -0.0000 -1.0000
vn 0.9510 0.0077 -0.3090
vn 0.2631 0.5038 0.8228
vn 0.6422 0.6049 0.4709
vn 0.1521 0.8608 0.4857
vn -0.7024 0.4993 0.5073
vn -0.2523 0.6009 0.7585
vn -0.4144 0.8603 0.2969
vn -0.7024 0.4993 -0.5073
vn -0.8012 0.5984 -0.0000
vn -0.4144 0.8603 -0.2969
vn 0.2631 0.5038 -0.8228
vn -0.2523 0.6009 -0.7585
vn 0.1521 0.8608 -0.4857
vn 0.8622 0.5066 0.0000
vn 0.6422 0.6049 -0.4709
vn 0.5084 0.8611 -0.0000
vn 0.6253 0.5370 0.5663
vn 0.5970 -0.6788 0.4276
vn 0.1209 0.9874 0.1021
vn -0.0742 0.9829 0.1688
vn 0.1143 0.9089 0.4011
vn -0.2106 -0.7070 0.6752
vn 0.5970 -0.6788 -0.4276
vn -0.0742 0.9829 -0.1688
vn -0.1992 0.9800 -0.0000
vn -0.0173 0.9999 -0.0000
vn 0.1209 0.9874 -0.1021
vn 0.6253 0.5370 -0.5663
vn -0.3696 0.8929 -0.2571
vn 0.7250 0.5355 -0.4331
vn 0.7250 0.5355 0.4331
vn -0.2106 -0.7070 -0.6751
vn -0.8562 0.5055 -0.1068
vn -0.8562 0.5055 0.1068
vn -0.1812 0.5166 -0.8369
vn -0.3696 0.8929 0.2571
vn -0.3668 0.5181 0.7727
vn 0.1143 0.9089 -0.4011
vn -0.3668 0.5181 -0.7727
vn 0.3953 0.9186 -0.0000
vn -0.1812 0.5166 0.8369
vn -0.6892 -0.7246 0.0000
usemtl resource
s 1
f 1/1/1 13/2/2 12/3/3
f 2/4/4 13/2/2 15/5/5
f 1/1/1 12/3/3 17/6/6
f 1/1/1 17/6/6 19/7/7
f 1/1/1 19/7/7 16/8/8
f 2/4/4 15/5/5 22/9/9
f 3/10/10 14/11/11 24/12/12
f 4/13/13 18/14/14 26/15/15
f 5/16/16 20/17/17 28/18/18
f 6/19/19 21/20/20 30/21/21
f 2/4/4 22/9/9 25/22/22
f 3/10/10 24/12/12 27/23/23
f 4/13/13 26/15/15 29/24/24
f 5/16/16 28/18/18 31/25/25
f 6/19/19 30/21/21 23/26/26
f 7/27/27 32/28/28 37/29/29
f 8/30/30 33/31/31 39/32/32
f 9/33/33 34/34/34 40/35/35
f 10/36/36 35/37/37 41/38/38
f 11/39/39 36/40/40 38/41/41
f 37/42/42 44/43/42 57/44/42 56/45/42
f 36/40/40 10/36/36 41/38/38
f 37/46/43 38/47/43 54/48/43
f 38/41/41 36/40/40 41/38/38
f 35/37/37 9/33/33 40/35/35
f 46/49/44 47/50/45 51/51/46
f 41/38/38 35/37/37 40/35/35
f 34/34/34 8/30/30 39/32/32
f 39/52/47 37/46/47 56/53/47
f 40/35/35 34/34/34 39/32/32
f 33/31/31 7/27/27 37/29/29
f 38/47/48 41/54/48 52/55/48
f 39/32/32 33/31/31 37/29/29
f 32/28/28 11/39/39 38/41/41
f 23/26/26 36/40/40 11/39/39
f 23/26/26 30/21/21 36/40/40
f 30/21/21 10/36/36 36/40/40
f 31/25/25 35/37/37 10/36/36
f 31/25/25 28/18/18 35/37/37
f 28/18/18 9/33/33 35/37/37
f 29/24/24 34/34/34 9/33/33
f 29/24/24 26/15/15 34/34/34
f 26/15/15 8/30/30 34/34/34
f 27/23/23 33/31/31 8/30/30
f 27/23/23 24/12/12 33/31/31
f 24/12/12 7/27/27 33/31/31
f 25/22/22 32/28/28 7/27/27
f 25/22/22 22/9/9 32/28/28
f 22/9/9 11/39/39 32/28/28
f 30/21/21 31/25/25 10/36/36
f 30/21/21 21/20/20 31/25/25
f 21/20/20 5/16/16 31/25/25
f 28/18/18 29/24/24 9/33/33
f 28/18/18 20/17/17 29/24/24
f 20/17/17 4/13/13 29/24/24
f 26/15/15 27/23/23 8/30/30
f 26/15/15 18/14/14 27/23/23
f 18/14/14 3/10/10 27/23/23
f 24/12/12 25/22/22 7/27/27
f 24/12/12 14/11/11 25/22/22
f 14/11/11 2/4/4 25/22/22
f 22/9/9 23/26/26 11/39/39
f 22/9/9 15/5/5 23/26/26
f 15/5/5 6/19/19 23/26/26
f 16/8/8 21/20/20 6/19/19
f 16/8/8 19/7/7 21/20/20
f 19/7/7 5/16/16 21/20/20
f 19/7/7 20/17/17 5/16/16
f 19/7/7 17/6/6 20/17/17
f 17/6/6 4/13/13 20/17/17
f 17/6/6 18/14/14 4/13/13
f 17/6/6 12/3/3 18/14/14
f 12/3/3 3/10/10 18/14/14
f 15/5/5 16/8/8 6/19/19
f 15/5/5 13/2/2 16/8/8
f 13/2/2 1/1/1 16/8/8
f 12/3/3 14/11/11 3/10/10
f 12/3/3 13/2/2 14/11/11
f 13/2/2 2/4/4 14/11/11
f 44/43/49 42/56/50 43/57/51
f 46/49/44 45/58/52 43/57/51
f 37/29/29 32/28/28 38/41/41
f 42/56/50 47/50/45 43/57/51
f 47/50/45 46/49/44 43/57/51
f 41/59/53 50/60/53 51/51/53 47/50/53
f 42/56/50 44/43/49 55/61/54
f 38/62/55 42/56/55 55/61/55 54/63/55
f 38/62/56 52/64/56 53/65/56 42/56/56
f 41/54/57 40/66/57 50/67/57
f 40/68/58 46/49/58 51/51/58 50/60/58
f 39/69/59 56/45/59 57/44/59 45/58/59
f 41/59/60 47/50/60 53/65/60 52/64/60
f 47/50/45 42/56/50 53/65/61
f 39/69/62 45/58/62 49/70/62 48/71/62
f 45/58/52 44/43/49 43/57/51
f 44/43/49 45/58/52 57/44/63
f 40/68/64 48/71/64 49/70/64 46/49/64
f 45/58/52 46/49/44 49/70/65
f 37/42/66 54/63/66 55/61/66 44/43/66
f 40/66/67 39/52/67 48/72/67
