# Blender v3.4.1 OBJ File: 'Resource_Bits_Export.blend'
# www.blender.org
mtllib Money_Bill_Arched.mtl
o Money_Bill_Arched
v 0.150000 0.053985 -0.293422
v 0.150000 0.053985 0.293422
v -0.150000 0.053985 -0.293422
v -0.150000 0.053985 0.293422
v 0.124221 0.045188 -0.269192
v 0.124221 0.045188 0.269192
v -0.124221 0.045188 0.269192
v -0.124221 0.045188 -0.269192
v 0.036233 0.027858 -0.212498
v 0.036233 0.027858 0.212498
v -0.036233 0.027858 0.212498
v -0.036233 0.027858 -0.212498
v -0.050795 0.002449 -0.063494
v -0.050795 0.002449 0.063494
v 0.050795 0.002449 0.063494
v 0.050795 0.002449 -0.063494
v 0.000000 -0.000000 0.000000
v -0.000000 0.015768 -0.160465
v -0.071189 -0.000000 0.000000
v 0.000000 0.015768 0.160465
v 0.071189 -0.000000 -0.000000
v 0.097294 0.036813 0.243602
v -0.097294 0.036813 0.243602
v -0.097294 0.036813 -0.243602
v 0.097294 0.036813 -0.243602
v 0.000000 0.004986 0.090531
v -0.000000 0.004986 -0.090531
v -0.124221 0.000000 0.000000
v -0.150000 0.000000 0.000000
v -0.097294 0.000000 0.000000
v 0.124221 0.000000 -0.000000
v 0.150000 0.000000 -0.000000
v 0.097294 0.000000 -0.000000
v -0.124221 0.015768 -0.160465
v -0.150000 0.015768 -0.160465
v -0.097294 0.015768 -0.160465
v 0.124221 0.015768 -0.160465
v 0.150000 0.015768 -0.160465
v 0.097294 0.015768 -0.160465
v -0.124221 0.015768 0.160465
v -0.150000 0.015768 0.160465
v -0.097294 0.015768 0.160465
v 0.124221 0.015768 0.160465
v 0.150000 0.015768 0.160465
v 0.097294 0.015768 0.160465
v -0.041373 0.015768 -0.160465
v 0.041373 0.015768 -0.160465
v -0.041373 0.015768 0.160465
v 0.041373 0.015768 0.160465
v 0.124221 -0.004232 0.160465
v 0.124221 0.025188 0.269192
v -0.124221 0.025188 0.269192
v -0.124221 -0.004232 -0.160465
v -0.124221 0.025188 -0.269192
v 0.124221 0.025188 -0.269192
v 0.150000 -0.004232 0.160465
v 0.150000 0.033985 0.293422
v -0.150000 0.033985 0.293422
v -0.150000 -0.004232 -0.160465
v -0.150000 0.033985 -0.293422
v 0.150000 0.033985 -0.293422
v 0.097294 -0.004232 0.160465
v 0.097294 0.016813 0.243602
v -0.097294 0.016813 0.243602
v -0.097294 -0.004232 -0.160465
v -0.097294 0.016813 -0.243602
v 0.097294 0.016813 -0.243602
v -0.000000 -0.015014 -0.090531
v -0.050795 -0.017551 -0.063494
v -0.071189 -0.020000 0.000000
v -0.050795 -0.017551 0.063494
v 0.000000 -0.015014 0.090531
v 0.050795 -0.017551 0.063494
v 0.071189 -0.020000 -0.000000
v 0.050795 -0.017551 -0.063494
v -0.041373 -0.004232 0.160465
v 0.041373 -0.004232 0.160465
v 0.041373 -0.004232 -0.160465
v -0.041373 -0.004232 -0.160465
v 0.000000 -0.020000 0.000000
v 0.036233 0.007858 0.212498
v -0.036233 0.007858 0.212498
v -0.036233 0.007858 -0.212498
v 0.036233 0.007858 -0.212498
v 0.000000 -0.004232 0.160465
v -0.000000 -0.004232 -0.160465
v -0.124221 -0.004232 0.160465
v -0.124221 -0.020000 0.000000
v -0.150000 -0.004232 0.160465
v -0.150000 -0.020000 0.000000
v -0.097294 -0.004232 0.160465
v -0.097294 -0.020000 0.000000
v 0.124221 -0.004232 -0.160465
v 0.124221 -0.020000 -0.000000
v 0.150000 -0.004232 -0.160465
v 0.150000 -0.020000 -0.000000
v 0.097294 -0.004232 -0.160465
v 0.097294 -0.020000 -0.000000
vt 0.460704 0.319226
vt 0.460704 0.294845
vt 0.465899 0.289269
vt 0.465899 0.319226
vt 0.410639 0.294845
vt 0.405444 0.289269
vt 0.410639 0.389085
vt 0.410639 0.413465
vt 0.405444 0.419041
vt 0.405444 0.389085
vt 0.460704 0.413465
vt 0.465899 0.419041
vt 0.455278 0.387716
vt 0.455278 0.369159
vt 0.460704 0.363335
vt 0.460704 0.387716
vt 0.416065 0.369159
vt 0.410639 0.363335
vt 0.416065 0.457575
vt 0.416065 0.476132
vt 0.410639 0.481955
vt 0.410639 0.457575
vt 0.455278 0.476132
vt 0.460704 0.481955
vt 0.435671 0.389085
vt 0.435671 0.373776
vt 0.445907 0.367902
vt 0.444008 0.389085
vt 0.455278 0.389085
vt 0.435671 0.422645
vt 0.445907 0.436392
vt 0.435671 0.442266
vt 0.416065 0.319226
vt 0.427334 0.319226
vt 0.425435 0.340409
vt 0.421326 0.422645
vt 0.425435 0.408899
vt 0.435671 0.403025
vt 0.445907 0.408899
vt 0.450017 0.422645
vt 0.425435 0.436392
vt 0.455278 0.319226
vt 0.450017 0.354155
vt 0.445907 0.340409
vt 0.435671 0.319226
vt 0.435671 0.334535
vt 0.442973 0.376160
vt 0.435671 0.387716
vt 0.428370 0.376160
vt 0.435671 0.457575
vt 0.442973 0.469131
vt 0.428370 0.469131
vt 0.428370 0.400641
vt 0.427334 0.389085
vt 0.442973 0.307670
vt 0.428370 0.307670
vt 0.416065 0.300669
vt 0.455278 0.300669
vt 0.442973 0.400641
vt 0.455278 0.407642
vt 0.416065 0.407642
vt 0.444008 0.319226
vt 0.416065 0.389085
vt 0.421326 0.354155
vt 0.425435 0.367902
vt 0.416065 0.387716
vt 0.416065 0.422645
vt 0.410639 0.422645
vt 0.410639 0.387716
vt 0.410639 0.319226
vt 0.410639 0.354155
vt 0.405444 0.354155
vt 0.405444 0.319226
vt 0.455278 0.457575
vt 0.455278 0.422645
vt 0.460704 0.422645
vt 0.460704 0.457575
vt 0.460704 0.389085
vt 0.460704 0.354155
vt 0.465899 0.354155
vt 0.465899 0.389085
vt 0.455278 0.354155
vt 0.416065 0.354155
vt 0.460704 0.319226
vt 0.465899 0.319226
vt 0.465899 0.289269
vt 0.460704 0.294845
vt 0.405444 0.289269
vt 0.410639 0.294845
vt 0.410639 0.389085
vt 0.405444 0.389085
vt 0.405444 0.419041
vt 0.410639 0.413465
vt 0.465899 0.419041
vt 0.460704 0.413465
vt 0.455278 0.387716
vt 0.460704 0.387716
vt 0.460704 0.363335
vt 0.455278 0.369159
vt 0.410639 0.363335
vt 0.416065 0.369159
vt 0.416065 0.457575
vt 0.410639 0.457575
vt 0.410639 0.481955
vt 0.416065 0.476132
vt 0.460704 0.481955
vt 0.455278 0.476132
vt 0.435671 0.389085
vt 0.444008 0.389085
vt 0.445907 0.367902
vt 0.435671 0.373776
vt 0.455278 0.389085
vt 0.435671 0.422645
vt 0.435671 0.442266
vt 0.445907 0.436392
vt 0.416065 0.319226
vt 0.425435 0.340409
vt 0.427334 0.319226
vt 0.425435 0.408899
vt 0.421326 0.422645
vt 0.445907 0.408899
vt 0.435671 0.403025
vt 0.450017 0.422645
vt 0.425435 0.436392
vt 0.455278 0.319226
vt 0.445907 0.340409
vt 0.450017 0.354155
vt 0.435671 0.319226
vt 0.435671 0.334535
vt 0.442973 0.376160
vt 0.428370 0.376160
vt 0.435671 0.387716
vt 0.435671 0.457575
vt 0.428370 0.469131
vt 0.442973 0.469131
vt 0.427334 0.389085
vt 0.428370 0.400641
vt 0.442973 0.307670
vt 0.455278 0.300669
vt 0.416065 0.300669
vt 0.428370 0.307670
vt 0.416065 0.407642
vt 0.455278 0.407642
vt 0.442973 0.400641
vt 0.444008 0.319226
vt 0.416065 0.389085
vt 0.425435 0.367902
vt 0.421326 0.354155
vt 0.416065 0.387716
vt 0.410639 0.387716
vt 0.410639 0.422645
vt 0.416065 0.422645
vt 0.410639 0.319226
vt 0.405444 0.319226
vt 0.405444 0.354155
vt 0.410639 0.354155
vt 0.455278 0.457575
vt 0.460704 0.457575
vt 0.460704 0.422645
vt 0.455278 0.422645
vt 0.460704 0.389085
vt 0.465899 0.389085
vt 0.465899 0.354155
vt 0.460704 0.354155
vt 0.455278 0.354155
vt 0.416065 0.354155
vt 0.465899 0.433068
vt 0.465899 0.433068
vt 0.465899 0.448795
vt 0.465899 0.448795
vt 0.465899 0.462283
vt 0.465899 0.462283
vt 0.405444 0.462283
vt 0.405444 0.462283
vt 0.405444 0.417340
vt 0.405444 0.417340
vt 0.405444 0.403852
vt 0.405444 0.403852
vt 0.405444 0.448795
vt 0.405444 0.448795
vt 0.405444 0.433068
vt 0.405444 0.433068
vt 0.465899 0.403852
vt 0.465899 0.403852
vt 0.465899 0.417340
vt 0.465899 0.417340
vn -0.0168 0.9834 -0.1804
vn -0.0178 0.9538 -0.2999
vn -0.0189 0.9520 -0.3055
vn -0.0189 0.9827 -0.1843
vn 0.0178 0.9538 -0.2999
vn 0.0189 0.9520 -0.3055
vn 0.0168 0.9834 0.1804
vn 0.0178 0.9538 0.2999
vn 0.0189 0.9520 0.3055
vn 0.0189 0.9827 0.1843
vn -0.0178 0.9538 0.2999
vn -0.0189 0.9520 0.3055
vn -0.0157 0.9838 -0.1785
vn -0.0130 0.9614 -0.2747
vn 0.0130 0.9614 -0.2747
vn 0.0157 0.9838 0.1785
vn 0.0130 0.9614 0.2747
vn -0.0130 0.9614 0.2747
vn -0.0000 0.9827 0.1852
vn -0.0000 0.9936 0.1133
vn -0.0442 0.9957 0.0820
vn -0.0069 0.9824 0.1867
vn -0.0157 0.9838 0.1785
vn -0.0000 1.0000 -0.0000
vn 0.0157 0.9838 -0.1785
vn 0.0069 0.9824 -0.1867
vn 0.0442 0.9957 -0.0820
vn 0.0185 0.9998 -0.0000
vn -0.0000 0.9936 -0.1133
vn -0.0442 0.9957 -0.0820
vn -0.0185 0.9998 0.0000
vn 0.0442 0.9957 0.0820
vn -0.0000 0.9827 -0.1852
vn -0.0034 0.9679 -0.2515
vn 0.0034 0.9679 -0.2515
vn -0.0034 0.9679 0.2515
vn 0.0034 0.9679 0.2515
vn 0.0069 0.9824 0.1867
vn -0.0069 0.9824 -0.1867
vn 0.0168 0.9834 -0.1804
vn 0.0189 0.9827 -0.1843
vn -0.0168 0.9834 0.1804
vn -0.0189 0.9827 0.1843
vn 0.0168 -0.9834 0.1804
vn 0.0189 -0.9827 0.1843
vn 0.0189 -0.9520 0.3055
vn 0.0178 -0.9538 0.2999
vn -0.0189 -0.9520 0.3055
vn -0.0178 -0.9538 0.2999
vn -0.0168 -0.9834 -0.1804
vn -0.0189 -0.9827 -0.1843
vn -0.0189 -0.9520 -0.3055
vn -0.0178 -0.9538 -0.2999
vn 0.0189 -0.9520 -0.3055
vn 0.0178 -0.9538 -0.2999
vn 0.0157 -0.9838 0.1785
vn 0.0130 -0.9614 0.2747
vn -0.0130 -0.9614 0.2747
vn -0.0157 -0.9838 -0.1785
vn -0.0130 -0.9614 -0.2747
vn 0.0130 -0.9614 -0.2747
vn -0.0000 -0.9827 -0.1852
vn 0.0069 -0.9824 -0.1867
vn 0.0442 -0.9957 -0.0820
vn -0.0000 -0.9936 -0.1133
vn 0.0157 -0.9838 -0.1785
vn 0.0000 -1.0000 0.0000
vn -0.0157 -0.9838 0.1785
vn -0.0442 -0.9957 0.0820
vn -0.0069 -0.9824 0.1867
vn -0.0185 -0.9998 0.0000
vn 0.0442 -0.9957 0.0820
vn 0.0000 -0.9936 0.1133
vn 0.0185 -0.9998 -0.0000
vn -0.0442 -0.9957 -0.0820
vn 0.0000 -0.9827 0.1852
vn 0.0034 -0.9679 0.2515
vn -0.0034 -0.9679 0.2515
vn -0.0034 -0.9679 -0.2515
vn 0.0034 -0.9679 -0.2515
vn -0.0069 -0.9824 -0.1867
vn 0.0069 -0.9824 0.1867
vn -0.0168 -0.9834 0.1804
vn -0.0189 -0.9827 0.1843
vn 0.0168 -0.9834 -0.1804
vn 0.0189 -0.9827 -0.1843
vn 1.0000 0.0000 -0.0000
vn 0.0000 0.0000 -1.0000
vn -1.0000 0.0000 0.0000
vn 0.0000 0.0000 1.0000
usemtl resource
s 1
f 43/1/1 6/2/2 2/3/3 44/4/4
f 6/2/2 7/5/5 4/6/6 2/3/3
f 34/7/7 8/8/8 3/9/9 35/10/10
f 8/8/8 5/11/11 1/12/12 3/9/9
f 45/13/13 22/14/14 6/15/2 43/16/1
f 22/14/14 23/17/15 7/18/5 6/15/2
f 36/19/16 24/20/17 8/21/8 34/22/7
f 24/20/17 25/23/18 5/24/11 8/21/8
f 18/25/19 27/26/20 16/27/21 47/28/22
f 39/29/23 47/28/22 16/27/21
f 17/30/24 16/31/21 27/32/20
f 42/33/25 48/34/26 14/35/27
f 17/30/24 19/36/28 14/37/27
f 17/30/24 26/38/29 15/39/30
f 17/30/24 21/40/31 16/31/21
f 17/30/24 15/39/30 21/40/31
f 17/30/24 14/37/27 26/38/29
f 17/30/24 13/41/32 19/36/28
f 45/42/13 21/43/31 15/44/30
f 20/45/33 26/46/29 14/35/27 48/34/26
f 10/47/34 20/48/33 11/49/35
f 18/50/19 9/51/36 12/52/37
f 18/25/19 12/53/37 46/54/38
f 17/30/24 27/32/20 13/41/32
f 10/55/34 11/56/35 23/57/15 22/58/14
f 12/53/37 9/59/36 25/60/18 24/61/17
f 20/45/33 10/55/34 49/62/39
f 36/63/16 19/64/28 13/65/32
f 42/66/25 30/67/24 28/68/24 40/69/40
f 40/70/40 28/71/24 29/72/24 41/73/41
f 39/74/23 33/75/24 31/76/24 37/77/42
f 37/78/42 31/79/24 32/80/24 38/81/43
f 39/29/23 21/43/31 33/82/24
f 42/33/25 19/64/28 30/83/24
f 30/67/24 36/19/16 34/22/7 28/68/24
f 28/71/24 34/7/7 35/10/10 29/72/24
f 5/11/11 37/78/42 38/81/43 1/12/12
f 25/23/18 39/74/23 37/77/42 5/24/11
f 7/5/5 40/70/40 41/73/41 4/6/6
f 23/17/15 42/66/25 40/69/40 7/18/5
f 33/75/24 45/13/13 43/16/1 31/76/24
f 31/79/24 43/1/1 44/4/4 32/80/24
f 12/53/37 24/61/17 36/63/16 46/54/38
f 19/64/28 36/63/16 30/83/24
f 27/26/20 18/25/19 46/54/38 13/65/32
f 25/60/18 9/59/36 47/28/22 39/29/23
f 9/59/36 18/25/19 47/28/22
f 23/57/15 11/56/35 48/34/26 42/33/25
f 11/56/35 20/45/33 48/34/26
f 10/55/34 22/58/14 45/42/13 49/62/39
f 21/43/31 45/42/13 33/82/24
f 26/46/29 20/45/33 49/62/39 15/44/30
f 46/54/38 36/63/16 13/65/32
f 19/64/28 42/33/25 14/35/27
f 49/62/39 45/42/13 15/44/30
f 21/43/31 39/29/23 16/27/21
f 50/84/44 56/85/45 57/86/46 51/87/47
f 51/87/47 57/86/46 58/88/48 52/89/49
f 53/90/50 59/91/51 60/92/52 54/93/53
f 54/93/53 60/92/52 61/94/54 55/95/55
f 62/96/56 50/97/44 51/98/47 63/99/57
f 63/99/57 51/98/47 52/100/49 64/101/58
f 65/102/59 53/103/50 54/104/53 66/105/60
f 66/105/60 54/104/53 55/106/55 67/107/61
f 86/108/62 78/109/63 75/110/64 68/111/65
f 97/112/66 75/110/64 78/109/63
f 80/113/67 68/114/65 75/115/64
f 91/116/68 71/117/69 76/118/70
f 80/113/67 71/119/69 70/120/71
f 80/113/67 73/121/72 72/122/73
f 80/113/67 75/115/64 74/123/74
f 80/113/67 74/123/74 73/121/72
f 80/113/67 72/122/73 71/119/69
f 80/113/67 70/120/71 69/124/75
f 62/125/56 73/126/72 74/127/74
f 85/128/76 76/118/70 71/117/69 72/129/73
f 81/130/77 82/131/78 85/132/76
f 86/133/62 83/134/79 84/135/80
f 86/108/62 79/136/81 83/137/79
f 80/113/67 69/124/75 68/114/65
f 81/138/77 63/139/57 64/140/58 82/141/78
f 83/137/79 66/142/60 67/143/61 84/144/80
f 85/128/76 77/145/82 81/138/77
f 65/146/59 69/147/75 70/148/71
f 91/149/68 87/150/83 88/151/67 92/152/67
f 87/153/83 89/154/84 90/155/67 88/156/67
f 97/157/66 93/158/85 94/159/67 98/160/67
f 93/161/85 95/162/86 96/163/67 94/164/67
f 97/112/66 98/165/67 74/127/74
f 91/116/68 92/166/67 70/148/71
f 92/152/67 88/151/67 53/103/50 65/102/59
f 88/156/67 90/155/67 59/91/51 53/90/50
f 55/95/55 61/94/54 95/162/86 93/161/85
f 67/107/61 55/106/55 93/158/85 97/157/66
f 52/89/49 58/88/48 89/154/84 87/153/83
f 64/101/58 52/100/49 87/150/83 91/149/68
f 98/160/67 94/159/67 50/97/44 62/96/56
f 94/164/67 96/163/67 56/85/45 50/84/44
f 83/137/79 79/136/81 65/146/59 66/142/60
f 70/148/71 92/166/67 65/146/59
f 68/111/65 69/147/75 79/136/81 86/108/62
f 67/143/61 97/112/66 78/109/63 84/144/80
f 84/144/80 78/109/63 86/108/62
f 64/140/58 91/116/68 76/118/70 82/141/78
f 82/141/78 76/118/70 85/128/76
f 81/138/77 77/145/82 62/125/56 63/139/57
f 74/127/74 98/165/67 62/125/56
f 72/129/73 73/126/72 77/145/82 85/128/76
f 79/136/81 69/147/75 65/146/59
f 70/148/71 71/117/69 91/116/68
f 77/145/82 73/126/72 62/125/56
f 74/127/74 75/110/64 97/112/66
f 32/167/87 96/168/87 95/169/87 38/170/87
f 1/171/88 61/172/88 60/173/88 3/174/88
f 41/175/89 89/176/89 58/177/89 4/178/89
f 35/179/89 59/180/89 90/181/89 29/182/89
f 2/183/87 57/184/87 56/185/87 44/186/87
f 4/178/90 58/177/90 57/184/90 2/183/90
f 44/186/87 56/185/87 96/168/87 32/167/87
f 29/182/89 90/181/89 89/176/89 41/175/89
f 38/170/87 95/169/87 61/172/87 1/171/87
f 3/174/89 60/173/89 59/180/89 35/179/89
