# Blender v3.4.1 OBJ File: 'Resource_Bits_Export.blend'
# www.blender.org
mtllib Money_Coins_Stack_Large.mtl
o Money_Coins_Stack_Large
v -0.000000 -0.000000 -0.000000
v 0.000000 0.700000 -0.079065
v 0.039533 0.700000 -0.068473
v 0.068473 0.700000 -0.039533
v 0.079065 0.700000 0.000000
v 0.068473 0.700000 0.039533
v 0.039533 0.700000 0.068473
v -0.000000 0.700000 0.079065
v -0.039533 0.700000 0.068473
v -0.068473 0.700000 0.039533
v -0.079065 0.700000 -0.000000
v -0.068473 0.700000 -0.039533
v -0.039533 0.700000 -0.068473
v 0.000000 0.688241 -0.123518
v 0.000000 0.011759 -0.123518
v 0.061759 0.011759 -0.106969
v 0.061759 0.688241 -0.106969
v 0.106969 0.011759 -0.061759
v 0.106969 0.688241 -0.061759
v 0.123518 0.011759 0.000000
v 0.123518 0.688241 0.000000
v 0.106969 0.011759 0.061759
v 0.106969 0.688241 0.061759
v 0.061759 0.011759 0.106969
v 0.061759 0.688241 0.106969
v -0.000000 0.011759 0.123518
v -0.000000 0.688241 0.123518
v -0.061759 0.011759 0.106969
v -0.061759 0.688241 0.106969
v -0.106969 0.011759 0.061759
v -0.106969 0.688241 0.061759
v -0.123518 0.011759 -0.000000
v -0.123518 0.688241 -0.000000
v -0.106969 0.011759 -0.061759
v -0.106969 0.688241 -0.061759
v -0.061759 0.011759 -0.106969
v -0.061759 0.688241 -0.106969
v 0.000000 -0.000000 -0.108202
v 0.054101 -0.000000 -0.093706
v 0.054101 0.700000 -0.093706
v 0.000000 0.700000 -0.108202
v 0.093706 -0.000000 -0.054101
v 0.093706 0.700000 -0.054101
v 0.108202 -0.000000 0.000000
v 0.108202 0.700000 0.000000
v 0.093706 -0.000000 0.054101
v 0.093706 0.700000 0.054101
v 0.054101 -0.000000 0.093706
v 0.054101 0.700000 0.093706
v -0.000000 -0.000000 0.108202
v -0.000000 0.700000 0.108202
v -0.054101 -0.000000 0.093706
v -0.054101 0.700000 0.093706
v -0.093706 -0.000000 0.054101
v -0.093706 0.700000 0.054101
v -0.108202 -0.000000 -0.000000
v -0.108202 0.700000 -0.000000
v -0.093706 -0.000000 -0.054101
v -0.093706 0.700000 -0.054101
v -0.054101 -0.000000 -0.093706
v -0.054101 0.700000 -0.093706
v -0.028136 0.680909 0.000000
v 0.028136 0.680909 -0.048732
v 0.000000 0.680909 -0.056271
v 0.048733 0.680909 -0.028136
v 0.056271 0.680909 0.000000
v 0.048732 0.680909 0.028136
v 0.028136 0.680909 0.048732
v -0.000000 0.680909 0.056271
v -0.028136 0.680909 0.048732
v -0.048732 0.680909 0.028136
v -0.056271 0.680909 -0.000000
v -0.048732 0.680909 -0.028136
v -0.028136 0.680909 -0.048732
v 0.028136 0.680909 0.000000
v 0.022503 0.697350 -0.038977
v 0.000000 0.697350 -0.045006
v -0.000000 0.697350 0.045006
v 0.022503 0.697350 0.038977
v -0.022503 0.697350 0.038977
v -0.022503 0.697350 -0.038977
v -0.022503 0.697350 0.000000
v -0.000000 0.697350 0.000000
v 0.022503 0.697350 0.000000
v -0.061759 0.108399 -0.106969
v -0.061759 0.205039 -0.106969
v -0.061759 0.301680 -0.106969
v -0.061759 0.398320 -0.106969
v -0.061759 0.494960 -0.106969
v -0.061759 0.591601 -0.106969
v 0.000000 0.591601 -0.123518
v 0.000000 0.494960 -0.123518
v 0.000000 0.398320 -0.123518
v 0.000000 0.301680 -0.123518
v 0.000000 0.205039 -0.123518
v 0.000000 0.108399 -0.123518
v -0.106969 0.108399 -0.061759
v -0.106969 0.205039 -0.061759
v -0.106969 0.301680 -0.061759
v -0.106969 0.398320 -0.061759
v -0.106969 0.494960 -0.061759
v -0.106969 0.591601 -0.061759
v -0.123518 0.108399 -0.000000
v -0.123518 0.205039 -0.000000
v -0.123518 0.301680 -0.000000
v -0.123518 0.398320 -0.000000
v -0.123518 0.494960 -0.000000
v -0.123518 0.591601 -0.000000
v -0.106969 0.108399 0.061759
v -0.106969 0.205039 0.061759
v -0.106969 0.301680 0.061759
v -0.106969 0.398320 0.061759
v -0.106969 0.494960 0.061759
v -0.106969 0.591601 0.061759
v -0.061759 0.108399 0.106969
v -0.061759 0.205039 0.106969
v -0.061759 0.301680 0.106969
v -0.061759 0.398320 0.106969
v -0.061759 0.494960 0.106969
v -0.061759 0.591601 0.106969
v -0.000000 0.108399 0.123518
v -0.000000 0.205039 0.123518
v -0.000000 0.301680 0.123518
v -0.000000 0.398320 0.123518
v -0.000000 0.494960 0.123518
v -0.000000 0.591601 0.123518
v 0.061759 0.108399 0.106969
v 0.061759 0.205039 0.106969
v 0.061759 0.301680 0.106969
v 0.061759 0.398320 0.106969
v 0.061759 0.494960 0.106969
v 0.061759 0.591601 0.106969
v 0.106969 0.108399 0.061759
v 0.106969 0.205039 0.061759
v 0.106969 0.301680 0.061759
v 0.106969 0.398320 0.061759
v 0.106969 0.494960 0.061759
v 0.106969 0.591601 0.061759
v 0.123518 0.108399 0.000000
v 0.123518 0.205039 0.000000
v 0.123518 0.301680 0.000000
v 0.123518 0.398320 0.000000
v 0.123518 0.494960 0.000000
v 0.123518 0.591601 0.000000
v 0.106969 0.108399 -0.061759
v 0.106969 0.205039 -0.061759
v 0.106969 0.301680 -0.061759
v 0.106969 0.398320 -0.061759
v 0.106969 0.494960 -0.061759
v 0.106969 0.591601 -0.061759
v 0.061759 0.108399 -0.106969
v 0.061759 0.205039 -0.106969
v 0.061759 0.301680 -0.106969
v 0.061759 0.398320 -0.106969
v 0.061759 0.494960 -0.106969
v 0.061759 0.591601 -0.106969
vt 0.298287 0.548466
vt 0.296933 0.551440
vt 0.307856 0.552904
vt 0.307856 0.549748
vt 0.324430 0.544964
vt 0.326776 0.547442
vt 0.329702 0.541981
vt 0.326994 0.540179
vt 0.326776 0.536519
vt 0.324430 0.535395
vt 0.318779 0.532521
vt 0.317425 0.531893
vt 0.307856 0.531057
vt 0.307856 0.530611
vt 0.296933 0.532521
vt 0.298287 0.531893
vt 0.288936 0.536519
vt 0.291282 0.535395
vt 0.286010 0.541981
vt 0.288718 0.540179
vt 0.288936 0.547442
vt 0.291282 0.544964
vt 0.321840 0.631776
vt 0.319967 0.635272
vt 0.316475 0.631340
vt 0.317809 0.628851
vt 0.318779 0.551440
vt 0.317425 0.548466
vt 0.288936 0.635436
vt 0.291282 0.636560
vt 0.298287 0.640063
vt 0.296933 0.639434
vt 0.286010 0.629974
vt 0.288718 0.631776
vt 0.288936 0.624513
vt 0.291282 0.626991
vt 0.296933 0.620515
vt 0.298287 0.623489
vt 0.307856 0.619051
vt 0.307856 0.622207
vt 0.318779 0.620515
vt 0.317425 0.623489
vt 0.326776 0.624513
vt 0.324430 0.626991
vt 0.329702 0.629974
vt 0.326994 0.631776
vt 0.326776 0.635436
vt 0.324430 0.636560
vt 0.318779 0.639434
vt 0.317425 0.640063
vt 0.307856 0.640898
vt 0.307856 0.641344
vt 0.296933 0.581868
vt 0.307856 0.583331
vt 0.307856 0.568529
vt 0.296933 0.567065
vt 0.288936 0.577870
vt 0.288936 0.563067
vt 0.286010 0.572408
vt 0.286010 0.557606
vt 0.288936 0.566947
vt 0.288936 0.552144
vt 0.296933 0.562948
vt 0.296933 0.548146
vt 0.307856 0.561485
vt 0.307856 0.546682
vt 0.318779 0.562948
vt 0.318779 0.548146
vt 0.326776 0.566947
vt 0.326776 0.552144
vt 0.329702 0.572408
vt 0.329702 0.557606
vt 0.326776 0.577870
vt 0.326776 0.563067
vt 0.318779 0.581868
vt 0.318779 0.567065
vt 0.307856 0.524554
vt 0.317425 0.532841
vt 0.324430 0.529339
vt 0.307856 0.701268
vt 0.314848 0.700331
vt 0.317425 0.702563
vt 0.307856 0.703844
vt 0.326994 0.524554
vt 0.319967 0.697772
vt 0.324430 0.699060
vt 0.324430 0.519770
vt 0.321840 0.694276
vt 0.326994 0.694276
vt 0.317425 0.516268
vt 0.319967 0.690780
vt 0.324430 0.689491
vt 0.307856 0.514986
vt 0.314848 0.688220
vt 0.317425 0.685989
vt 0.298287 0.516268
vt 0.307856 0.687283
vt 0.307856 0.684707
vt 0.291282 0.519770
vt 0.300864 0.688220
vt 0.298287 0.685989
vt 0.288718 0.524554
vt 0.295745 0.690780
vt 0.291282 0.689491
vt 0.291282 0.529339
vt 0.293872 0.694276
vt 0.288718 0.694276
vt 0.298287 0.532841
vt 0.295745 0.697772
vt 0.291282 0.699060
vt 0.307856 0.534123
vt 0.300864 0.700331
vt 0.298287 0.702563
vt 0.300864 0.625720
vt 0.307856 0.624783
vt 0.307856 0.623875
vt 0.302880 0.624542
vt 0.300864 0.637831
vt 0.295745 0.635272
vt 0.299237 0.631340
vt 0.302880 0.633161
vt 0.319967 0.628280
vt 0.316475 0.626363
vt 0.295745 0.628280
vt 0.299237 0.626363
vt 0.307856 0.638768
vt 0.307856 0.633828
vt 0.314848 0.637831
vt 0.312832 0.633161
vt 0.314848 0.625720
vt 0.312832 0.624542
vt 0.293872 0.631776
vt 0.297903 0.628851
vt 0.311836 0.627923
vt 0.307856 0.627390
vt 0.312832 0.628851
vt 0.311836 0.631370
vt 0.302880 0.628851
vt 0.303876 0.631370
vt 0.303876 0.634817
vt 0.317809 0.660101
vt 0.316475 0.662590
vt 0.312832 0.660101
vt 0.302880 0.655792
vt 0.302880 0.660101
vt 0.299237 0.657613
vt 0.297903 0.660101
vt 0.299237 0.662590
vt 0.311836 0.634817
vt 0.312832 0.664411
vt 0.312832 0.655792
vt 0.316475 0.657613
vt 0.302880 0.664411
vt 0.307856 0.635350
vt 0.311836 0.693870
vt 0.307856 0.693870
vt 0.307856 0.689890
vt 0.311836 0.690423
vt 0.307856 0.697850
vt 0.303876 0.697317
vt 0.303876 0.693870
vt 0.303876 0.690423
vt 0.311836 0.697317
vt 0.303876 0.627923
vt 0.307856 0.672148
vt 0.318779 0.670684
vt 0.318779 0.655882
vt 0.307856 0.657345
vt 0.307856 0.626095
vt 0.318779 0.624632
vt 0.318779 0.609829
vt 0.307856 0.611292
vt 0.307856 0.642542
vt 0.318779 0.641079
vt 0.318779 0.626276
vt 0.307856 0.627740
vt 0.307856 0.596490
vt 0.318779 0.595026
vt 0.318779 0.580223
vt 0.307856 0.581687
vt 0.307856 0.612937
vt 0.318779 0.611473
vt 0.318779 0.596671
vt 0.307856 0.598134
vt 0.307856 0.566884
vt 0.318779 0.565421
vt 0.318779 0.550618
vt 0.307856 0.552081
vt 0.326776 0.666686
vt 0.326776 0.651883
vt 0.326776 0.620633
vt 0.326776 0.605831
vt 0.326776 0.637081
vt 0.326776 0.622278
vt 0.326776 0.591028
vt 0.326776 0.576225
vt 0.326776 0.607475
vt 0.326776 0.592673
vt 0.326776 0.561423
vt 0.326776 0.546620
vt 0.329702 0.661224
vt 0.329702 0.646422
vt 0.329702 0.615172
vt 0.329702 0.600369
vt 0.329702 0.631619
vt 0.329702 0.616816
vt 0.329702 0.585566
vt 0.329702 0.570764
vt 0.329702 0.602014
vt 0.329702 0.587211
vt 0.329702 0.555961
vt 0.329702 0.541158
vt 0.326776 0.655763
vt 0.326776 0.640960
vt 0.326776 0.609710
vt 0.326776 0.594907
vt 0.326776 0.626157
vt 0.326776 0.611355
vt 0.326776 0.580105
vt 0.326776 0.565302
vt 0.326776 0.596552
vt 0.326776 0.581749
vt 0.326776 0.550499
vt 0.326776 0.535697
vt 0.318779 0.651765
vt 0.318779 0.636962
vt 0.318779 0.605712
vt 0.318779 0.590909
vt 0.318779 0.622159
vt 0.318779 0.607357
vt 0.318779 0.576107
vt 0.318779 0.561304
vt 0.318779 0.592554
vt 0.318779 0.577751
vt 0.318779 0.546501
vt 0.318779 0.531698
vt 0.307856 0.650301
vt 0.307856 0.635499
vt 0.307856 0.604249
vt 0.307856 0.589446
vt 0.307856 0.620696
vt 0.307856 0.605893
vt 0.307856 0.574643
vt 0.307856 0.559840
vt 0.307856 0.591090
vt 0.307856 0.576288
vt 0.307856 0.545038
vt 0.307856 0.530235
vt 0.296933 0.651765
vt 0.296933 0.636962
vt 0.296933 0.605712
vt 0.296933 0.590909
vt 0.296933 0.622159
vt 0.296933 0.607357
vt 0.296933 0.576107
vt 0.296933 0.561304
vt 0.296933 0.592554
vt 0.296933 0.577751
vt 0.296933 0.546501
vt 0.296933 0.531698
vt 0.288936 0.655763
vt 0.288936 0.640960
vt 0.288936 0.609710
vt 0.288936 0.594907
vt 0.288936 0.626157
vt 0.288936 0.611355
vt 0.288936 0.580105
vt 0.288936 0.565302
vt 0.288936 0.596552
vt 0.288936 0.581749
vt 0.288936 0.550499
vt 0.288936 0.535697
vt 0.286010 0.661224
vt 0.286010 0.646422
vt 0.286010 0.615172
vt 0.286010 0.600369
vt 0.286010 0.631619
vt 0.286010 0.616816
vt 0.286010 0.585566
vt 0.286010 0.570764
vt 0.286010 0.602014
vt 0.286010 0.587211
vt 0.286010 0.555961
vt 0.286010 0.541158
vt 0.288936 0.666686
vt 0.288936 0.651883
vt 0.288936 0.620633
vt 0.288936 0.605831
vt 0.288936 0.637081
vt 0.288936 0.622278
vt 0.288936 0.591028
vt 0.288936 0.576225
vt 0.288936 0.607475
vt 0.288936 0.592673
vt 0.288936 0.561423
vt 0.288936 0.546620
vt 0.296933 0.670684
vt 0.296933 0.655882
vt 0.296933 0.624632
vt 0.296933 0.609829
vt 0.296933 0.641079
vt 0.296933 0.626276
vt 0.296933 0.595026
vt 0.296933 0.580223
vt 0.296933 0.611473
vt 0.296933 0.596671
vt 0.296933 0.565421
vt 0.296933 0.550618
vn -0.3045 -0.7932 -0.5274
vn 0.0000 -0.7932 -0.6090
vn 0.5274 -0.7932 -0.3045
vn 0.6090 -0.7932 0.0000
vn 0.5274 -0.7932 0.3045
vn 0.3045 -0.7932 0.5274
vn -0.0000 -0.7932 0.6090
vn -0.3045 -0.7932 0.5274
vn -0.5274 -0.7932 0.3045
vn -0.6090 -0.7932 -0.0000
vn -0.5274 -0.7932 -0.3045
vn -0.6421 0.7666 0.0000
vn -0.5561 0.7666 0.3210
vn 0.3045 -0.7932 -0.5274
vn -0.5274 0.7932 -0.3045
vn -0.3045 0.7932 -0.5274
vn -0.6090 0.7932 -0.0000
vn -0.5274 0.7932 0.3045
vn -0.3045 0.7932 0.5274
vn -0.0000 0.7932 0.6090
vn 0.3045 0.7932 0.5274
vn 0.5274 0.7932 0.3045
vn 0.6090 0.7932 0.0000
vn 0.5274 0.7932 -0.3045
vn 0.3045 0.7932 -0.5274
vn 0.0000 0.7932 -0.6090
vn -0.5000 0.0000 -0.8660
vn -0.0000 0.0000 -1.0000
vn -0.8660 0.0000 -0.5000
vn -1.0000 0.0000 0.0000
vn -0.8660 0.0000 0.5000
vn -0.5000 0.0000 0.8660
vn -0.0000 0.0000 1.0000
vn 0.5000 0.0000 0.8660
vn 0.8660 0.0000 0.5000
vn 1.0000 0.0000 0.0000
vn 0.8660 0.0000 -0.5000
vn 0.5000 0.0000 -0.8660
vn 0.0000 -1.0000 -0.0000
vn 0.0000 1.0000 0.0000
vn 0.3210 0.7666 -0.5561
vn 0.0000 0.7666 -0.6421
vn 0.3210 0.7666 0.5561
vn 0.5561 0.7666 0.3210
vn -0.5561 0.7666 -0.3210
vn 0.5561 0.7666 -0.3210
vn 0.0000 0.7666 0.6421
vn -0.3210 0.7666 0.5561
vn -0.3210 0.7666 -0.5561
vn 0.6421 0.7666 0.0000
vn 0.0000 0.5652 0.8249
vn 0.2158 0.5519 0.8055
vn 0.9460 0.3241 0.0000
vn -0.9460 0.3241 0.0000
vn 0.2158 0.5519 -0.8055
vn -0.0000 0.5652 -0.8249
vn -0.2158 0.5519 -0.8055
vn -0.2158 0.5519 0.8055
usemtl resource
s 1
f 60/1/1 36/2/1 15/3/2 38/4/2
f 42/5/3 18/6/3 20/7/4 44/8/4
f 44/8/4 20/7/4 22/9/5 46/10/5
f 46/10/5 22/9/5 24/11/6 48/12/6
f 48/12/6 24/11/6 26/13/7 50/14/7
f 50/14/7 26/13/7 28/15/8 52/16/8
f 52/16/8 28/15/8 30/17/9 54/18/9
f 54/18/9 30/17/9 32/19/10 56/20/10
f 56/20/10 32/19/10 34/21/11 58/22/11
f 58/22/11 34/21/11 36/2/1 60/1/1
f 5/23/12 4/24/13 65/25/13 66/26/12
f 38/4/2 15/3/2 16/27/14 39/28/14
f 39/28/14 16/27/14 18/6/3 42/5/3
f 35/29/15 59/30/15 61/31/16 37/32/16
f 33/33/17 57/34/17 59/30/15 35/29/15
f 31/35/18 55/36/18 57/34/17 33/33/17
f 29/37/19 53/38/19 55/36/18 31/35/18
f 27/39/20 51/40/20 53/38/19 29/37/19
f 25/41/21 49/42/21 51/40/20 27/39/20
f 23/43/22 47/44/22 49/42/21 25/41/21
f 21/45/23 45/46/23 47/44/22 23/43/22
f 19/47/24 43/48/24 45/46/23 21/45/23
f 17/49/25 40/50/25 43/48/24 19/47/24
f 14/51/26 41/52/26 40/50/25 17/49/25
f 85/53/27 96/54/28 15/55/28 36/56/27
f 97/57/29 85/53/27 36/56/27 34/58/29
f 103/59/30 97/57/29 34/58/29 32/60/30
f 109/61/31 103/59/30 32/60/30 30/62/31
f 115/63/32 109/61/31 30/62/31 28/64/32
f 121/65/33 115/63/32 28/64/32 26/66/33
f 127/67/34 121/65/33 26/66/33 24/68/34
f 133/69/35 127/67/34 24/68/34 22/70/35
f 139/71/36 133/69/35 22/70/35 20/72/36
f 145/73/37 139/71/36 20/72/36 18/74/37
f 151/75/38 145/73/37 18/74/37 16/76/38
f 96/54/28 151/75/38 16/76/38 15/55/28
f 37/32/16 61/31/16 41/52/26 14/51/26
f 1/77/39 39/78/39 42/79/39
f 2/80/40 3/81/40 40/82/40 41/83/40
f 1/77/39 42/79/39 44/84/39
f 3/81/40 4/85/40 43/86/40 40/82/40
f 1/77/39 44/84/39 46/87/39
f 4/85/40 5/88/40 45/89/40 43/86/40
f 1/77/39 46/87/39 48/90/39
f 5/88/40 6/91/40 47/92/40 45/89/40
f 1/77/39 48/90/39 50/93/39
f 6/91/40 7/94/40 49/95/40 47/92/40
f 1/77/39 50/93/39 52/96/39
f 7/94/40 8/97/40 51/98/40 49/95/40
f 1/77/39 52/96/39 54/99/39
f 8/97/40 9/100/40 53/101/40 51/98/40
f 1/77/39 54/99/39 56/102/39
f 9/100/40 10/103/40 55/104/40 53/101/40
f 1/77/39 56/102/39 58/105/39
f 10/103/40 11/106/40 57/107/40 55/104/40
f 1/77/39 58/105/39 60/108/39
f 11/106/40 12/109/40 59/110/40 57/107/40
f 1/77/39 60/108/39 38/111/39
f 12/109/40 13/112/40 61/113/40 59/110/40
f 13/112/40 2/80/40 41/83/40 61/113/40
f 9/114/41 8/115/42 69/116/42 70/117/41
f 13/118/43 12/119/44 73/120/44 74/121/43
f 6/122/45 5/23/12 66/26/12 67/123/45
f 10/124/46 9/114/41 70/117/41 71/125/46
f 2/126/47 13/118/43 74/121/43 64/127/47
f 3/128/48 2/126/47 64/127/47 63/129/48
f 7/130/49 6/122/45 67/123/45 68/131/49
f 11/132/50 10/124/46 71/125/46 72/133/50
f 4/24/13 3/128/48 63/129/48 65/25/13
f 8/115/42 7/130/49 68/131/49 69/116/42
f 12/119/44 11/132/50 72/133/50 73/120/44
f 69/116/51 68/131/52 79/134/52 78/135/51
f 68/131/53 75/136/53 84/137/53 79/134/53
f 74/121/54 62/138/54 82/139/54 81/140/54
f 66/141/40 65/142/40 75/143/40
f 70/144/40 62/145/40 71/146/40
f 72/147/40 62/145/40 73/148/40
f 62/145/40 72/147/40 71/146/40
f 75/136/53 63/129/53 76/149/53 84/137/53
f 65/142/40 63/150/40 75/143/40
f 75/143/40 68/151/40 67/152/40
f 62/145/40 74/153/40 73/148/40
f 63/129/55 64/127/56 77/154/56 76/149/55
f 66/141/40 75/143/40 67/152/40
f 64/127/56 74/121/57 81/140/57 77/154/56
f 84/155/40 83/156/40 78/157/40 79/158/40
f 77/159/40 81/160/40 82/161/40 83/156/40
f 83/156/40 82/161/40 80/162/40 78/157/40
f 76/163/40 77/159/40 83/156/40 84/155/40
f 62/138/54 70/117/54 80/164/54 82/139/54
f 70/117/58 69/116/51 78/135/51 80/164/58
f 1/77/39 38/111/39 39/78/39
f 14/165/28 17/166/38 156/167/38 91/168/28
f 91/169/28 156/170/38 155/171/38 92/172/28
f 92/173/28 155/174/38 154/175/38 93/176/28
f 93/177/28 154/178/38 153/179/38 94/180/28
f 94/181/28 153/182/38 152/183/38 95/184/28
f 95/185/28 152/186/38 151/187/38 96/188/28
f 17/166/38 19/189/37 150/190/37 156/167/38
f 156/170/38 150/191/37 149/192/37 155/171/38
f 155/174/38 149/193/37 148/194/37 154/175/38
f 154/178/38 148/195/37 147/196/37 153/179/38
f 153/182/38 147/197/37 146/198/37 152/183/38
f 152/186/38 146/199/37 145/200/37 151/187/38
f 19/189/37 21/201/36 144/202/36 150/190/37
f 150/191/37 144/203/36 143/204/36 149/192/37
f 149/193/37 143/205/36 142/206/36 148/194/37
f 148/195/37 142/207/36 141/208/36 147/196/37
f 147/197/37 141/209/36 140/210/36 146/198/37
f 146/199/37 140/211/36 139/212/36 145/200/37
f 21/201/36 23/213/35 138/214/35 144/202/36
f 144/203/36 138/215/35 137/216/35 143/204/36
f 143/205/36 137/217/35 136/218/35 142/206/36
f 142/207/36 136/219/35 135/220/35 141/208/36
f 141/209/36 135/221/35 134/222/35 140/210/36
f 140/211/36 134/223/35 133/224/35 139/212/36
f 23/213/35 25/225/34 132/226/34 138/214/35
f 138/215/35 132/227/34 131/228/34 137/216/35
f 137/217/35 131/229/34 130/230/34 136/218/35
f 136/219/35 130/231/34 129/232/34 135/220/35
f 135/221/35 129/233/34 128/234/34 134/222/35
f 134/223/35 128/235/34 127/236/34 133/224/35
f 25/225/34 27/237/33 126/238/33 132/226/34
f 132/227/34 126/239/33 125/240/33 131/228/34
f 131/229/34 125/241/33 124/242/33 130/230/34
f 130/231/34 124/243/33 123/244/33 129/232/34
f 129/233/34 123/245/33 122/246/33 128/234/34
f 128/235/34 122/247/33 121/248/33 127/236/34
f 27/237/33 29/249/32 120/250/32 126/238/33
f 126/239/33 120/251/32 119/252/32 125/240/33
f 125/241/33 119/253/32 118/254/32 124/242/33
f 124/243/33 118/255/32 117/256/32 123/244/33
f 123/245/33 117/257/32 116/258/32 122/246/33
f 122/247/33 116/259/32 115/260/32 121/248/33
f 29/249/32 31/261/31 114/262/31 120/250/32
f 120/251/32 114/263/31 113/264/31 119/252/32
f 119/253/32 113/265/31 112/266/31 118/254/32
f 118/255/32 112/267/31 111/268/31 117/256/32
f 117/257/32 111/269/31 110/270/31 116/258/32
f 116/259/32 110/271/31 109/272/31 115/260/32
f 31/261/31 33/273/30 108/274/30 114/262/31
f 114/263/31 108/275/30 107/276/30 113/264/31
f 113/265/31 107/277/30 106/278/30 112/266/31
f 112/267/31 106/279/30 105/280/30 111/268/31
f 111/269/31 105/281/30 104/282/30 110/270/31
f 110/271/31 104/283/30 103/284/30 109/272/31
f 33/273/30 35/285/29 102/286/29 108/274/30
f 108/275/30 102/287/29 101/288/29 107/276/30
f 107/277/30 101/289/29 100/290/29 106/278/30
f 106/279/30 100/291/29 99/292/29 105/280/30
f 105/281/30 99/293/29 98/294/29 104/282/30
f 104/283/30 98/295/29 97/296/29 103/284/30
f 35/285/29 37/297/27 90/298/27 102/286/29
f 102/287/29 90/299/27 89/300/27 101/288/29
f 101/289/29 89/301/27 88/302/27 100/290/29
f 100/291/29 88/303/27 87/304/27 99/292/29
f 99/293/29 87/305/27 86/306/27 98/294/29
f 98/295/29 86/307/27 85/308/27 97/296/29
f 37/297/27 14/165/28 91/168/28 90/298/27
f 90/299/27 91/169/28 92/172/28 89/300/27
f 89/301/27 92/173/28 93/176/28 88/302/27
f 88/303/27 93/177/28 94/180/28 87/304/27
f 87/305/27 94/181/28 95/184/28 86/306/27
f 86/307/27 95/185/28 96/188/28 85/308/27
