# Blender v3.4.1 OBJ File: 'Resource_Bits_Export.blend'
# www.blender.org
mtllib Money_Single.mtl
o Money_Single
v 0.000000 0.128023 -0.050000
v 0.000000 0.128023 0.050000
v 0.064011 0.110871 -0.050000
v 0.064011 0.110871 0.050000
v 0.110871 0.064012 -0.050000
v 0.110871 0.064011 0.050000
v 0.128023 -0.000000 -0.050000
v 0.128023 -0.000000 0.050000
v 0.110871 -0.064012 -0.050000
v 0.110871 -0.064012 0.050000
v 0.064012 -0.110871 -0.050000
v 0.064012 -0.110871 0.050000
v -0.000000 -0.128023 -0.050000
v -0.000000 -0.128023 0.050000
v -0.064011 -0.110871 -0.050000
v -0.064011 -0.110871 0.050000
v -0.110871 -0.064011 -0.050000
v -0.110871 -0.064011 0.050000
v -0.128023 0.000000 -0.050000
v -0.128023 -0.000000 0.050000
v -0.110871 0.064011 -0.050000
v -0.110871 0.064011 0.050000
v -0.064012 0.110871 -0.050000
v -0.064012 0.110871 0.050000
v 0.000000 0.200000 0.033202
v 0.000000 0.200000 -0.033202
v 0.100000 0.173205 -0.033202
v 0.100000 0.173205 0.033202
v 0.173205 0.100000 -0.033202
v 0.173205 0.100000 0.033202
v 0.200000 -0.000000 -0.033202
v 0.200000 -0.000000 0.033202
v 0.173205 -0.100000 -0.033202
v 0.173205 -0.100000 0.033202
v 0.100000 -0.173205 -0.033202
v 0.100000 -0.173205 0.033202
v -0.000000 -0.200000 -0.033202
v -0.000000 -0.200000 0.033202
v -0.100000 -0.173205 -0.033202
v -0.100000 -0.173205 0.033202
v -0.173205 -0.100000 -0.033202
v -0.173205 -0.100000 0.033202
v -0.200000 0.000000 -0.033202
v -0.200000 0.000000 0.033202
v -0.173205 0.100000 -0.033202
v -0.173205 0.100000 0.033202
v -0.100000 0.173205 -0.033202
v -0.100000 0.173205 0.033202
v 0.000000 0.175201 -0.050000
v 0.087601 0.151729 -0.050000
v 0.087601 0.151729 0.050000
v 0.000000 0.175201 0.050000
v 0.151729 0.087601 -0.050000
v 0.151729 0.087601 0.050000
v 0.175201 -0.000000 -0.050000
v 0.175201 -0.000000 0.050000
v 0.151729 -0.087601 -0.050000
v 0.151729 -0.087601 0.050000
v 0.087601 -0.151729 -0.050000
v 0.087601 -0.151729 0.050000
v -0.000000 -0.175201 -0.050000
v -0.000000 -0.175201 0.050000
v -0.087601 -0.151729 -0.050000
v -0.087601 -0.151729 0.050000
v -0.151729 -0.087601 -0.050000
v -0.151729 -0.087601 0.050000
v -0.175201 0.000000 -0.050000
v -0.175201 -0.000000 0.050000
v -0.151729 0.087601 -0.050000
v -0.151729 0.087601 0.050000
v -0.087601 0.151729 -0.050000
v -0.087601 0.151729 0.050000
v -0.045557 -0.000000 -0.022727
v -0.045557 -0.000000 0.022727
v 0.000000 0.091115 -0.022727
v 0.045557 0.078908 -0.022727
v 0.078908 0.045557 -0.022727
v 0.091115 -0.000000 -0.022727
v 0.078908 -0.045557 -0.022727
v 0.045557 -0.078908 -0.022727
v -0.000000 -0.091115 -0.022727
v -0.045557 -0.078908 -0.022727
v -0.078908 -0.045557 -0.022727
v -0.091115 0.000000 -0.022727
v -0.078908 0.045557 -0.022727
v -0.045557 0.078908 -0.022727
v 0.045557 0.078908 0.022727
v 0.000000 0.091115 0.022727
v 0.078908 0.045557 0.022727
v 0.091115 -0.000000 0.022727
v 0.078908 -0.045557 0.022727
v 0.045557 -0.078908 0.022727
v -0.000000 -0.091115 0.022727
v -0.045557 -0.078908 0.022727
v -0.078908 -0.045557 0.022727
v -0.091115 -0.000000 0.022727
v -0.078908 0.045557 0.022727
v -0.045557 0.078908 0.022727
v 0.045557 -0.000000 0.022727
v 0.045557 -0.000000 -0.022727
v -0.000000 0.072874 -0.046215
v 0.036437 0.063111 -0.046215
v 0.036437 0.063111 0.046215
v 0.000000 0.072874 0.046215
v 0.036437 -0.063111 -0.046215
v -0.000000 -0.072874 -0.046215
v -0.000000 -0.072874 0.046215
v 0.036437 -0.063111 0.046215
v -0.036437 -0.063111 -0.046215
v -0.036437 -0.063111 0.046215
v -0.036437 0.063111 -0.046215
v -0.036437 0.063111 0.046215
v -0.000000 -0.000000 -0.046215
v 0.036437 -0.000000 -0.046215
v -0.036437 -0.000000 -0.046215
v -0.036437 -0.000000 0.046215
v -0.000000 -0.000000 0.046215
v 0.036437 -0.000000 0.046215
vt 0.296635 0.632781
vt 0.295281 0.635755
vt 0.306204 0.637219
vt 0.306204 0.634063
vt 0.322778 0.629279
vt 0.325124 0.631757
vt 0.328051 0.626295
vt 0.325342 0.624494
vt 0.325124 0.620834
vt 0.322778 0.619710
vt 0.317127 0.616836
vt 0.315773 0.616208
vt 0.306204 0.615372
vt 0.306204 0.614926
vt 0.295281 0.616836
vt 0.296635 0.616208
vt 0.287285 0.620834
vt 0.289630 0.619710
vt 0.284358 0.626295
vt 0.287067 0.624494
vt 0.287285 0.631757
vt 0.289630 0.629279
vt 0.320188 0.632153
vt 0.318315 0.635649
vt 0.314823 0.631717
vt 0.316157 0.629229
vt 0.317127 0.635755
vt 0.315773 0.632781
vt 0.306204 0.617502
vt 0.299212 0.618439
vt 0.301228 0.623109
vt 0.306204 0.622442
vt 0.287285 0.635813
vt 0.289630 0.636937
vt 0.296635 0.640440
vt 0.295281 0.639812
vt 0.284358 0.630352
vt 0.287067 0.632153
vt 0.287285 0.624890
vt 0.289630 0.627369
vt 0.295281 0.620892
vt 0.296635 0.623866
vt 0.306204 0.619429
vt 0.306204 0.622584
vt 0.317127 0.620892
vt 0.315773 0.623866
vt 0.325124 0.624890
vt 0.322778 0.627369
vt 0.328051 0.630352
vt 0.325342 0.632153
vt 0.325124 0.635813
vt 0.322778 0.636937
vt 0.317127 0.639812
vt 0.315773 0.640440
vt 0.306204 0.641275
vt 0.306204 0.641722
vt 0.295281 0.671062
vt 0.306204 0.672525
vt 0.306204 0.668469
vt 0.295281 0.667005
vt 0.287285 0.667063
vt 0.287285 0.663007
vt 0.284358 0.661602
vt 0.284358 0.657545
vt 0.287285 0.656140
vt 0.287285 0.652084
vt 0.295281 0.652142
vt 0.295281 0.648086
vt 0.306204 0.650679
vt 0.306204 0.646622
vt 0.317127 0.652142
vt 0.317127 0.648086
vt 0.325124 0.656140
vt 0.325124 0.652084
vt 0.328051 0.661602
vt 0.328051 0.657545
vt 0.325124 0.667063
vt 0.325124 0.663007
vt 0.317127 0.671062
vt 0.317127 0.667005
vt 0.313196 0.693050
vt 0.306204 0.693986
vt 0.306204 0.696563
vt 0.315773 0.695281
vt 0.306204 0.701645
vt 0.313196 0.700708
vt 0.315773 0.702940
vt 0.306204 0.704222
vt 0.318315 0.690490
vt 0.322778 0.691779
vt 0.318315 0.698149
vt 0.322778 0.699437
vt 0.320188 0.686994
vt 0.325342 0.686994
vt 0.320188 0.694653
vt 0.325342 0.694653
vt 0.318315 0.683498
vt 0.322778 0.682210
vt 0.318315 0.691157
vt 0.322778 0.689869
vt 0.313196 0.680939
vt 0.315773 0.678708
vt 0.313196 0.688598
vt 0.315773 0.686366
vt 0.306204 0.680002
vt 0.306204 0.677426
vt 0.306204 0.687661
vt 0.306204 0.685084
vt 0.299212 0.680939
vt 0.296635 0.678708
vt 0.299212 0.688598
vt 0.296635 0.686366
vt 0.294093 0.683498
vt 0.289630 0.682210
vt 0.294093 0.691157
vt 0.289630 0.689869
vt 0.292220 0.686994
vt 0.287067 0.686994
vt 0.292220 0.694653
vt 0.287067 0.694653
vt 0.294093 0.690490
vt 0.289630 0.691779
vt 0.294093 0.698149
vt 0.289630 0.699437
vt 0.299212 0.693050
vt 0.296635 0.695281
vt 0.299212 0.700708
vt 0.296635 0.702940
vt 0.294093 0.627990
vt 0.299212 0.630550
vt 0.301228 0.631728
vt 0.297585 0.629907
vt 0.299212 0.626098
vt 0.306204 0.625161
vt 0.306204 0.624252
vt 0.301228 0.624919
vt 0.320188 0.624494
vt 0.318315 0.620998
vt 0.314823 0.624930
vt 0.316157 0.627419
vt 0.299212 0.638208
vt 0.294093 0.635649
vt 0.297585 0.631717
vt 0.301228 0.633538
vt 0.294093 0.620998
vt 0.297585 0.624930
vt 0.318315 0.628657
vt 0.314823 0.626741
vt 0.306204 0.631486
vt 0.306204 0.632395
vt 0.313196 0.630550
vt 0.311180 0.631728
vt 0.294093 0.628657
vt 0.297585 0.626741
vt 0.313196 0.618439
vt 0.311180 0.623109
vt 0.306204 0.639145
vt 0.306204 0.634205
vt 0.313196 0.638208
vt 0.311180 0.633538
vt 0.292220 0.624494
vt 0.296251 0.627419
vt 0.313196 0.626098
vt 0.311180 0.624919
vt 0.318315 0.627990
vt 0.314823 0.629907
vt 0.292220 0.632153
vt 0.296251 0.629229
vt 0.316157 0.658669
vt 0.311180 0.658669
vt 0.314823 0.661157
vt 0.311180 0.627419
vt 0.310184 0.624900
vt 0.310184 0.628347
vt 0.310184 0.628300
vt 0.306204 0.627767
vt 0.296251 0.658669
vt 0.297585 0.661157
vt 0.301228 0.658669
vt 0.297585 0.656180
vt 0.311180 0.629229
vt 0.310184 0.631747
vt 0.301228 0.662978
vt 0.314823 0.656180
vt 0.306204 0.620920
vt 0.310184 0.621453
vt 0.311180 0.662978
vt 0.301228 0.654359
vt 0.302224 0.690847
vt 0.306204 0.691380
vt 0.306204 0.687400
vt 0.302224 0.687400
vt 0.301228 0.629229
vt 0.302224 0.631747
vt 0.302224 0.635194
vt 0.311180 0.654359
vt 0.316157 0.660479
vt 0.314823 0.662967
vt 0.311180 0.660479
vt 0.301228 0.656169
vt 0.301228 0.660479
vt 0.297585 0.657991
vt 0.296251 0.660479
vt 0.297585 0.662967
vt 0.310184 0.635194
vt 0.311180 0.664788
vt 0.311180 0.656169
vt 0.314823 0.657991
vt 0.301228 0.664788
vt 0.306204 0.635727
vt 0.306204 0.683420
vt 0.302224 0.683953
vt 0.310184 0.690847
vt 0.310184 0.687400
vt 0.310184 0.683953
vt 0.310184 0.694247
vt 0.306204 0.694247
vt 0.306204 0.690267
vt 0.310184 0.690800
vt 0.306204 0.698227
vt 0.302224 0.697694
vt 0.302224 0.694247
vt 0.302224 0.690800
vt 0.310184 0.697694
vt 0.302224 0.628300
vt 0.302224 0.621453
vt 0.301228 0.627419
vt 0.302224 0.628347
vt 0.302224 0.624900
vt 0.306204 0.628880
vn -0.2804 0.4857 -0.8279
vn -0.0000 0.5608 -0.8279
vn 0.4857 0.2804 -0.8279
vn 0.5608 0.0000 -0.8279
vn 0.4857 -0.2804 -0.8279
vn 0.2804 -0.4857 -0.8279
vn 0.0000 -0.5608 -0.8279
vn -0.2804 -0.4857 -0.8279
vn -0.4857 -0.2804 -0.8279
vn -0.5608 -0.0000 -0.8279
vn -0.4857 0.2804 -0.8279
vn -0.5943 0.0000 0.8043
vn -0.5147 -0.2971 0.8043
vn 0.2804 0.4857 -0.8279
vn 0.0000 0.5943 -0.8043
vn 0.2971 0.5147 -0.8043
vn -0.4857 0.2804 0.8279
vn -0.2804 0.4857 0.8279
vn -0.5608 -0.0000 0.8279
vn -0.4857 -0.2804 0.8279
vn -0.2804 -0.4857 0.8279
vn -0.0000 -0.5608 0.8279
vn 0.2804 -0.4857 0.8279
vn 0.4857 -0.2804 0.8279
vn 0.5608 -0.0000 0.8279
vn 0.4857 0.2804 0.8279
vn 0.2804 0.4857 0.8279
vn 0.0000 0.5608 0.8279
vn -0.5000 0.8660 0.0000
vn -0.0000 1.0000 0.0000
vn -0.8660 0.5000 0.0000
vn -1.0000 0.0000 0.0000
vn -0.8660 -0.5000 -0.0000
vn -0.5000 -0.8660 0.0000
vn -0.0000 -1.0000 0.0000
vn 0.5000 -0.8660 0.0000
vn 0.8660 -0.5000 0.0000
vn 1.0000 -0.0000 0.0000
vn 0.8660 0.5000 0.0000
vn 0.5000 0.8660 0.0000
vn 0.0000 0.0000 -1.0000
vn 0.0000 0.0000 1.0000
vn 0.5147 -0.2971 -0.8043
vn 0.2971 -0.5147 -0.8043
vn 0.2971 0.5147 0.8043
vn 0.0000 0.5943 0.8043
vn -0.5943 0.0000 -0.8043
vn -0.5147 0.2971 -0.8043
vn 0.2971 -0.5147 0.8043
vn 0.5147 -0.2971 0.8043
vn 0.5147 0.2971 -0.8043
vn -0.5147 0.2971 0.8043
vn 0.0000 -0.5943 -0.8043
vn -0.2971 -0.5147 -0.8043
vn 0.5147 0.2971 0.8043
vn -0.2971 0.5147 -0.8043
vn 0.0000 -0.5943 0.8043
vn -0.2971 -0.5147 0.8043
vn 0.5943 -0.0000 -0.8043
vn -0.2971 0.5147 0.8043
vn -0.5147 -0.2971 -0.8043
vn 0.5943 -0.0000 0.8043
vn 0.9322 0.0000 -0.3620
vn -0.0000 -0.7898 0.6134
vn 0.2070 -0.7727 0.6001
vn 0.9322 0.0000 0.3620
vn 0.2070 -0.7727 -0.6001
vn -0.0000 -0.7898 -0.6134
vn -0.9322 -0.0000 0.3620
vn 0.2070 0.7727 0.6001
vn 0.0000 0.7898 0.6134
vn -0.2070 0.7727 0.6001
vn -0.2070 -0.7727 -0.6001
vn -0.9322 -0.0000 -0.3620
vn -0.2070 -0.7727 0.6001
vn -0.2070 0.7727 -0.6001
vn -0.0000 0.7898 -0.6134
vn 0.2070 0.7727 -0.6001
usemtl resource
s 1
f 71/1/1 47/2/1 26/3/2 49/4/2
f 53/5/3 29/6/3 31/7/4 55/8/4
f 55/8/4 31/7/4 33/9/5 57/10/5
f 57/10/5 33/9/5 35/11/6 59/12/6
f 59/12/6 35/11/6 37/13/7 61/14/7
f 61/14/7 37/13/7 39/15/8 63/16/8
f 63/16/8 39/15/8 41/17/9 65/18/9
f 65/18/9 41/17/9 43/19/10 67/20/10
f 67/20/10 43/19/10 45/21/11 69/22/11
f 69/22/11 45/21/11 47/2/1 71/1/1
f 8/23/12 6/24/13 89/25/13 90/26/12
f 49/4/2 26/3/2 27/27/14 50/28/14
f 13/29/15 15/30/16 82/31/16 81/32/15
f 50/28/14 27/27/14 29/6/3 53/5/3
f 46/33/17 70/34/17 72/35/18 48/36/18
f 44/37/19 68/38/19 70/34/17 46/33/17
f 42/39/20 66/40/20 68/38/19 44/37/19
f 40/41/21 64/42/21 66/40/20 42/39/20
f 38/43/22 62/44/22 64/42/21 40/41/21
f 36/45/23 60/46/23 62/44/22 38/43/22
f 34/47/24 58/48/24 60/46/23 36/45/23
f 32/49/25 56/50/25 58/48/24 34/47/24
f 30/51/26 54/52/26 56/50/25 32/49/25
f 28/53/27 51/54/27 54/52/26 30/51/26
f 25/55/28 52/56/28 51/54/27 28/53/27
f 48/57/29 25/58/30 26/59/30 47/60/29
f 46/61/31 48/57/29 47/60/29 45/62/31
f 44/63/32 46/61/31 45/62/31 43/64/32
f 42/65/33 44/63/32 43/64/32 41/66/33
f 40/67/34 42/65/33 41/66/33 39/68/34
f 38/69/35 40/67/34 39/68/34 37/70/35
f 36/71/36 38/69/35 37/70/35 35/72/36
f 34/73/37 36/71/36 35/72/36 33/74/37
f 32/75/38 34/73/37 33/74/37 31/76/38
f 30/77/39 32/75/38 31/76/38 29/78/39
f 28/79/40 30/77/39 29/78/39 27/80/40
f 25/58/30 28/79/40 27/80/40 26/59/30
f 48/36/18 72/35/18 52/56/28 25/55/28
f 3/81/41 1/82/41 49/83/41 50/84/41
f 2/85/42 4/86/42 51/87/42 52/88/42
f 5/89/41 3/81/41 50/84/41 53/90/41
f 4/86/42 6/91/42 54/92/42 51/87/42
f 7/93/41 5/89/41 53/90/41 55/94/41
f 6/91/42 8/95/42 56/96/42 54/92/42
f 9/97/41 7/93/41 55/94/41 57/98/41
f 8/95/42 10/99/42 58/100/42 56/96/42
f 11/101/41 9/97/41 57/98/41 59/102/41
f 10/99/42 12/103/42 60/104/42 58/100/42
f 13/105/41 11/101/41 59/102/41 61/106/41
f 12/103/42 14/107/42 62/108/42 60/104/42
f 15/109/41 13/105/41 61/106/41 63/110/41
f 14/107/42 16/111/42 64/112/42 62/108/42
f 17/113/41 15/109/41 63/110/41 65/114/41
f 16/111/42 18/115/42 66/116/42 64/112/42
f 19/117/41 17/113/41 65/114/41 67/118/41
f 18/115/42 20/119/42 68/120/42 66/116/42
f 21/121/41 19/117/41 67/118/41 69/122/41
f 20/119/42 22/123/42 70/124/42 68/120/42
f 23/125/41 21/121/41 69/122/41 71/126/41
f 22/123/42 24/127/42 72/128/42 70/124/42
f 1/82/41 23/125/41 71/126/41 49/83/41
f 24/127/42 2/85/42 52/88/42 72/128/42
f 21/129/43 23/130/44 86/131/44 85/132/43
f 16/133/45 14/134/46 93/135/46 94/136/45
f 7/137/47 9/138/48 79/139/48 78/140/47
f 24/141/49 22/142/50 97/143/50 98/144/49
f 15/30/16 17/145/51 83/146/51 82/31/16
f 10/147/52 8/23/12 90/26/12 91/148/52
f 23/130/44 1/149/53 75/150/53 86/131/44
f 1/149/53 3/151/54 76/152/54 75/150/53
f 18/153/55 16/133/45 94/136/45 95/154/55
f 9/138/48 11/155/56 80/156/56 79/139/48
f 2/157/57 24/141/49 98/144/49 88/158/57
f 4/159/58 2/157/57 88/158/57 87/160/58
f 17/145/51 19/161/59 84/162/59 83/146/51
f 12/163/60 10/147/52 91/148/52 92/164/60
f 3/151/54 5/165/61 77/166/61 76/152/54
f 20/167/62 18/153/55 95/154/55 96/168/62
f 11/155/56 13/29/15 81/32/15 80/156/56
f 6/24/13 4/159/58 87/160/58 89/25/13
f 19/161/59 21/129/43 85/132/43 84/162/59
f 14/134/46 12/163/60 92/164/60 93/135/46
f 5/165/61 7/137/47 78/140/47 77/166/61
f 22/142/50 20/167/62 96/168/62 97/143/50
f 78/169/41 100/170/41 77/171/41
f 76/152/63 100/172/63 114/173/63 102/174/63
f 93/135/64 92/164/65 108/175/65 107/176/64
f 84/177/41 85/178/41 73/179/41
f 84/177/41 73/179/41 83/180/41
f 92/164/66 99/181/66 118/182/66 108/175/66
f 85/178/41 86/183/41 73/179/41
f 100/170/41 78/169/41 79/184/41
f 80/156/67 81/32/68 106/185/68 105/186/67
f 100/170/41 76/187/41 77/171/41
f 73/179/41 82/188/41 83/180/41
f 111/189/41 101/190/41 113/191/41 115/192/41
f 98/144/69 74/193/69 116/194/69 112/195/69
f 80/196/41 100/170/41 79/184/41
f 90/197/42 89/198/42 99/199/42
f 94/200/42 74/201/42 95/202/42
f 96/203/42 74/201/42 97/204/42
f 74/201/42 96/203/42 95/202/42
f 99/181/66 87/160/66 103/205/66 118/182/66
f 89/198/42 87/206/42 99/199/42
f 99/199/42 92/207/42 91/208/42
f 74/201/42 98/209/42 97/204/42
f 87/160/70 88/158/71 104/210/71 103/205/70
f 90/197/42 99/199/42 91/208/42
f 88/158/71 98/144/72 112/195/72 104/210/71
f 115/192/41 113/191/41 106/211/41 109/212/41
f 101/190/41 102/213/41 114/214/41 113/191/41
f 113/191/41 114/214/41 105/215/41 106/211/41
f 118/216/42 117/217/42 107/218/42 108/219/42
f 104/220/42 112/221/42 116/222/42 117/217/42
f 117/217/42 116/222/42 110/223/42 107/218/42
f 103/224/42 104/220/42 117/217/42 118/216/42
f 74/193/69 94/136/69 110/225/69 116/194/69
f 81/32/68 82/31/73 109/226/73 106/185/68
f 73/227/74 86/131/74 111/228/74 115/229/74
f 94/136/75 93/135/64 107/176/64 110/225/75
f 100/172/63 80/156/63 105/186/63 114/173/63
f 82/31/74 73/227/74 115/229/74 109/226/74
f 86/131/76 75/150/77 101/230/77 111/228/76
f 75/150/77 76/152/78 102/174/78 101/230/77
