# Blender v3.4.1 OBJ File: 'Resource_Bits_Export.blend'
# www.blender.org
mtllib Money_Bills_Stack_Small.mtl
o Money_Bills_Stack_Small
v -0.150000 0.100000 0.300000
v -0.150000 0.100000 -0.300000
v 0.150000 0.100000 0.300000
v 0.150000 0.100000 -0.300000
v -0.124221 0.100000 0.274221
v -0.124221 0.100000 -0.274221
v 0.124221 0.100000 -0.274221
v 0.124221 0.100000 0.274221
v -0.036233 0.100000 0.214925
v -0.036233 0.100000 -0.214925
v 0.036233 0.100000 -0.214925
v 0.036233 0.100000 0.214925
v 0.050795 0.100000 0.063557
v 0.050795 0.100000 -0.063557
v -0.050795 0.100000 -0.063557
v -0.050795 0.100000 0.063557
v 0.000000 0.100000 -0.000000
v 0.000000 0.100000 0.161496
v 0.071189 0.100000 0.000000
v 0.000000 0.100000 -0.161496
v -0.071189 0.100000 0.000000
v -0.097294 0.100000 -0.247294
v 0.097294 0.100000 -0.247294
v 0.097294 0.100000 0.247294
v -0.097294 0.100000 0.247294
v 0.000000 0.100000 -0.090714
v 0.000000 0.100000 0.090714
v -0.124221 0.000000 0.274221
v -0.124221 0.000000 -0.274221
v 0.124221 0.000000 -0.274221
v 0.124221 0.000000 0.274221
v -0.150000 0.000000 0.300000
v -0.150000 0.000000 -0.300000
v 0.150000 0.000000 -0.300000
v 0.150000 0.000000 0.300000
v -0.097294 0.000000 0.247294
v -0.097294 0.000000 -0.247294
v 0.097294 0.000000 -0.247294
v 0.097294 0.000000 0.247294
v -0.000000 -0.000000 0.090714
v 0.050795 -0.000000 0.063557
v 0.071189 -0.000000 0.000000
v 0.050795 -0.000000 -0.063557
v -0.000000 -0.000000 -0.090714
v -0.050795 -0.000000 -0.063557
v -0.071189 -0.000000 0.000000
v -0.050795 -0.000000 0.063557
v 0.036233 0.000000 -0.214925
v -0.036233 0.000000 -0.214925
v -0.036233 0.000000 0.214925
v 0.036233 0.000000 0.214925
v -0.000000 -0.000000 -0.000000
v -0.000000 0.000000 -0.161496
v -0.000000 0.000000 0.161496
v 0.146234 0.075000 0.292467
v 0.144246 0.050000 0.288492
v 0.146234 0.025000 0.292467
v -0.146233 0.025000 0.292467
v -0.144246 0.050000 0.288492
v -0.146233 0.075000 0.292467
v -0.146233 0.075000 -0.292467
v -0.144246 0.050000 -0.288492
v -0.146233 0.025000 -0.292467
v 0.146234 0.025000 -0.292467
v 0.144246 0.050000 -0.288492
v 0.146234 0.075000 -0.292467
v -0.160000 -0.010000 0.075000
v -0.160000 0.110000 0.075000
v -0.160000 -0.010000 -0.075000
v -0.160000 0.110000 -0.075000
v 0.160000 -0.010000 0.075000
v 0.160000 0.110000 0.075000
v 0.160000 -0.010000 -0.075000
v 0.160000 0.110000 -0.075000
v -0.160000 -0.010000 -0.040717
v -0.160000 -0.010000 0.040717
v -0.160000 0.110000 0.040717
v -0.160000 0.110000 -0.040717
v 0.160000 -0.010000 0.040717
v 0.160000 -0.010000 -0.040717
v 0.160000 0.110000 -0.040717
v 0.160000 0.110000 0.040717
vt 0.417861 0.294845
vt 0.417861 0.413465
vt 0.412666 0.419041
vt 0.412666 0.289269
vt 0.467927 0.413465
vt 0.473122 0.419041
vt 0.467927 0.294845
vt 0.473122 0.289269
vt 0.423287 0.369159
vt 0.423287 0.476132
vt 0.417861 0.481955
vt 0.417861 0.363335
vt 0.462501 0.476132
vt 0.467927 0.481955
vt 0.462501 0.369159
vt 0.467927 0.363335
vt 0.435592 0.307670
vt 0.442894 0.319226
vt 0.442894 0.334535
vt 0.432658 0.340409
vt 0.423287 0.300669
vt 0.428548 0.354155
vt 0.442894 0.422645
vt 0.432658 0.408899
vt 0.442894 0.403025
vt 0.462501 0.407642
vt 0.450195 0.400641
vt 0.453130 0.367902
vt 0.457240 0.354155
vt 0.457240 0.422645
vt 0.453130 0.436392
vt 0.442894 0.442266
vt 0.432658 0.436392
vt 0.428548 0.422645
vt 0.453130 0.408899
vt 0.462501 0.300669
vt 0.435592 0.400641
vt 0.423287 0.407642
vt 0.432658 0.367902
vt 0.442894 0.389085
vt 0.442894 0.373776
vt 0.435592 0.469131
vt 0.442894 0.457575
vt 0.450195 0.469131
vt 0.442894 0.387716
vt 0.435592 0.376160
vt 0.450195 0.376160
vt 0.450195 0.307670
vt 0.453130 0.340409
vt 0.417861 0.294845
vt 0.412666 0.289269
vt 0.412666 0.419041
vt 0.417861 0.413465
vt 0.473122 0.419041
vt 0.467927 0.413465
vt 0.473122 0.289269
vt 0.467927 0.294845
vt 0.423287 0.369159
vt 0.417861 0.363335
vt 0.417861 0.481955
vt 0.423287 0.476132
vt 0.467927 0.481955
vt 0.462501 0.476132
vt 0.467927 0.363335
vt 0.462501 0.369159
vt 0.435592 0.307670
vt 0.432658 0.340409
vt 0.442894 0.334535
vt 0.442894 0.319226
vt 0.423287 0.300669
vt 0.428548 0.354155
vt 0.442894 0.422645
vt 0.442894 0.403025
vt 0.432658 0.408899
vt 0.462501 0.407642
vt 0.457240 0.354155
vt 0.453130 0.367902
vt 0.450195 0.400641
vt 0.453130 0.436392
vt 0.457240 0.422645
vt 0.432658 0.436392
vt 0.442894 0.442266
vt 0.428548 0.422645
vt 0.453130 0.408899
vt 0.462501 0.300669
vt 0.435592 0.400641
vt 0.432658 0.367902
vt 0.423287 0.407642
vt 0.442894 0.373776
vt 0.442894 0.389085
vt 0.435592 0.469131
vt 0.450195 0.469131
vt 0.442894 0.457575
vt 0.442894 0.387716
vt 0.450195 0.376160
vt 0.435592 0.376160
vt 0.453130 0.340409
vt 0.450195 0.307670
vt 0.412666 0.435551
vt 0.412666 0.404301
vt 0.473122 0.404301
vt 0.473122 0.435551
vt 0.473122 0.481490
vt 0.473122 0.450240
vt 0.412666 0.450240
vt 0.412666 0.481490
vt 0.412666 0.481490
vt 0.412666 0.450240
vt 0.412666 0.404301
vt 0.412666 0.435551
vt 0.412666 0.481490
vt 0.412666 0.450239
vt 0.412666 0.404301
vt 0.412666 0.435551
vt 0.412666 0.481489
vt 0.412666 0.450240
vt 0.412666 0.404301
vt 0.412666 0.435551
vt 0.473122 0.435551
vt 0.473122 0.404301
vt 0.473122 0.450240
vt 0.473122 0.481490
vt 0.473122 0.435551
vt 0.473122 0.404301
vt 0.473122 0.450239
vt 0.473122 0.481490
vt 0.473122 0.435551
vt 0.473122 0.404301
vt 0.473122 0.450240
vt 0.473122 0.481489
vt 0.273052 0.624777
vt 0.273052 0.660768
vt 0.273052 0.660768
vt 0.273052 0.624777
vt 0.276014 0.607005
vt 0.276014 0.642995
vt 0.348397 0.642995
vt 0.348397 0.607005
vt 0.345435 0.624777
vt 0.345435 0.660768
vt 0.345435 0.660768
vt 0.345435 0.624777
vt 0.348397 0.607005
vt 0.348397 0.642995
vt 0.276014 0.642995
vt 0.276014 0.607005
vt 0.273052 0.624777
vt 0.273052 0.624777
vt 0.273052 0.660768
vt 0.273052 0.660768
vt 0.345435 0.660768
vt 0.345435 0.660768
vt 0.221025 0.847384
vt 0.148641 0.847384
vt 0.148641 0.847384
vt 0.221025 0.847384
vt 0.345435 0.624777
vt 0.345435 0.624777
vt 0.148641 0.811393
vt 0.221025 0.811393
vt 0.221025 0.811393
vt 0.148641 0.811393
vn 0.0000 1.0000 0.0000
vn 0.0000 -1.0000 0.0000
vn 0.0000 0.2278 0.9737
vn 0.0000 0.2885 0.9575
vn 0.0000 0.2278 -0.9737
vn 0.0000 0.2885 -0.9575
vn 0.9929 0.1189 0.0000
vn 0.9888 0.1490 0.0000
vn -0.9929 0.1189 -0.0000
vn -0.9888 0.1490 0.0000
vn -0.9888 -0.1490 0.0000
vn -0.9929 -0.1189 0.0000
vn -1.0000 0.0000 -0.0000
vn 0.9888 -0.1490 0.0000
vn 0.9929 -0.1189 0.0000
vn 1.0000 0.0000 0.0000
vn 0.0000 -0.2885 -0.9575
vn 0.0000 -0.2278 -0.9737
vn 0.0000 0.0000 -1.0000
vn 0.0000 -0.2885 0.9575
vn -0.0000 -0.2278 0.9737
vn -0.0000 0.0000 1.0000
usemtl resource
s 1
f 5/1/1 6/2/1 2/3/1 1/4/1
f 6/2/1 7/5/1 4/6/1 2/3/1
f 7/5/1 8/7/1 3/8/1 4/6/1
f 8/7/1 5/1/1 1/4/1 3/8/1
f 25/9/1 22/10/1 6/11/1 5/12/1
f 22/10/1 23/13/1 7/14/1 6/11/1
f 23/13/1 24/15/1 8/16/1 7/14/1
f 24/15/1 25/9/1 5/12/1 8/16/1
f 9/17/1 18/18/1 27/19/1 16/20/1
f 25/21/1 9/17/1 16/20/1 21/22/1
f 17/23/1 16/24/1 27/25/1
f 23/26/1 11/27/1 14/28/1 19/29/1
f 17/23/1 19/30/1 14/31/1
f 17/23/1 26/32/1 15/33/1
f 17/23/1 21/34/1 16/24/1
f 17/23/1 15/33/1 21/34/1
f 17/23/1 14/31/1 26/32/1
f 17/23/1 13/35/1 19/30/1
f 23/26/1 19/29/1 24/36/1
f 10/37/1 22/38/1 21/22/1 15/39/1
f 25/21/1 21/22/1 22/38/1
f 11/27/1 20/40/1 26/41/1 14/28/1
f 10/42/1 20/43/1 11/44/1
f 18/45/1 9/46/1 12/47/1
f 18/18/1 12/48/1 13/49/1 27/19/1
f 17/23/1 27/25/1 13/35/1
f 10/37/1 11/27/1 23/26/1 22/38/1
f 12/48/1 9/17/1 25/21/1 24/36/1
f 20/40/1 10/37/1 15/39/1 26/41/1
f 12/48/1 24/36/1 19/29/1 13/49/1
f 28/50/2 32/51/2 33/52/2 29/53/2
f 29/53/2 33/52/2 34/54/2 30/55/2
f 30/55/2 34/54/2 35/56/2 31/57/2
f 31/57/2 35/56/2 32/51/2 28/50/2
f 36/58/2 28/59/2 29/60/2 37/61/2
f 37/61/2 29/60/2 30/62/2 38/63/2
f 38/63/2 30/62/2 31/64/2 39/65/2
f 39/65/2 31/64/2 28/59/2 36/58/2
f 50/66/2 47/67/2 40/68/2 54/69/2
f 36/70/2 46/71/2 47/67/2 50/66/2
f 52/72/2 40/73/2 47/74/2
f 38/75/2 42/76/2 43/77/2 48/78/2
f 52/72/2 43/79/2 42/80/2
f 52/72/2 45/81/2 44/82/2
f 52/72/2 47/74/2 46/83/2
f 52/72/2 46/83/2 45/81/2
f 52/72/2 44/82/2 43/79/2
f 52/72/2 42/80/2 41/84/2
f 38/75/2 39/85/2 42/76/2
f 49/86/2 45/87/2 46/71/2 37/88/2
f 36/70/2 37/88/2 46/71/2
f 48/78/2 43/77/2 44/89/2 53/90/2
f 49/91/2 48/92/2 53/93/2
f 54/94/2 51/95/2 50/96/2
f 54/69/2 40/68/2 41/97/2 51/98/2
f 52/72/2 41/84/2 40/73/2
f 49/86/2 37/88/2 38/75/2 48/78/2
f 51/98/2 39/85/2 36/70/2 50/66/2
f 53/90/2 44/89/2 45/87/2 49/86/2
f 51/98/2 41/97/2 42/76/2 39/85/2
f 58/99/3 32/100/4 35/101/4 57/102/3
f 64/103/5 34/104/6 33/105/6 63/106/5
f 57/102/7 35/101/8 34/104/8 64/103/7
f 63/106/9 33/105/10 32/100/10 58/99/9
f 2/107/11 61/108/12 60/109/12 1/110/11
f 61/111/12 62/112/13 59/113/13 60/114/12
f 62/115/13 63/116/9 58/117/9 59/118/13
f 3/119/14 55/120/15 66/121/15 4/122/14
f 55/123/15 56/124/16 65/125/16 66/126/15
f 56/127/16 57/128/7 64/129/7 65/130/16
f 4/122/17 66/121/18 61/108/18 2/107/17
f 66/126/18 65/125/19 62/112/19 61/111/18
f 65/130/19 64/129/5 63/116/5 62/115/19
f 1/110/20 60/109/21 55/120/21 3/119/20
f 60/114/21 59/113/22 56/124/22 55/123/21
f 59/118/22 58/117/3 57/128/3 56/127/22
f 75/131/13 78/132/13 70/133/13 69/134/13
f 69/135/19 70/136/19 74/137/19 73/138/19
f 79/139/16 82/140/16 72/141/16 71/142/16
f 71/143/22 72/144/22 68/145/22 67/146/22
f 76/147/2 79/139/2 71/142/2 67/148/2
f 82/140/1 77/149/1 68/150/1 72/141/1
f 74/151/1 70/133/1 78/132/1 81/152/1
f 81/153/1 78/154/1 77/155/1 82/156/1
f 69/134/2 73/157/2 80/158/2 75/131/2
f 75/159/2 80/160/2 79/161/2 76/162/2
f 73/157/16 74/151/16 81/152/16 80/158/16
f 80/160/16 81/153/16 82/156/16 79/161/16
f 67/148/13 68/150/13 77/149/13 76/147/13
f 76/162/13 77/155/13 78/154/13 75/159/13
