# Blender v3.4.1 OBJ File: 'Resource_Bits_Export.blend'
# www.blender.org
mtllib Money_Bills_Stack_Large.mtl
o Money_Bills_Stack_Large
v 0.300000 0.400000 0.300000
v 0.300000 0.400000 -0.300000
v 0.000000 0.400000 0.300000
v 0.000000 0.400000 -0.300000
v 0.274221 0.400000 0.274221
v 0.274221 0.400000 -0.274221
v 0.025779 0.400000 -0.274221
v 0.025779 0.400000 0.274221
v 0.186233 0.400000 0.214925
v 0.186233 0.400000 -0.214925
v 0.113767 0.400000 -0.214925
v 0.113767 0.400000 0.214925
v 0.099205 0.400000 0.063557
v 0.099205 0.400000 -0.063557
v 0.200795 0.400000 -0.063557
v 0.200795 0.400000 0.063557
v 0.150000 0.400000 -0.000000
v 0.150000 0.400000 0.161496
v 0.078811 0.400000 0.000000
v 0.150000 0.400000 -0.161496
v 0.221189 0.400000 0.000000
v 0.247294 0.400000 -0.247294
v 0.052706 0.400000 -0.247294
v 0.052706 0.400000 0.247294
v 0.247294 0.400000 0.247294
v 0.150000 0.400000 -0.090714
v 0.150000 0.400000 0.090714
v 0.300000 0.000000 0.300000
v 0.300000 0.000000 -0.300000
v 0.000000 0.000000 -0.300000
v 0.000000 0.000000 0.300000
v -0.300000 0.600000 -0.300000
v -0.300000 0.600000 0.300000
v -0.300000 0.000000 -0.300000
v -0.300000 0.000000 0.300000
v 0.000000 0.600000 -0.300000
v 0.000000 0.600000 0.300000
v -0.025779 0.600000 0.274221
v -0.025779 0.600000 -0.274221
v -0.274221 0.600000 -0.274221
v -0.274221 0.600000 0.274221
v -0.113767 0.600000 0.214925
v -0.113767 0.600000 -0.214925
v -0.186233 0.600000 -0.214925
v -0.186233 0.600000 0.214925
v -0.200795 0.600000 0.063557
v -0.200795 0.600000 -0.063557
v -0.099205 0.600000 -0.063557
v -0.099205 0.600000 0.063557
v -0.150000 0.600000 -0.000000
v -0.150000 0.600000 0.161496
v -0.221189 0.600000 0.000000
v -0.150000 0.600000 -0.161496
v -0.078811 0.600000 0.000000
v -0.052706 0.600000 -0.247294
v -0.247294 0.600000 -0.247294
v -0.247294 0.600000 0.247294
v -0.052706 0.600000 0.247294
v -0.150000 0.600000 -0.090714
v -0.150000 0.600000 0.090714
v -0.010000 -0.010000 0.026177
v -0.010000 0.410000 0.026177
v -0.010000 -0.010000 -0.123823
v -0.010000 0.410000 -0.123823
v 0.310000 -0.010000 0.026177
v 0.310000 0.410000 0.026177
v 0.310000 -0.010000 -0.123823
v 0.310000 0.410000 -0.123823
v -0.010000 -0.010000 -0.089539
v -0.010000 -0.010000 -0.008106
v -0.010000 0.410000 -0.008106
v -0.010000 0.410000 -0.089539
v 0.310000 -0.010000 -0.008106
v 0.310000 -0.010000 -0.089539
v 0.310000 0.410000 -0.089539
v 0.310000 0.410000 -0.008106
v -0.310001 -0.010000 0.101774
v -0.310001 0.610000 0.101774
v -0.310001 -0.010000 -0.048226
v -0.310001 0.610000 -0.048226
v 0.009999 -0.010000 0.101774
v 0.009999 0.610000 0.101774
v 0.009999 -0.010000 -0.048226
v 0.009999 0.610000 -0.048226
v -0.310001 -0.010000 -0.013943
v -0.310001 -0.010000 0.067490
v -0.310001 0.610000 0.067490
v -0.310001 0.610000 -0.013943
v 0.009999 -0.010000 0.067490
v 0.009999 -0.010000 -0.013943
v 0.009999 0.610000 -0.013943
v 0.009999 0.610000 0.067490
vt 0.417861 0.294845
vt 0.412666 0.289269
vt 0.412666 0.419041
vt 0.417861 0.413465
vt 0.473122 0.419041
vt 0.467927 0.413465
vt 0.473122 0.289269
vt 0.467927 0.294845
vt 0.423287 0.369159
vt 0.417861 0.363335
vt 0.417861 0.481955
vt 0.423287 0.476132
vt 0.467927 0.481955
vt 0.462501 0.476132
vt 0.467927 0.363335
vt 0.462501 0.369159
vt 0.435592 0.307670
vt 0.432658 0.340409
vt 0.442894 0.334535
vt 0.442894 0.319226
vt 0.423287 0.300669
vt 0.428548 0.354155
vt 0.442894 0.422645
vt 0.442894 0.403025
vt 0.432658 0.408899
vt 0.462501 0.407642
vt 0.457240 0.354155
vt 0.453130 0.367902
vt 0.450195 0.400641
vt 0.453130 0.436392
vt 0.457240 0.422645
vt 0.432658 0.436392
vt 0.442894 0.442266
vt 0.428548 0.422645
vt 0.453130 0.408899
vt 0.462501 0.300669
vt 0.435592 0.400641
vt 0.432658 0.367902
vt 0.423287 0.407642
vt 0.442894 0.373776
vt 0.442894 0.389085
vt 0.435592 0.469131
vt 0.450195 0.469131
vt 0.442894 0.457575
vt 0.442894 0.387716
vt 0.450195 0.376160
vt 0.435592 0.376160
vt 0.453130 0.340409
vt 0.450195 0.307670
vt 0.412666 0.263676
vt 0.473122 0.263676
vt 0.473122 0.309615
vt 0.412666 0.309615
vt 0.412666 0.450240
vt 0.412666 0.404301
vt 0.412666 0.373051
vt 0.412666 0.418990
vt 0.473122 0.450240
vt 0.473122 0.450240
vt 0.473122 0.481490
vt 0.473122 0.481490
vt 0.412666 0.481490
vt 0.412666 0.450240
vt 0.412666 0.435551
vt 0.473122 0.435551
vt 0.473122 0.404301
vt 0.412666 0.404301
vt 0.473122 0.404301
vt 0.473122 0.450240
vt 0.473122 0.418990
vt 0.473122 0.373051
vt 0.473122 0.409191
vt 0.473122 0.409191
vt 0.473122 0.409191
vt 0.473122 0.409191
vt 0.473122 0.435551
vt 0.473122 0.404301
vt 0.473122 0.263676
vt 0.473122 0.309615
vt 0.417861 0.294845
vt 0.412666 0.289269
vt 0.412666 0.419041
vt 0.417861 0.413465
vt 0.473122 0.435551
vt 0.473122 0.481490
vt 0.473122 0.419041
vt 0.467927 0.413465
vt 0.473122 0.289269
vt 0.467927 0.294845
vt 0.423287 0.369159
vt 0.417861 0.363335
vt 0.417861 0.481955
vt 0.423287 0.476132
vt 0.467927 0.481955
vt 0.462501 0.476132
vt 0.467927 0.363335
vt 0.462501 0.369159
vt 0.435592 0.307670
vt 0.432658 0.340409
vt 0.442894 0.334535
vt 0.442894 0.319226
vt 0.423287 0.300669
vt 0.428548 0.354155
vt 0.442894 0.422645
vt 0.442894 0.403025
vt 0.432658 0.408899
vt 0.462501 0.407642
vt 0.457240 0.354155
vt 0.453130 0.367902
vt 0.450195 0.400641
vt 0.453130 0.436392
vt 0.457240 0.422645
vt 0.432658 0.436392
vt 0.442894 0.442266
vt 0.428548 0.422645
vt 0.453130 0.408899
vt 0.462501 0.300669
vt 0.435592 0.400641
vt 0.432658 0.367902
vt 0.423287 0.407642
vt 0.442894 0.373776
vt 0.442894 0.389085
vt 0.435592 0.469131
vt 0.450195 0.469131
vt 0.442894 0.457575
vt 0.442894 0.387716
vt 0.450195 0.376160
vt 0.435592 0.376160
vt 0.453130 0.340409
vt 0.450195 0.307670
vt 0.273052 0.624777
vt 0.273052 0.660768
vt 0.273052 0.660768
vt 0.273052 0.624777
vt 0.276014 0.607005
vt 0.276014 0.642995
vt 0.348397 0.642995
vt 0.348397 0.607005
vt 0.345435 0.624777
vt 0.345435 0.660768
vt 0.345435 0.660768
vt 0.345435 0.624777
vt 0.348397 0.607005
vt 0.348397 0.642995
vt 0.276014 0.642995
vt 0.276014 0.607005
vt 0.273052 0.624777
vt 0.273052 0.624777
vt 0.273052 0.660768
vt 0.273052 0.660768
vt 0.345435 0.660768
vt 0.345435 0.660768
vt 0.221025 0.847384
vt 0.148641 0.847384
vt 0.148641 0.847384
vt 0.221025 0.847384
vt 0.345435 0.624777
vt 0.345435 0.624777
vt 0.148641 0.811393
vt 0.221025 0.811393
vt 0.221025 0.811393
vt 0.148641 0.811393
vt 0.273052 0.624777
vt 0.273052 0.660768
vt 0.273052 0.660768
vt 0.273052 0.624777
vt 0.276014 0.607005
vt 0.276014 0.642995
vt 0.348397 0.642995
vt 0.348397 0.607005
vt 0.345435 0.624777
vt 0.345435 0.660768
vt 0.345435 0.660768
vt 0.345435 0.624777
vt 0.348397 0.607005
vt 0.348397 0.642995
vt 0.276014 0.642995
vt 0.276014 0.607005
vt 0.273052 0.624777
vt 0.273052 0.624777
vt 0.273052 0.660768
vt 0.273052 0.660768
vt 0.345435 0.660768
vt 0.345435 0.660768
vt 0.221025 0.847384
vt 0.148641 0.847384
vt 0.148641 0.847384
vt 0.221025 0.847384
vt 0.345435 0.624777
vt 0.345435 0.624777
vt 0.148641 0.811393
vt 0.221025 0.811393
vt 0.221025 0.811393
vt 0.148641 0.811393
vn 0.0000 1.0000 0.0000
vn 0.0000 -1.0000 0.0000
vn 1.0000 0.0000 0.0000
vn -0.0000 0.0000 -1.0000
vn 0.0000 0.0000 1.0000
vn -1.0000 0.0000 0.0000
usemtl resource
s 1
f 5/1/1 1/2/1 2/3/1 6/4/1
f 6/4/1 2/3/1 4/5/1 7/6/1
f 7/6/1 4/5/1 3/7/1 8/8/1
f 8/8/1 3/7/1 1/2/1 5/1/1
f 25/9/1 5/10/1 6/11/1 22/12/1
f 22/12/1 6/11/1 7/13/1 23/14/1
f 23/14/1 7/13/1 8/15/1 24/16/1
f 24/16/1 8/15/1 5/10/1 25/9/1
f 9/17/1 16/18/1 27/19/1 18/20/1
f 25/21/1 21/22/1 16/18/1 9/17/1
f 17/23/1 27/24/1 16/25/1
f 23/26/1 19/27/1 14/28/1 11/29/1
f 17/23/1 14/30/1 19/31/1
f 17/23/1 15/32/1 26/33/1
f 17/23/1 16/25/1 21/34/1
f 17/23/1 21/34/1 15/32/1
f 17/23/1 26/33/1 14/30/1
f 17/23/1 19/31/1 13/35/1
f 23/26/1 24/36/1 19/27/1
f 10/37/1 15/38/1 21/22/1 22/39/1
f 25/21/1 22/39/1 21/22/1
f 11/29/1 14/28/1 26/40/1 20/41/1
f 10/42/1 11/43/1 20/44/1
f 18/45/1 12/46/1 9/47/1
f 18/20/1 27/19/1 13/48/1 12/49/1
f 17/23/1 13/35/1 27/24/1
f 10/37/1 22/39/1 23/26/1 11/29/1
f 12/49/1 24/36/1 25/21/1 9/17/1
f 20/41/1 26/40/1 15/38/1 10/37/1
f 12/49/1 13/48/1 19/27/1 24/36/1
f 28/50/2 31/51/2 30/52/2 29/53/2
f 2/54/3 1/55/3 28/56/3 29/57/3
f 30/58/4 34/59/4 32/60/4 4/61/4
f 4/61/4 2/62/4 29/63/4 30/58/4
f 1/64/5 3/65/5 31/66/5 28/67/5
f 33/68/6 32/69/6 34/70/6 35/71/6
f 4/72/3 36/73/3 37/74/3 3/75/3
f 3/65/5 33/76/5 35/77/5 31/66/5
f 31/51/2 35/78/2 34/79/2 30/52/2
f 38/80/1 37/81/1 36/82/1 39/83/1
f 3/65/5 37/84/5 33/76/5
f 32/60/4 36/85/4 4/61/4
f 39/83/1 36/82/1 32/86/1 40/87/1
f 40/87/1 32/86/1 33/88/1 41/89/1
f 41/89/1 33/88/1 37/81/1 38/80/1
f 58/90/1 38/91/1 39/92/1 55/93/1
f 55/93/1 39/92/1 40/94/1 56/95/1
f 56/95/1 40/94/1 41/96/1 57/97/1
f 57/97/1 41/96/1 38/91/1 58/90/1
f 42/98/1 49/99/1 60/100/1 51/101/1
f 58/102/1 54/103/1 49/99/1 42/98/1
f 50/104/1 60/105/1 49/106/1
f 56/107/1 52/108/1 47/109/1 44/110/1
f 50/104/1 47/111/1 52/112/1
f 50/104/1 48/113/1 59/114/1
f 50/104/1 49/106/1 54/115/1
f 50/104/1 54/115/1 48/113/1
f 50/104/1 59/114/1 47/111/1
f 50/104/1 52/112/1 46/116/1
f 56/107/1 57/117/1 52/108/1
f 43/118/1 48/119/1 54/103/1 55/120/1
f 58/102/1 55/120/1 54/103/1
f 44/110/1 47/109/1 59/121/1 53/122/1
f 43/123/1 44/124/1 53/125/1
f 51/126/1 45/127/1 42/128/1
f 51/101/1 60/100/1 46/129/1 45/130/1
f 50/104/1 46/116/1 60/105/1
f 43/118/1 55/120/1 56/107/1 44/110/1
f 45/130/1 57/117/1 58/102/1 42/98/1
f 53/122/1 59/121/1 48/119/1 43/118/1
f 45/130/1 46/129/1 52/108/1 57/117/1
f 69/131/6 72/132/6 64/133/6 63/134/6
f 63/135/4 64/136/4 68/137/4 67/138/4
f 73/139/3 76/140/3 66/141/3 65/142/3
f 65/143/5 66/144/5 62/145/5 61/146/5
f 70/147/2 73/139/2 65/142/2 61/148/2
f 76/140/1 71/149/1 62/150/1 66/141/1
f 68/151/1 64/133/1 72/132/1 75/152/1
f 75/153/1 72/154/1 71/155/1 76/156/1
f 63/134/2 67/157/2 74/158/2 69/131/2
f 69/159/2 74/160/2 73/161/2 70/162/2
f 67/157/3 68/151/3 75/152/3 74/158/3
f 74/160/3 75/153/3 76/156/3 73/161/3
f 61/148/6 62/150/6 71/149/6 70/147/6
f 70/162/6 71/155/6 72/154/6 69/159/6
f 85/163/6 88/164/6 80/165/6 79/166/6
f 79/167/4 80/168/4 84/169/4 83/170/4
f 89/171/3 92/172/3 82/173/3 81/174/3
f 81/175/5 82/176/5 78/177/5 77/178/5
f 86/179/2 89/171/2 81/174/2 77/180/2
f 92/172/1 87/181/1 78/182/1 82/173/1
f 84/183/1 80/165/1 88/164/1 91/184/1
f 91/185/1 88/186/1 87/187/1 92/188/1
f 79/166/2 83/189/2 90/190/2 85/163/2
f 85/191/2 90/192/2 89/193/2 86/194/2
f 83/189/3 84/183/3 91/184/3 90/190/3
f 90/192/3 91/185/3 92/188/3 89/193/3
f 77/180/6 78/182/6 87/181/6 86/179/6
f 86/194/6 87/187/6 88/186/6 85/191/6
