{
    "asset" : {
        "generator" : "Khronos glTF Blender I/O v3.4.50",
        "version" : "2.0"
    },
    "scene" : 0,
    "scenes" : [
        {
            "name" : "Scene",
            "nodes" : [
                1
            ]
        }
    ],
    "nodes" : [
        {
            "mesh" : 0,
            "name" : "Gems_Chest_Empty_Lid",
            "translation" : [
                3.24249276673072e-06,
                0.5648016929626465,
                -0.5602470636367798
            ]
        },
        {
            "children" : [
                0
            ],
            "mesh" : 1,
            "name" : "Gems_Chest_Empty"
        }
    ],
    "materials" : [
        {
            "name" : "resource",
            "pbrMetallicRoughness" : {
                "baseColorTexture" : {
                    "index" : 0
                },
                "metallicFactor" : 0,
                "roughnessFactor" : 0.5
            }
        }
    ],
    "meshes" : [
        {
            "name" : "Gems_Chest_Empty_Lid",
            "primitives" : [
                {
                    "attributes" : {
                        "POSITION" : 0,
                        "TEXCOORD_0" : 1,
                        "NORMAL" : 2
                    },
                    "indices" : 3,
                    "material" : 0
                }
            ]
        },
        {
            "name" : "Gems_Chest_Empty",
            "primitives" : [
                {
                    "attributes" : {
                        "POSITION" : 4,
                        "TEXCOORD_0" : 5,
                        "NORMAL" : 6
                    },
                    "indices" : 7,
                    "material" : 0
                }
            ]
        }
    ],
    "textures" : [
        {
            "sampler" : 0,
            "source" : 0
        }
    ],
    "images" : [
        {
            "mimeType" : "image/png",
            "name" : "resource_bits_texture",
            "uri" : "resource_bits_texture.png"
        }
    ],
    "accessors" : [
        {
            "bufferView" : 0,
            "componentType" : 5126,
            "count" : 486,
            "max" : [
                0.7758749723434448,
                0.5414073467254639,
                0.9374263286590576
            ],
            "min" : [
                -0.7758814692497253,
                -0.08224207907915115,
                -0.085220105946064
            ],
            "type" : "VEC3"
        },
        {
            "bufferView" : 1,
            "componentType" : 5126,
            "count" : 486,
            "type" : "VEC2"
        },
        {
            "bufferView" : 2,
            "componentType" : 5126,
            "count" : 486,
            "type" : "VEC3"
        },
        {
            "bufferView" : 3,
            "componentType" : 5123,
            "count" : 1248,
            "type" : "SCALAR"
        },
        {
            "bufferView" : 4,
            "componentType" : 5126,
            "count" : 753,
            "max" : [
                0.7410288453102112,
                0.6881869435310364,
                0.4869832694530487
            ],
            "min" : [
                -0.7410286068916321,
                -0.0005141913425177336,
                -0.6434209942817688
            ],
            "type" : "VEC3"
        },
        {
            "bufferView" : 5,
            "componentType" : 5126,
            "count" : 753,
            "type" : "VEC2"
        },
        {
            "bufferView" : 6,
            "componentType" : 5126,
            "count" : 753,
            "type" : "VEC3"
        },
        {
            "bufferView" : 7,
            "componentType" : 5123,
            "count" : 1746,
            "type" : "SCALAR"
        }
    ],
    "bufferViews" : [
        {
            "buffer" : 0,
            "byteLength" : 5832,
            "byteOffset" : 0,
            "target" : 34962
        },
        {
            "buffer" : 0,
            "byteLength" : 3888,
            "byteOffset" : 5832,
            "target" : 34962
        },
        {
            "buffer" : 0,
            "byteLength" : 5832,
            "byteOffset" : 9720,
            "target" : 34962
        },
        {
            "buffer" : 0,
            "byteLength" : 2496,
            "byteOffset" : 15552,
            "target" : 34963
        },
        {
            "buffer" : 0,
            "byteLength" : 9036,
            "byteOffset" : 18048,
            "target" : 34962
        },
        {
            "buffer" : 0,
            "byteLength" : 6024,
            "byteOffset" : 27084,
            "target" : 34962
        },
        {
            "buffer" : 0,
            "byteLength" : 9036,
            "byteOffset" : 33108,
            "target" : 34962
        },
        {
            "buffer" : 0,
            "byteLength" : 3492,
            "byteOffset" : 42144,
            "target" : 34963
        }
    ],
    "samplers" : [
        {
            "magFilter" : 9729,
            "minFilter" : 9987
        }
    ],
    "buffers" : [
        {
            "byteLength" : 45636,
            "uri" : "Gems_Chest_Empty.bin"
        }
    ]
}
